{"glyphs":{"0":{"ha":1207,"x_min":3,"x_max":986,"o":"m 839 771 q 895 739 866 771 q 945 655 923 707 q 979 546 968 604 q 986 469 986 504 q 919 233 986 345 q 738 54 853 121 q 489 -13 623 -13 q 247 46 368 -13 q 115 148 171 82 q 31 295 60 213 q 3 465 3 377 q 43 664 3 569 q 167 831 83 759 q 375 936 251 903 q 475 947 416 947 q 638 924 555 947 q 776 860 721 901 q 839 771 832 820 m 345 103 q 490 76 418 76 q 645 109 573 76 q 772 198 718 141 q 856 326 827 254 q 886 474 886 397 q 839 654 886 571 q 832 675 832 668 q 839 683 832 683 q 857 665 847 683 q 907 475 907 577 q 877 321 907 396 q 789 186 846 246 q 655 92 732 126 q 489 58 578 58 q 336 85 414 58 q 317 97 317 89 q 331 105 317 105 q 345 103 339 105 m 746 724 q 711 707 733 707 q 686 714 698 707 q 485 777 584 777 q 239 649 341 777 q 176 467 176 568 q 205 341 176 403 q 293 228 234 280 q 300 213 300 221 q 290 203 300 203 q 274 211 283 203 q 156 464 156 309 q 174 574 156 521 q 225 667 192 626 q 299 735 256 705 q 391 781 341 765 q 492 797 441 797 q 692 735 593 797 q 711 728 701 728 q 726 735 721 728 q 738 738 729 738 q 750 730 750 735 q 746 724 750 728 m 667 703 q 712 688 689 688 q 761 708 741 688 q 781 755 781 729 q 751 808 781 789 q 492 893 631 893 q 335 864 410 893 q 202 785 259 836 q 114 669 145 734 q 61 451 61 558 q 96 287 61 363 q 193 154 132 211 q 332 68 255 98 q 488 38 408 38 q 626 62 560 38 q 763 137 705 92 q 856 235 820 181 q 908 347 892 289 q 925 465 925 405 q 904 599 925 536 q 846 708 883 662 q 815 720 837 720 q 789 711 797 720 q 780 699 787 709 q 767 683 773 689 q 751 672 761 677 q 739 653 739 670 q 757 600 739 628 q 790 465 790 529 q 765 351 790 405 q 695 259 739 298 q 595 197 651 219 q 482 175 539 175 q 385 193 431 175 q 289 254 333 213 q 220 350 245 295 q 194 465 194 405 q 299 683 194 583 q 489 758 378 758 q 667 703 580 758 m 683 635 q 634 655 673 635 q 558 688 595 675 q 480 701 522 701 q 353 660 415 701 q 260 475 260 592 q 322 299 260 373 q 486 232 382 232 q 663 304 592 232 q 730 461 730 378 q 721 526 730 497 q 698 589 712 555 q 683 635 683 624 z "},"1":{"ha":637,"x_min":-4,"x_max":468,"o":"m 144 461 l 117 461 q 35 499 74 461 q -4 588 -4 537 q 35 678 -4 635 l 242 903 q 343 951 286 951 q 405 935 376 951 q 451 891 433 919 q 468 830 468 863 q 432 740 468 784 l 375 675 q 396 581 396 657 l 396 111 q 358 15 396 50 q 268 -19 320 -19 q 181 13 218 -19 q 144 103 144 46 l 144 461 m 201 518 l 201 111 q 222 58 201 77 q 271 39 242 39 q 319 58 298 39 q 339 111 339 77 l 339 583 q 301 675 339 663 l 382 773 q 401 824 401 798 q 382 871 401 851 q 335 890 362 890 q 274 860 302 890 l 74 635 q 56 592 56 615 q 76 541 56 564 q 119 518 97 518 l 201 518 m 301 583 q 308 602 301 602 q 318 583 318 602 l 318 105 q 305 74 318 86 q 276 60 292 62 q 265 70 265 62 q 274 79 265 76 q 293 91 284 81 q 301 108 301 100 l 301 583 m 196 558 q 208 549 208 558 q 199 540 208 540 l 114 540 q 101 550 101 540 q 114 558 101 558 l 196 558 m 342 786 q 351 790 346 790 q 362 781 362 790 q 358 771 362 778 l 282 683 q 278 672 278 679 q 288 663 278 667 q 290 655 290 660 q 278 643 290 643 q 271 646 277 643 q 249 671 249 659 q 253 681 249 676 l 342 786 z "},"2":{"ha":830,"x_min":-74,"x_max":653,"o":"m 199 606 q 156 532 194 559 q 71 504 118 504 q -16 535 21 504 q -54 626 -52 567 q -8 793 -54 719 q 113 907 39 866 q 262 947 186 947 q 444 898 369 945 q 557 778 519 852 q 594 625 594 705 q 576 520 594 570 q 524 435 558 470 l 333 228 l 532 228 q 622 192 590 228 q 653 105 653 156 q 619 16 653 55 q 526 -22 585 -22 l 74 -22 q -37 16 -1 -22 q -74 107 -74 55 q -48 182 -74 154 l 307 572 q 333 636 333 606 q 301 683 333 668 q 264 694 280 694 q 199 606 209 694 m 65 35 l 535 35 q 577 56 560 35 q 593 105 593 78 q 577 152 593 133 q 529 171 561 171 l 211 171 l 486 478 q 539 626 539 537 q 507 753 539 693 q 409 852 475 814 q 250 890 343 890 q 134 853 191 886 q 40 764 77 820 q 4 639 4 708 q 5 608 4 618 q 30 571 8 588 q 76 554 51 554 q 146 643 135 554 q 190 723 154 695 q 271 750 225 750 q 322 740 296 750 q 397 639 397 712 q 370 558 397 590 l 8 160 q -17 101 -17 133 q 6 54 -17 74 q 65 35 28 35 m 76 74 l 524 74 q 553 97 549 74 q 563 108 556 108 q 571 103 567 107 q 575 97 575 99 q 558 67 573 79 q 526 54 544 54 l 76 54 q 60 64 60 54 q 76 74 60 74 m 179 199 l 455 504 q 494 622 494 547 q 445 765 494 713 q 437 781 437 772 q 445 789 437 789 q 461 779 451 789 q 515 625 515 722 q 469 492 515 539 l 193 185 q 179 178 186 178 q 172 185 172 178 q 179 199 172 191 m 328 757 q 272 767 302 767 q 178 735 220 767 q 125 637 136 704 q 85 578 118 589 q 67 585 67 578 q 76 597 67 595 q 105 649 100 607 q 132 722 107 690 q 193 773 156 755 q 270 790 230 790 q 339 773 308 790 q 342 767 342 772 q 328 757 342 757 z "},"3":{"ha":782,"x_min":-105,"x_max":498,"o":"m 32 675 q -70 718 -34 680 q -105 806 -105 756 q -70 893 -105 856 q 28 930 -34 930 l 358 930 q 457 893 415 930 q 498 801 498 855 q 370 629 498 706 q 444 536 417 596 q 471 403 471 476 q 447 265 471 335 q 372 131 422 195 q 247 17 321 66 q 111 -24 184 -24 q 22 4 58 -24 q -19 92 -14 31 q 10 165 -19 130 q 79 214 40 200 q 173 278 129 234 q 218 365 218 321 q 214 390 218 377 q 178 425 207 411 q 108 439 150 439 q 47 431 73 431 q -13 449 9 431 q -52 507 -34 467 q -60 553 -60 524 q 32 675 -57 632 m 211 735 l 29 603 q 1 554 1 583 q 22 509 1 530 q 60 489 42 489 q 133 502 96 502 q 214 483 179 502 q 265 426 250 464 q 275 374 275 401 q 236 268 275 319 q 131 182 197 218 q 103 168 118 176 q 74 151 89 161 q 50 125 60 140 q 40 92 40 110 q 68 48 44 65 q 125 31 92 31 q 182 43 151 31 q 292 124 240 69 q 378 253 345 178 q 411 407 411 328 q 399 502 411 453 q 359 565 388 538 q 276 632 331 593 l 379 714 q 431 804 431 754 q 404 856 431 836 q 325 877 377 877 l 43 877 q -21 854 3 877 q -46 803 -46 832 q -22 755 -46 775 q 46 735 2 735 l 211 735 m 54 777 l 228 777 q 247 765 247 777 q 228 757 247 757 l 52 757 q 29 767 29 757 q 54 777 29 777 m 261 663 q 319 707 291 686 q 365 748 347 729 q 393 789 384 767 q 404 797 397 797 q 410 779 410 797 q 374 729 398 751 q 274 649 350 708 q 260 642 267 642 q 251 649 251 642 q 261 663 251 654 m 79 532 q 128 536 96 536 q 217 524 173 534 q 231 510 231 520 q 214 502 231 502 q 131 517 160 517 q 85 512 100 517 q 64 521 64 512 q 79 532 64 528 m 361 472 q 358 489 358 479 q 367 504 358 504 q 382 486 377 504 q 394 400 394 451 q 385 327 394 363 q 361 257 377 291 q 325 196 346 223 q 230 94 286 139 q 125 48 173 48 q 68 71 93 48 q 64 81 64 75 q 74 92 64 92 q 85 87 79 92 q 126 74 102 74 q 222 115 170 74 q 313 208 274 157 q 374 393 374 306 q 361 472 374 438 z "},"4":{"ha":893,"x_min":0,"x_max":796,"o":"m 315 851 q 361 932 327 905 q 437 960 395 960 q 503 944 471 960 q 555 898 535 927 q 575 833 575 869 l 575 540 l 640 540 q 757 504 719 540 q 796 415 796 468 q 768 331 796 367 l 543 29 q 433 -26 499 -26 q 345 7 382 -26 q 307 95 307 41 l 307 279 l 151 279 q 40 316 80 279 q 0 418 0 353 q 14 502 0 458 l 100 783 q 153 861 117 835 q 231 887 189 887 q 315 851 283 887 m 492 504 l 510 504 l 510 817 q 490 873 510 853 q 443 892 471 892 q 392 870 414 892 q 370 811 370 848 l 370 504 l 467 504 l 467 797 q 479 818 467 818 q 492 797 492 818 l 492 504 m 319 651 l 276 532 l 319 532 l 319 651 m 179 502 l 250 726 q 264 744 254 744 q 271 732 271 744 q 268 717 271 730 l 201 496 q 188 480 198 480 q 179 502 179 480 m 540 379 q 551 368 551 379 q 540 356 551 358 l 139 356 q 125 368 125 356 q 139 379 125 379 l 540 379 m 683 415 q 678 428 678 422 q 685 433 678 433 q 706 421 695 433 q 711 406 711 415 q 694 364 711 394 l 480 74 q 436 52 466 52 q 401 62 410 52 q 399 71 399 65 q 410 82 401 82 q 418 79 413 82 q 435 75 424 75 q 461 85 453 75 l 678 376 q 688 403 688 390 q 683 415 688 408 m 464 310 q 426 318 444 318 q 378 294 396 318 q 361 244 361 270 l 361 95 q 383 53 361 71 q 435 35 406 35 q 498 68 473 35 l 720 364 q 732 401 732 383 q 720 440 732 422 q 686 470 707 459 q 637 480 664 480 l 214 480 l 290 729 q 294 757 294 744 q 276 806 294 788 q 231 824 257 824 q 186 809 207 824 q 157 763 166 793 l 62 450 q 60 426 60 436 q 81 367 60 393 q 146 342 102 342 l 549 342 l 502 274 q 486 299 497 290 l 486 247 q 476 233 486 233 q 468 238 472 233 q 464 247 464 242 l 464 310 z "},"5":{"ha":683,"x_min":-62,"x_max":535,"o":"m -62 808 q -15 913 -62 876 q 89 950 32 950 l 356 950 q 463 910 425 950 q 502 817 502 871 q 473 732 502 770 q 390 683 444 694 q 496 598 456 660 q 535 439 535 536 q 529 364 535 399 q 483 214 516 282 q 394 93 450 147 q 261 0 338 38 q 149 -31 200 -31 q 43 8 84 -31 q 1 99 1 47 q 23 163 1 133 q 89 211 45 193 q 183 266 144 235 q 240 330 221 297 q 258 390 258 362 q 239 437 258 419 q 188 455 220 455 l 105 455 q -22 504 18 455 q -62 610 -62 552 l -62 808 m 144 746 l 350 746 q 410 766 389 746 q 431 814 431 786 q 410 863 431 842 q 353 885 389 885 l 105 885 q 28 865 59 885 q -3 782 -3 845 l -3 615 q 25 548 -3 576 q 105 521 54 521 q 211 516 170 521 q 279 492 252 511 q 322 396 322 455 q 267 263 322 329 q 114 162 212 197 q 67 105 67 145 q 92 56 67 79 q 154 33 118 33 q 193 40 171 33 q 348 139 286 75 q 440 278 411 202 q 469 426 469 353 q 464 489 469 463 q 380 618 448 575 q 176 660 312 660 l 144 660 l 144 746 m 390 808 q 403 821 394 821 q 413 803 413 821 q 350 763 401 763 l 149 763 q 125 738 125 763 l 125 683 q 110 661 125 661 q 97 683 97 661 l 97 740 q 105 773 97 760 q 144 786 114 786 l 333 786 q 390 808 384 786 m 89 558 q 133 559 103 558 q 176 560 162 560 q 293 532 261 560 q 301 517 301 526 q 285 507 301 507 q 174 537 243 537 l 121 537 l 92 537 q 78 549 78 537 q 89 558 78 558 m 117 87 q 162 74 133 74 q 257 113 212 85 q 337 181 302 142 q 390 265 371 221 q 429 422 429 348 q 353 589 429 523 q 347 600 347 594 q 357 610 347 610 q 370 606 361 610 q 453 429 453 545 q 413 258 453 351 q 312 130 382 185 q 165 52 242 74 q 95 79 114 52 q 101 96 95 94 q 117 87 106 96 z "},"6":{"ha":854,"x_min":-4,"x_max":739,"o":"m 5 421 q -1 503 -1 469 q 49 702 -1 621 q 185 851 99 784 q 317 923 245 900 q 467 947 389 947 q 581 933 518 947 q 644 893 623 922 q 665 825 665 863 q 641 749 665 784 q 575 706 616 715 q 549 703 555 703 q 522 704 540 703 q 493 706 504 706 q 435 697 461 706 q 606 617 538 672 q 707 490 674 562 q 739 342 739 418 q 708 196 739 266 q 620 74 675 123 q 499 1 565 24 q 362 -22 432 -22 q 144 46 234 -22 q 33 178 70 100 q -4 337 -4 256 q 5 421 -4 384 m 182 385 q 175 327 175 330 q 182 282 175 309 q 178 261 182 261 q 168 268 172 261 q 157 327 157 292 q 165 385 157 357 q 178 399 168 399 q 182 385 182 399 m 146 185 q 133 189 144 189 q 124 182 124 189 q 136 160 124 172 q 361 48 240 48 q 543 105 446 48 q 630 209 597 138 q 663 351 663 279 q 646 442 663 407 q 628 460 635 460 q 621 449 621 460 q 626 429 621 438 q 642 343 642 390 q 608 217 642 276 q 532 128 575 157 q 362 74 452 74 q 146 185 238 74 m 239 643 q 492 777 312 777 q 511 776 498 777 q 531 775 524 775 q 575 789 559 775 q 581 801 581 796 q 571 811 581 811 q 561 808 567 811 q 524 800 553 800 q 509 801 519 800 q 493 801 498 801 q 214 651 299 801 q 211 642 211 649 q 222 631 211 631 q 239 643 232 631 m 256 415 q 260 394 260 407 q 257 362 260 386 q 254 327 254 339 q 296 244 254 275 q 364 222 329 222 q 418 235 392 222 q 458 268 444 249 q 482 336 482 297 q 464 398 482 369 q 415 439 446 427 q 374 447 397 447 q 308 431 347 447 q 256 415 269 415 m 65 424 q 54 336 54 383 q 83 208 54 266 q 160 111 112 151 q 265 50 209 71 q 375 29 322 29 q 509 64 451 36 q 605 135 567 92 q 661 230 642 177 q 679 337 679 282 q 610 535 679 450 q 542 593 581 567 q 460 632 504 618 q 368 646 416 646 q 250 626 309 646 q 494 761 311 761 q 537 760 524 761 q 587 778 568 760 q 606 822 606 796 q 591 863 606 845 q 546 887 576 882 q 469 895 503 895 q 308 862 384 895 q 174 772 232 829 q 85 643 117 715 q 53 496 53 571 q 54 458 53 471 q 128 490 88 490 q 157 486 144 490 q 174 483 166 483 q 256 510 208 483 q 379 545 310 545 q 540 461 475 545 q 550 442 550 449 q 542 435 550 435 q 524 445 533 435 q 379 522 462 522 q 319 513 347 522 q 263 489 290 503 q 231 475 235 476 q 208 460 208 471 q 219 453 208 453 q 239 458 228 453 q 269 474 245 461 q 322 496 293 487 q 382 506 351 506 q 518 421 468 506 q 540 340 540 387 q 502 233 540 277 q 365 170 446 170 q 262 201 312 170 q 197 328 197 244 q 203 393 197 349 q 181 447 203 428 q 129 465 159 465 q 65 424 78 465 z "},"7":{"ha":771,"x_min":-62,"x_max":631,"o":"m -22 615 l -62 771 q -50 840 -62 805 q -3 900 -37 876 q 87 925 31 925 l 480 925 q 584 893 537 925 q 631 806 631 862 q 618 749 631 781 l 350 57 q 235 -21 319 -21 q 141 12 182 -21 q 99 95 99 45 q 105 133 99 116 l 313 672 l 225 672 q 187 580 225 611 q 96 549 150 549 q 20 567 54 549 q -22 615 -14 585 m 29 651 q 55 617 36 629 q 99 604 74 604 q 148 623 127 604 q 170 676 170 643 q 157 732 170 700 l 393 732 l 168 139 q 160 99 160 117 q 179 50 160 68 q 225 32 198 32 q 270 47 249 32 q 301 92 291 62 l 558 760 q 568 804 568 784 q 478 868 568 868 l 89 868 q 23 840 48 868 q -3 773 -3 812 l 29 651 m 518 773 q 532 783 522 783 q 543 763 543 783 l 285 100 q 237 54 267 54 q 225 57 233 54 q 217 65 217 60 q 220 73 217 69 q 225 76 222 76 q 265 117 254 76 l 518 773 m 382 771 q 397 761 397 771 q 379 749 397 749 l 131 749 l 149 678 q 128 629 149 647 q 114 624 122 624 q 103 633 103 624 q 117 649 103 641 q 128 665 128 652 q 125 681 128 675 l 103 771 l 382 771 z "},"8":{"ha":1019,"x_min":-50,"x_max":649,"o":"m 48 502 q -7 659 -7 577 q 35 798 -7 732 q 148 905 77 865 q 304 944 220 944 q 462 905 391 942 q 572 806 532 868 q 611 674 611 745 q 555 510 611 590 q 649 282 649 395 q 596 121 649 194 q 459 5 543 47 q 290 -38 376 -38 q 121 5 200 -37 q -4 118 43 47 q -50 272 -50 189 q 48 502 -50 393 m 342 370 q 308 362 336 365 q 262 352 280 358 q 236 328 244 346 q 225 286 225 308 q 279 219 225 238 q 308 214 292 214 q 364 256 351 214 q 368 283 368 270 q 364 311 368 302 q 351 340 360 321 q 342 370 342 359 m 256 603 q 290 610 261 606 q 331 621 320 614 q 347 655 347 632 q 333 683 347 674 q 299 696 318 696 q 261 672 274 696 q 256 649 256 665 l 256 603 m 507 436 q 560 285 560 361 q 523 160 560 218 q 423 68 485 102 q 292 35 361 35 q 154 74 220 35 q 139 93 139 83 q 149 101 139 101 q 168 95 154 101 q 301 56 229 56 q 417 84 362 56 q 504 164 471 113 q 537 279 537 216 q 493 426 537 353 q 488 443 488 437 q 492 447 488 447 q 507 436 498 447 m 203 575 q 210 612 210 591 q 208 643 210 633 q 239 721 208 692 q 310 749 270 749 q 377 717 355 742 q 399 659 399 692 q 377 594 399 623 q 322 564 354 565 q 114 492 180 557 q 15 285 15 393 q 45 170 15 224 q 124 78 76 115 q 225 25 172 40 q 292 15 263 15 q 431 52 363 15 q 540 153 499 90 q 582 289 582 216 q 502 483 582 391 q 458 503 484 503 q 406 481 430 503 q 382 431 382 459 q 396 393 382 411 q 433 283 433 339 q 410 203 433 239 q 307 153 378 153 q 235 170 270 153 q 179 219 200 187 q 157 296 157 251 q 191 380 163 353 q 245 414 218 408 q 313 426 271 420 q 358 442 355 432 q 313 446 336 446 q 224 427 263 446 q 164 374 185 409 q 142 294 142 339 q 154 222 142 261 q 143 201 154 201 q 133 208 135 201 q 117 292 117 254 q 144 386 117 346 q 219 449 172 427 q 317 471 265 471 q 364 467 339 471 q 450 524 386 514 q 498 654 498 576 q 426 806 498 747 q 418 818 418 812 q 426 826 418 826 q 442 820 432 826 q 517 659 517 759 q 478 518 517 582 q 493 512 485 518 q 532 657 532 585 q 515 745 532 704 q 468 816 498 786 q 399 864 438 846 q 315 885 359 882 q 193 856 251 885 q 99 774 135 827 q 64 651 64 721 q 71 589 64 618 q 88 551 75 569 q 121 532 101 532 q 149 543 134 532 q 153 549 153 548 q 148 553 153 550 q 143 558 143 555 q 151 569 143 561 q 171 621 171 584 q 168 650 168 641 q 187 723 168 692 q 237 772 206 755 q 303 789 268 789 q 375 768 339 789 q 382 758 382 765 q 364 749 382 749 q 300 767 332 767 q 221 734 254 767 q 189 654 189 702 q 193 621 189 638 q 190 581 193 589 q 193 564 190 564 q 203 575 203 564 z "},"9":{"ha":944,"x_min":-5,"x_max":729,"o":"m 486 546 q 469 595 479 554 q 440 660 459 635 q 372 692 420 685 q 292 666 327 692 q 253 603 257 640 q 283 514 253 544 q 356 483 314 483 q 416 494 395 483 q 455 523 437 505 q 486 546 474 542 m 336 233 q 200 263 265 233 q 95 339 134 293 q -5 585 -5 453 q 36 748 -5 670 q 149 878 77 826 q 307 944 221 931 q 379 950 340 950 q 567 898 488 950 q 688 764 647 846 q 729 597 729 682 q 717 507 729 549 q 726 415 726 464 q 693 251 726 330 q 596 110 659 171 q 441 13 532 48 q 239 -22 350 -22 q 131 14 169 -21 q 93 99 93 50 q 107 156 93 129 q 149 200 122 183 q 214 217 177 217 q 336 233 301 217 m 483 307 q 399 202 470 242 q 233 162 328 162 q 170 145 193 162 q 147 103 147 128 q 167 60 147 79 q 225 35 187 41 q 267 32 253 32 q 463 84 370 32 q 612 224 555 136 q 668 410 668 312 q 654 502 668 458 q 635 493 645 498 q 646 413 646 452 q 602 243 646 326 q 465 105 557 159 q 239 52 373 52 q 205 64 205 52 q 233 74 205 74 q 435 118 345 74 q 577 238 526 163 q 628 399 628 313 q 621 458 628 424 q 618 474 620 466 q 614 487 617 482 q 606 492 611 492 q 574 498 594 492 q 543 515 553 505 q 533 512 538 515 q 520 500 527 508 q 512 493 513 493 q 439 439 479 455 q 354 419 396 419 q 241 470 285 419 q 197 588 197 520 q 256 711 197 665 q 371 753 306 753 q 444 735 410 753 q 503 679 479 717 q 535 586 527 642 q 559 532 539 551 q 603 512 578 512 q 648 535 629 512 q 667 600 667 557 q 618 765 661 698 q 509 863 575 831 q 370 895 444 895 q 168 822 249 895 q 84 712 112 773 q 57 588 57 651 q 96 439 57 510 q 204 326 135 369 q 358 283 273 283 q 483 307 421 283 m 162 410 q 356 321 260 321 q 467 345 409 321 q 488 336 488 345 q 478 322 488 327 q 358 296 418 296 q 149 390 244 296 q 139 408 139 398 q 147 418 139 418 q 162 410 154 418 m 193 512 q 196 496 196 500 q 188 482 196 482 q 176 493 182 482 q 157 586 157 537 q 188 693 157 645 q 268 766 219 740 q 371 793 318 793 q 498 743 447 793 q 510 722 510 734 q 503 714 510 714 q 492 720 497 714 q 370 772 437 772 q 277 747 321 772 q 207 677 234 721 q 180 582 180 633 q 193 512 180 549 m 610 558 q 629 606 629 569 q 592 722 621 671 q 586 739 586 731 q 593 746 586 746 q 606 738 601 746 q 640 671 630 703 q 651 594 649 639 q 621 543 651 555 q 610 540 617 540 q 600 547 600 543 q 610 558 600 554 z "},"­":{"ha":1042,"x_min":174,"x_max":868,"o":"m 174 0 l 174 868 l 868 868 l 868 0 l 174 0 m 846 22 l 846 846 l 195 846 l 195 22 l 846 22 z "},"¦":{"ha":271,"x_min":57,"x_max":258,"o":"m 57 79 l 60 839 q 91 919 60 890 q 164 949 123 949 q 231 922 203 949 q 258 846 258 895 l 258 82 q 228 5 257 33 q 160 -22 199 -22 q 88 5 120 -22 q 57 79 57 33 m 100 82 q 117 37 100 54 q 157 21 135 21 q 197 37 180 21 q 214 82 214 53 l 214 843 q 197 891 214 874 q 157 907 181 907 q 117 890 134 907 q 100 840 100 872 l 100 82 m 199 839 l 199 82 q 171 35 199 45 q 154 42 154 35 q 165 54 154 50 q 182 89 182 57 l 182 839 q 190 850 182 850 q 199 839 199 850 z "},"²":{"ha":442,"x_min":53,"x_max":404,"o":"m 247 928 q 217 932 233 932 q 146 868 151 929 q 128 840 146 843 q 121 844 121 842 q 125 849 121 849 q 139 873 139 856 q 163 926 142 908 q 214 944 184 944 q 253 936 234 944 q 256 933 256 934 q 247 928 256 928 m 174 660 l 307 806 q 325 863 325 826 q 301 930 325 905 q 305 935 303 930 q 310 939 308 939 q 336 865 336 911 q 315 797 336 822 l 182 651 q 175 650 179 650 q 171 653 171 650 q 174 660 171 654 m 125 597 l 339 597 q 356 610 350 597 q 360 615 358 615 q 364 613 362 615 q 367 610 366 611 q 342 589 362 589 l 125 589 q 117 593 117 589 q 125 597 117 597 m 119 583 l 345 583 q 365 593 357 583 q 372 615 372 603 q 364 637 372 628 q 342 646 356 646 l 190 646 l 322 792 q 346 863 346 820 q 310 952 346 913 q 208 990 275 990 q 125 951 162 988 q 89 854 89 914 q 100 838 90 845 q 124 830 111 830 q 160 873 152 830 q 179 911 162 898 q 217 924 195 924 q 239 920 228 924 q 276 863 276 902 q 265 830 276 844 l 92 640 q 82 614 82 629 q 119 583 82 583 m 185 854 q 163 819 182 832 q 122 806 145 806 q 81 821 98 806 q 62 865 63 837 q 85 944 62 909 q 143 998 108 979 q 214 1017 178 1017 q 333 969 291 1016 q 375 863 375 923 q 342 771 375 807 l 250 672 l 345 672 q 388 655 372 672 q 404 614 404 637 q 387 571 404 589 q 342 553 371 553 l 125 553 q 71 572 89 553 q 53 615 53 590 q 65 651 53 636 l 236 839 q 250 868 250 849 q 233 893 250 884 q 217 897 225 897 q 185 854 190 897 z "},"³":{"ha":445,"x_min":71,"x_max":380,"o":"m 313 777 q 314 793 313 793 q 322 783 320 793 q 329 742 329 761 q 293 632 329 687 q 243 581 272 603 q 189 558 214 558 q 160 569 175 558 q 162 581 160 581 q 168 578 165 581 q 190 571 177 571 q 240 593 213 571 q 285 640 267 615 q 317 739 317 683 q 313 777 317 758 m 165 808 q 188 811 179 811 q 236 803 207 811 q 243 797 243 801 q 236 792 243 792 q 190 800 208 800 q 168 797 182 800 q 157 801 157 800 q 165 808 157 805 m 261 873 q 292 900 280 890 q 312 921 303 910 q 325 942 321 931 q 336 936 336 942 q 316 907 330 920 q 265 868 301 893 q 258 865 262 865 q 256 867 256 865 q 261 873 256 870 m 151 933 l 242 933 q 251 928 251 933 q 242 922 251 922 l 151 922 q 140 928 140 922 q 151 933 140 933 m 233 911 l 139 843 q 125 820 125 833 q 136 795 125 806 q 154 783 147 783 q 194 792 175 792 q 261 751 245 792 q 267 725 267 734 q 193 626 267 668 q 156 605 168 614 q 144 581 144 597 q 189 550 149 550 q 217 555 203 550 q 301 628 264 575 q 337 742 337 680 q 331 792 337 771 q 265 860 318 823 l 319 900 q 347 946 347 919 q 293 985 347 985 l 146 985 q 113 974 125 985 q 101 947 101 962 q 149 911 101 911 l 233 911 m 142 882 q 89 904 108 885 q 71 949 71 923 q 89 993 71 974 q 139 1013 107 1013 l 310 1013 q 360 993 339 1013 q 380 946 380 974 q 315 857 380 897 q 367 740 367 823 q 338 633 367 686 q 253 543 309 580 q 180 521 220 521 q 117 581 120 521 q 130 617 117 600 q 165 643 144 634 q 215 677 192 655 q 239 722 239 700 q 236 735 239 725 q 218 752 233 745 q 182 760 202 760 q 150 755 164 755 q 97 794 114 755 q 93 817 93 805 q 142 882 93 858 z "},"¹":{"ha":347,"x_min":54,"x_max":294,"o":"m 128 773 l 114 773 q 74 793 93 773 q 54 838 54 812 q 74 885 54 863 l 179 1001 q 225 1024 199 1024 q 273 1003 252 1024 q 294 956 294 983 q 279 917 294 936 l 250 885 q 261 833 261 873 l 261 589 q 241 538 261 556 q 194 521 221 521 q 149 537 168 521 q 131 583 131 554 l 128 773 m 157 800 l 157 589 q 168 560 157 571 q 194 550 179 550 q 220 560 209 550 q 231 589 231 571 l 231 836 q 211 885 231 877 l 253 933 q 264 960 264 946 q 254 985 264 975 q 229 995 244 995 q 199 979 212 995 l 92 863 q 83 840 83 852 q 94 812 83 825 q 117 800 104 800 l 157 800 m 211 836 q 214 842 211 842 q 219 830 219 842 l 219 586 q 213 569 219 576 q 199 561 206 561 q 193 565 193 564 q 199 569 193 569 q 211 586 211 579 l 211 836 m 157 817 q 161 811 158 817 q 157 808 161 808 q 108 814 117 808 q 105 821 105 817 q 111 825 105 825 q 157 817 122 817 m 233 942 q 242 933 242 942 l 199 885 q 200 879 199 880 q 203 877 202 877 q 196 868 203 868 q 179 879 179 876 l 233 942 z "},"¼":{"ha":982,"x_min":54,"x_max":925,"o":"m 754 174 q 735 178 744 178 q 709 165 719 178 q 700 139 700 153 l 700 62 q 711 40 700 50 q 736 31 722 31 q 771 48 757 31 l 890 203 q 895 217 895 209 q 881 248 895 234 q 846 262 868 262 l 624 262 l 665 393 q 633 442 665 442 q 594 410 605 442 l 546 247 q 539 218 539 226 q 589 190 539 190 l 797 190 l 777 154 q 765 165 772 162 l 765 142 q 760 135 765 135 q 754 142 754 135 l 754 174 m 871 228 q 867 236 867 232 q 871 239 867 239 q 882 231 878 239 q 883 219 883 228 q 879 201 883 208 l 763 48 q 735 35 745 36 q 720 40 725 35 q 715 46 715 45 q 726 52 715 52 q 738 47 730 47 q 751 57 748 47 l 871 208 l 871 228 m 797 208 q 806 204 806 208 q 800 199 806 200 l 586 199 q 581 205 584 199 q 583 208 581 208 l 797 208 m 606 274 l 643 393 q 651 401 645 401 q 654 388 654 401 l 618 271 q 612 262 614 262 q 606 274 606 262 m 681 353 l 657 288 l 681 288 l 681 353 m 771 274 l 779 274 l 779 439 q 744 478 779 478 q 717 466 729 478 q 706 435 706 455 l 706 274 l 760 274 l 760 429 q 765 440 760 440 q 771 429 771 440 l 771 274 m 675 453 q 747 507 695 507 q 792 490 774 507 q 811 445 811 474 l 811 293 q 836 296 820 296 q 904 273 883 295 q 925 221 925 251 q 914 182 925 198 l 794 28 q 736 -3 770 -3 q 689 16 709 -3 q 669 62 669 35 l 669 157 l 581 157 q 508 218 508 157 q 518 274 508 243 l 564 421 q 629 475 580 475 q 675 453 657 475 m 575 879 l 290 103 q 253 74 280 74 q 243 81 243 76 q 258 89 243 89 q 279 119 273 89 l 561 890 q 569 897 563 897 q 575 879 575 897 m 222 144 q 213 101 213 121 q 223 67 213 79 q 250 54 234 54 q 282 68 266 54 q 307 108 298 83 l 586 877 q 593 915 593 894 q 583 952 593 938 q 557 965 573 965 q 504 911 524 965 l 222 144 m 188 160 l 469 925 q 509 988 484 967 q 561 1008 534 1008 q 611 984 590 1008 q 632 920 632 959 q 621 860 632 890 l 342 100 q 244 15 310 15 q 195 37 215 15 q 175 97 175 60 q 188 160 175 124 m 233 953 l 179 890 q 196 879 179 887 q 203 887 203 879 q 199 896 199 887 l 242 944 q 233 953 242 953 m 157 828 q 161 822 158 828 q 157 820 161 820 q 108 825 117 820 q 105 832 105 828 q 111 836 105 836 q 157 828 122 828 m 211 846 q 214 853 211 853 q 219 840 219 853 l 219 597 q 213 580 219 587 q 199 572 206 572 q 193 576 193 575 q 199 581 193 581 q 211 597 211 589 l 211 846 m 157 811 l 157 600 q 168 572 157 582 q 194 561 179 561 q 220 572 209 561 q 231 600 231 582 l 231 846 q 211 896 231 887 l 253 944 q 264 971 264 958 q 254 996 264 985 q 229 1006 244 1006 q 199 990 212 1006 l 92 873 q 83 850 83 863 q 94 823 83 834 q 117 811 104 811 l 157 811 m 128 783 l 114 783 q 74 803 93 783 q 54 849 54 823 q 74 896 54 873 l 179 1013 q 225 1033 198 1033 q 273 1013 253 1033 q 294 967 294 994 q 279 928 294 947 l 250 896 q 261 843 261 885 l 261 600 q 241 550 261 568 q 194 532 222 532 q 149 549 168 532 q 131 594 131 565 l 128 783 z "},"½":{"ha":936,"x_min":56,"x_max":873,"o":"m 217 871 q 228 868 228 871 q 225 863 228 865 l 188 820 q 193 811 188 811 q 185 803 193 803 q 171 814 171 810 l 217 871 m 149 760 l 149 754 q 105 757 119 754 q 103 761 103 758 q 108 765 103 765 q 149 760 119 760 m 201 773 q 205 773 205 773 l 205 549 q 200 533 205 540 q 188 526 194 526 q 182 529 182 529 q 188 535 182 533 q 201 549 201 542 l 201 773 m 151 743 l 151 550 q 161 525 151 535 q 185 515 172 515 q 207 525 197 515 q 217 550 217 534 l 217 773 q 199 817 217 811 l 236 863 q 244 886 244 872 q 235 909 243 899 q 215 918 228 918 q 188 903 199 918 l 92 797 q 83 778 83 789 q 94 754 83 765 q 114 743 104 743 l 151 743 m 125 717 l 111 717 q 73 736 91 718 q 56 777 56 753 q 74 820 56 798 l 171 925 q 213 944 188 944 q 255 926 237 944 q 274 883 274 908 q 261 849 274 863 l 233 817 q 244 773 244 808 l 244 550 q 227 505 244 522 q 185 489 209 489 q 143 505 160 489 q 125 549 125 522 l 125 717 m 550 773 l 288 62 q 253 38 279 38 q 244 44 244 40 q 258 57 244 57 q 279 76 269 57 l 540 782 q 549 789 544 789 q 553 783 553 789 q 550 773 553 782 m 228 100 q 222 70 222 85 q 233 36 222 49 q 258 24 243 24 q 310 71 292 24 l 561 771 q 568 807 568 788 q 558 840 568 828 q 535 851 549 851 q 486 803 504 851 l 228 100 m 196 114 l 455 814 q 492 871 470 852 q 539 890 514 890 q 585 868 566 890 q 604 810 604 846 q 594 757 604 784 l 336 60 q 254 -15 309 -15 q 207 8 227 -15 q 188 67 188 31 q 196 114 188 90 m 654 271 q 633 235 651 249 q 592 222 614 222 q 551 238 568 222 q 532 282 533 254 q 554 361 532 327 q 612 415 577 396 q 683 435 647 435 q 772 411 735 434 q 826 353 808 389 q 844 279 844 317 q 811 188 844 223 l 720 89 l 814 89 q 858 71 842 89 q 873 29 873 54 q 857 -14 873 4 q 811 -32 841 -32 l 594 -32 q 540 -13 558 -32 q 522 32 522 6 q 535 68 522 53 l 706 256 q 718 283 718 268 q 703 310 718 300 q 686 314 694 314 q 654 271 660 314 m 589 -3 l 814 -3 q 834 7 827 -3 q 842 31 842 17 q 834 53 842 44 q 811 62 826 62 l 660 62 l 792 208 q 815 279 815 236 q 780 369 815 331 q 678 407 745 407 q 595 368 631 405 q 558 271 558 331 q 570 255 559 262 q 593 247 581 247 q 629 290 622 247 q 648 328 632 315 q 686 340 665 340 q 708 336 697 340 q 746 280 746 320 q 735 247 746 261 l 561 57 q 550 29 550 44 q 560 7 550 16 q 589 -3 571 -3 m 594 14 l 808 14 q 825 28 821 14 q 829 32 827 32 q 833 30 831 32 q 836 28 835 29 q 811 5 832 5 l 594 5 q 586 10 586 5 q 594 14 586 14 m 643 76 l 777 222 q 794 280 794 242 q 771 347 794 323 q 775 351 772 347 q 779 356 778 356 q 806 282 806 329 q 783 214 806 240 l 651 68 q 645 67 649 67 q 640 70 640 67 q 643 76 640 71 m 717 345 q 686 349 702 349 q 615 285 621 346 q 597 258 615 262 q 590 261 590 260 q 594 265 590 265 q 608 290 608 272 q 632 343 610 325 q 683 361 653 361 q 722 353 704 361 q 717 345 722 345 z "},"¾":{"ha":1064,"x_min":62,"x_max":1003,"o":"m 265 160 l 549 925 q 588 987 564 966 q 639 1007 612 1007 q 690 984 669 1007 q 711 920 711 960 q 700 860 711 889 l 418 100 q 377 37 403 59 q 323 15 351 15 q 273 38 294 15 q 253 99 253 61 q 265 160 253 123 m 299 144 q 290 101 290 120 q 300 67 290 79 q 327 54 311 54 q 385 108 364 54 l 665 877 q 672 914 672 894 q 662 951 672 937 q 635 965 651 965 q 581 911 600 965 l 299 144 m 654 879 l 370 103 q 331 74 353 74 q 321 81 321 76 q 336 89 321 89 q 358 119 346 89 l 640 890 q 649 897 642 897 q 654 879 654 897 m 754 453 q 825 507 774 507 q 869 490 850 507 q 887 445 887 474 l 887 293 q 911 296 896 296 q 981 273 959 295 q 1003 221 1003 251 q 990 182 1003 196 l 873 28 q 815 -3 849 -3 q 769 16 789 -3 q 749 62 749 35 l 749 157 l 660 157 q 586 215 586 157 q 597 274 586 236 l 643 421 q 708 475 659 475 q 754 453 736 475 m 849 274 l 857 274 l 857 439 q 847 468 857 458 q 822 478 837 478 q 795 466 806 478 q 783 435 783 455 l 783 274 l 836 274 l 836 429 q 843 440 836 440 q 849 429 849 440 l 849 274 m 757 353 l 735 288 l 757 288 l 757 353 m 683 274 l 722 393 q 726 390 724 393 q 729 388 728 388 l 694 271 q 689 262 690 262 q 683 274 683 262 m 877 208 q 883 204 883 208 q 877 199 883 201 l 663 199 q 657 204 657 199 q 663 208 657 208 l 877 208 m 947 228 q 949 239 947 239 q 960 231 955 239 q 961 219 961 228 q 957 201 961 208 l 840 48 q 812 35 828 37 q 797 40 803 35 q 793 46 793 42 q 806 52 793 52 q 815 47 810 47 q 830 57 823 47 l 947 208 q 951 218 951 213 q 947 228 951 224 m 833 174 q 814 178 823 178 q 788 165 797 178 q 779 139 779 153 l 779 62 q 790 40 779 49 q 814 31 800 31 q 849 48 834 31 l 965 203 q 969 219 969 209 q 958 249 969 236 q 925 262 946 262 l 700 262 l 740 393 q 743 408 743 405 q 733 433 743 424 q 710 442 723 442 q 672 410 680 442 l 624 247 q 615 218 615 223 q 667 190 615 190 l 877 190 l 851 154 q 843 165 851 161 l 843 142 q 839 135 843 135 q 833 142 833 135 l 833 174 m 133 893 q 81 914 99 895 q 62 958 62 933 q 81 1003 62 983 q 131 1022 99 1022 l 301 1022 q 352 1004 331 1022 q 372 957 372 985 q 307 868 372 908 q 358 751 358 834 q 330 644 358 697 q 244 553 301 591 q 174 532 211 532 q 108 592 112 532 q 122 628 108 611 q 157 654 137 646 q 207 687 183 665 q 231 733 231 709 q 228 746 231 737 q 210 763 225 755 q 174 771 195 771 q 142 767 155 767 q 89 806 106 767 q 85 828 85 816 q 133 893 85 869 m 225 922 l 131 854 q 117 830 117 844 q 128 807 117 819 q 146 794 139 794 q 186 803 166 803 q 253 763 237 803 q 258 736 258 747 q 238 682 258 708 q 185 637 218 655 q 150 617 163 627 q 136 592 136 607 q 152 569 140 578 q 180 560 164 560 q 208 567 192 560 q 293 639 256 587 q 329 753 329 691 q 322 803 329 782 q 303 833 316 822 q 258 871 291 845 l 313 911 q 339 957 339 931 q 285 996 339 996 l 139 996 q 105 984 118 996 q 93 958 93 972 q 106 933 93 943 q 142 922 118 922 l 225 922 m 144 944 l 233 944 q 243 939 243 944 q 233 933 243 933 l 144 933 q 132 939 132 933 q 144 944 132 944 m 253 885 q 280 908 264 895 q 304 931 295 921 q 318 953 313 941 q 328 947 328 953 q 308 919 322 932 q 258 879 294 905 q 251 877 256 877 q 247 878 247 877 q 253 885 247 881 m 157 820 q 179 822 171 822 q 228 814 198 822 q 235 808 235 812 q 228 803 235 803 q 182 811 201 811 q 160 808 174 811 q 149 812 149 811 q 157 820 149 815 m 304 786 q 306 804 304 804 q 315 794 310 804 q 321 754 321 778 q 285 643 321 695 q 236 592 266 615 q 180 569 206 569 q 151 581 168 569 q 154 592 151 592 q 160 589 157 592 q 182 581 170 581 q 232 603 205 581 q 276 651 259 626 q 310 749 310 695 q 304 786 310 769 z "},"Ð":{"ha":1036,"x_min":-36,"x_max":883,"o":"m 146 857 q 183 930 146 894 q 265 979 221 966 q 404 999 329 999 q 525 984 466 999 q 639 942 585 970 q 738 877 694 915 q 826 710 826 794 q 820 660 826 682 q 883 490 883 623 q 879 424 883 459 q 852 289 871 355 q 782 154 833 223 q 628 34 731 84 q 367 -19 526 -16 q 204 12 271 -19 q 136 128 136 43 l 136 325 q 8 361 52 325 q -36 450 -36 398 q -15 517 -36 486 q 46 569 5 549 q 146 589 88 589 l 146 857 m 208 840 l 208 526 l 119 526 q 49 505 74 526 q 24 455 24 484 q 46 406 24 427 q 108 385 69 385 l 199 385 l 199 136 q 244 66 199 92 q 339 40 289 40 q 577 82 474 40 q 743 212 680 123 q 817 436 806 300 q 818 472 818 447 q 800 577 818 533 q 738 621 783 621 q 689 590 704 614 q 675 502 675 566 q 656 355 675 429 q 585 227 636 281 q 445 174 533 174 q 353 290 353 174 l 353 385 l 415 385 q 466 408 447 385 q 486 461 486 432 q 468 507 486 489 q 415 526 451 526 l 350 526 l 350 675 q 469 792 350 792 q 562 759 517 790 q 640 681 607 729 q 692 632 674 632 q 700 635 694 632 q 730 646 712 644 q 754 651 748 649 q 772 689 772 660 q 744 768 772 724 q 657 854 715 813 q 379 930 552 930 q 313 928 357 930 q 244 898 280 926 q 208 840 208 870 m 304 376 q 318 390 304 390 q 331 375 331 390 l 331 253 q 342 211 331 230 q 331 188 342 188 q 315 201 321 188 q 304 258 304 226 l 304 376 m 421 407 l 119 407 q 111 417 111 407 q 119 429 111 429 l 413 429 q 442 455 442 429 q 450 474 444 474 q 464 458 461 474 q 421 407 464 407 m 333 543 q 322 531 333 531 q 312 534 317 531 q 307 543 307 538 l 304 697 q 324 770 304 737 q 379 822 345 803 q 454 842 413 842 q 483 839 464 842 q 498 824 498 835 q 489 811 498 811 q 424 814 475 814 q 357 769 382 802 q 331 700 331 735 l 333 543 m 789 553 q 800 461 800 506 q 766 293 800 375 q 672 157 732 212 q 537 83 621 110 q 375 56 453 56 q 265 76 307 56 q 246 96 246 89 q 253 100 246 100 q 268 97 261 100 q 380 82 324 82 q 618 146 504 82 q 704 226 668 174 q 757 344 740 279 q 775 474 775 408 q 768 550 775 506 q 778 571 770 571 q 789 553 785 571 m 706 794 q 755 696 755 745 q 751 672 755 683 q 740 663 749 663 q 729 674 729 663 q 732 681 729 678 q 735 694 735 683 q 723 737 735 712 q 692 777 711 762 q 683 792 683 783 q 692 801 683 801 q 706 794 699 801 m 632 606 q 594 636 613 612 q 555 686 575 660 q 515 720 535 712 q 460 733 481 733 q 415 675 415 733 l 415 586 q 512 549 477 586 q 546 461 546 513 q 511 366 546 407 q 413 325 475 325 l 413 285 q 464 233 413 233 q 561 289 512 242 q 612 439 611 335 q 612 472 612 449 q 611 506 611 494 q 632 606 611 585 z "},"Ý":{"ha":854,"x_min":-48,"x_max":725,"o":"m 203 128 q 194 93 194 108 q 216 47 194 65 q 264 29 237 29 q 328 71 308 29 l 665 763 q 671 792 671 773 q 651 847 669 824 q 597 871 633 871 l 87 871 q 33 847 56 871 q 10 799 10 823 q 14 782 10 788 l 231 370 q 289 333 251 333 q 337 352 315 333 q 358 399 358 371 q 350 432 358 415 l 203 720 q 211 732 203 732 l 483 732 q 492 717 492 732 l 370 461 q 372 445 370 450 q 385 401 385 423 q 359 340 385 368 q 293 307 333 313 l 203 128 m 290 672 l 353 555 l 404 672 l 290 672 m 219 293 q 178 348 209 293 q 76 537 147 403 q -38 749 6 671 q -48 796 -48 771 q -33 857 -48 827 q 12 906 -18 887 q 82 925 42 925 l 586 925 q 691 886 657 925 q 725 792 725 846 q 714 735 725 759 l 376 46 q 330 -5 360 12 q 267 -22 300 -22 q 178 9 216 -22 q 140 92 140 41 q 154 151 140 120 l 219 293 m 43 763 q 39 773 39 769 q 47 783 39 783 q 62 771 56 783 l 262 390 q 301 372 271 372 q 314 365 314 372 q 301 350 314 356 q 289 347 293 347 q 244 375 264 347 l 43 763 m 205 751 q 189 764 189 751 q 203 773 189 773 l 493 773 q 508 763 508 773 q 493 751 508 751 l 205 751 m 626 839 q 646 825 637 837 q 654 800 654 814 q 651 786 654 790 l 313 74 q 291 58 307 65 q 258 52 275 52 q 246 65 246 56 q 265 71 246 71 q 296 89 286 71 l 635 789 q 621 825 635 818 q 615 832 615 825 q 626 839 615 839 m 243 1131 l 349 1242 q 425 1278 381 1278 q 488 1252 461 1278 q 514 1192 514 1227 q 486 1128 514 1158 l 370 1003 q 311 978 346 978 q 244 1005 275 978 q 214 1067 214 1031 q 243 1131 214 1102 m 280 1096 q 270 1068 270 1085 q 281 1042 271 1053 q 307 1032 291 1032 q 337 1047 324 1032 l 446 1158 q 458 1187 458 1171 q 447 1214 458 1203 q 421 1225 435 1225 q 394 1213 408 1225 l 280 1096 m 323 1079 l 414 1171 q 425 1190 425 1184 q 421 1201 425 1195 q 431 1214 421 1214 q 443 1207 438 1214 q 447 1189 447 1201 q 443 1171 447 1177 l 340 1065 q 328 1057 334 1057 q 319 1067 319 1057 q 323 1079 319 1075 z "},"Þ":{"ha":651,"x_min":-5,"x_max":608,"o":"m 28 407 q 3 502 3 421 l 3 1071 q 39 1173 3 1136 q 126 1210 76 1210 q 187 1193 158 1210 q 232 1145 215 1177 q 250 1067 250 1113 l 250 947 l 313 947 q 480 901 413 947 q 577 777 546 854 q 608 610 608 700 q 569 468 606 541 q 464 343 532 396 q 307 274 396 290 q 247 201 247 264 l 244 139 q 205 36 244 74 q 114 -1 166 -1 q 30 33 65 -1 q -5 131 -5 68 l -5 325 q 4 376 -5 349 q 28 407 14 403 m 370 754 q 290 777 344 775 q 225 771 257 777 q 188 745 202 767 q 174 703 174 723 l 174 515 q 159 465 174 486 q 133 442 145 444 q 119 450 119 442 q 128 461 119 457 q 147 479 139 465 q 154 504 154 493 l 154 1056 q 164 1079 154 1079 q 174 1058 174 1079 l 174 763 q 217 787 181 780 q 276 794 252 794 q 293 795 282 794 q 308 796 304 796 q 382 765 352 796 q 385 760 385 764 q 376 750 385 750 q 370 754 374 750 m 131 87 q 117 96 117 90 q 133 108 117 104 q 146 165 146 114 q 180 308 146 261 q 282 370 214 356 q 395 419 345 381 q 472 515 445 457 q 500 639 500 572 q 489 722 500 684 q 494 742 489 742 q 510 729 506 742 q 525 631 525 682 q 492 498 525 558 q 406 399 460 438 q 288 345 351 360 q 229 324 251 335 q 190 279 208 314 q 171 176 171 244 q 164 114 171 139 q 131 87 157 89 m 256 689 l 256 518 q 325 564 304 539 q 345 646 345 589 q 324 681 345 673 q 256 689 303 689 m 57 489 q 77 416 57 442 q 124 389 97 389 q 172 417 152 389 q 193 496 193 445 l 193 663 q 203 729 193 709 q 229 753 213 749 q 279 760 244 758 q 404 626 404 760 q 371 526 400 567 q 274 450 342 486 q 197 384 231 409 q 125 360 163 360 q 76 376 101 360 q 52 265 52 367 q 50 205 50 243 q 60 104 50 135 q 95 71 71 74 q 126 67 113 67 q 176 95 162 67 q 190 193 190 122 q 210 283 190 250 q 279 328 229 317 q 426 394 367 346 q 513 504 485 441 q 542 635 542 568 q 521 743 542 693 q 425 858 488 824 q 235 892 361 892 q 215 891 229 892 q 193 890 201 890 l 193 1069 q 173 1135 193 1112 q 126 1157 154 1157 q 77 1134 98 1157 q 57 1071 57 1111 l 57 489 z "},"ð":{"ha":1036,"x_min":-36,"x_max":883,"o":"m 146 857 q 183 930 146 894 q 265 979 221 966 q 404 999 329 999 q 525 984 466 999 q 639 942 585 970 q 738 877 694 915 q 826 710 826 794 q 820 660 826 682 q 883 490 883 623 q 879 424 883 459 q 852 289 871 355 q 782 154 833 223 q 628 34 731 84 q 367 -19 526 -16 q 204 12 271 -19 q 136 128 136 43 l 136 325 q 8 361 52 325 q -36 450 -36 398 q -15 517 -36 486 q 46 569 5 549 q 146 589 88 589 l 146 857 m 208 840 l 208 526 l 119 526 q 49 505 74 526 q 24 455 24 484 q 46 406 24 427 q 108 385 69 385 l 199 385 l 199 136 q 244 66 199 92 q 339 40 289 40 q 577 82 474 40 q 743 212 680 123 q 817 436 806 300 q 818 472 818 447 q 800 577 818 533 q 738 621 783 621 q 689 590 704 614 q 675 502 675 566 q 656 355 675 429 q 585 227 636 281 q 445 174 533 174 q 353 290 353 174 l 353 385 l 415 385 q 466 408 447 385 q 486 461 486 432 q 468 507 486 489 q 415 526 451 526 l 350 526 l 350 675 q 469 792 350 792 q 562 759 517 790 q 640 681 607 729 q 692 632 674 632 q 700 635 694 632 q 730 646 712 644 q 754 651 748 649 q 772 689 772 660 q 744 768 772 724 q 657 854 715 813 q 379 930 552 930 q 313 928 357 930 q 244 898 280 926 q 208 840 208 870 m 304 376 q 318 390 304 390 q 331 375 331 390 l 331 253 q 342 211 331 230 q 331 188 342 188 q 315 201 321 188 q 304 258 304 226 l 304 376 m 421 407 l 119 407 q 111 417 111 407 q 119 429 111 429 l 413 429 q 442 455 442 429 q 450 474 444 474 q 464 458 461 474 q 421 407 464 407 m 333 543 q 322 531 333 531 q 312 534 317 531 q 307 543 307 538 l 304 697 q 324 770 304 737 q 379 822 345 803 q 454 842 413 842 q 483 839 464 842 q 498 824 498 835 q 489 811 498 811 q 424 814 475 814 q 357 769 382 802 q 331 700 331 735 l 333 543 m 789 553 q 800 461 800 506 q 766 293 800 375 q 672 157 732 212 q 537 83 621 110 q 375 56 453 56 q 265 76 307 56 q 246 96 246 89 q 253 100 246 100 q 268 97 261 100 q 380 82 324 82 q 618 146 504 82 q 704 226 668 174 q 757 344 740 279 q 775 474 775 408 q 768 550 775 506 q 778 571 770 571 q 789 553 785 571 m 706 794 q 755 696 755 745 q 751 672 755 683 q 740 663 749 663 q 729 674 729 663 q 732 681 729 678 q 735 694 735 683 q 723 737 735 712 q 692 777 711 762 q 683 792 683 783 q 692 801 683 801 q 706 794 699 801 m 632 606 q 594 636 613 612 q 555 686 575 660 q 515 720 535 712 q 460 733 481 733 q 415 675 415 733 l 415 586 q 512 549 477 586 q 546 461 546 513 q 511 366 546 407 q 413 325 475 325 l 413 285 q 464 233 413 233 q 561 289 512 242 q 612 439 611 335 q 612 472 612 449 q 611 506 611 494 q 632 606 611 585 z "},"ý":{"ha":854,"x_min":-48,"x_max":725,"o":"m 203 128 q 194 93 194 108 q 216 47 194 65 q 264 29 237 29 q 328 71 308 29 l 665 763 q 671 792 671 773 q 651 847 669 824 q 597 871 633 871 l 87 871 q 33 847 56 871 q 10 799 10 823 q 14 782 10 788 l 231 370 q 289 333 251 333 q 337 352 315 333 q 358 399 358 371 q 350 432 358 415 l 203 720 q 211 732 203 732 l 483 732 q 492 717 492 732 l 370 461 q 372 445 370 450 q 385 401 385 423 q 359 340 385 368 q 293 307 333 313 l 203 128 m 290 672 l 353 555 l 404 672 l 290 672 m 219 293 q 178 348 209 293 q 76 537 147 403 q -38 749 6 671 q -48 796 -48 771 q -33 857 -48 827 q 12 906 -18 887 q 82 925 42 925 l 586 925 q 691 886 657 925 q 725 792 725 846 q 714 735 725 759 l 376 46 q 330 -5 360 12 q 267 -22 300 -22 q 178 9 216 -22 q 140 92 140 41 q 154 151 140 120 l 219 293 m 43 763 q 39 773 39 769 q 47 783 39 783 q 62 771 56 783 l 262 390 q 301 372 271 372 q 314 365 314 372 q 301 350 314 356 q 289 347 293 347 q 244 375 264 347 l 43 763 m 205 751 q 189 764 189 751 q 203 773 189 773 l 493 773 q 508 763 508 773 q 493 751 508 751 l 205 751 m 626 839 q 646 825 637 837 q 654 800 654 814 q 651 786 654 790 l 313 74 q 291 58 307 65 q 258 52 275 52 q 246 65 246 56 q 265 71 246 71 q 296 89 286 71 l 635 789 q 621 825 635 818 q 615 832 615 825 q 626 839 615 839 m 261 1133 l 367 1244 q 443 1280 399 1280 q 506 1255 479 1280 q 532 1195 532 1230 q 504 1131 532 1161 l 388 1005 q 329 981 364 981 q 262 1007 293 981 q 232 1069 232 1034 q 261 1133 232 1104 m 298 1099 q 288 1071 288 1087 q 299 1045 289 1056 q 325 1035 310 1035 q 355 1050 342 1035 l 464 1161 q 476 1190 476 1174 q 465 1217 476 1206 q 439 1228 453 1228 q 412 1215 425 1228 l 298 1099 m 341 1082 l 432 1174 q 443 1193 443 1187 q 439 1204 443 1198 q 449 1217 439 1217 q 461 1210 456 1217 q 465 1192 465 1203 q 461 1174 465 1180 l 358 1068 q 346 1060 352 1060 q 337 1069 337 1060 q 341 1082 337 1078 z "},"þ":{"ha":651,"x_min":-5,"x_max":608,"o":"m 28 407 q 3 502 3 421 l 3 1071 q 39 1173 3 1136 q 126 1210 76 1210 q 187 1193 158 1210 q 232 1145 215 1177 q 250 1067 250 1113 l 250 947 l 313 947 q 480 901 413 947 q 577 777 546 854 q 608 610 608 700 q 569 468 606 541 q 464 343 532 396 q 307 274 396 290 q 247 201 247 264 l 244 139 q 205 36 244 74 q 114 -1 166 -1 q 30 33 65 -1 q -5 131 -5 68 l -5 325 q 4 376 -5 349 q 28 407 14 403 m 370 754 q 290 777 344 775 q 225 771 257 777 q 188 745 202 767 q 174 703 174 723 l 174 515 q 159 465 174 486 q 133 442 145 444 q 119 450 119 442 q 128 461 119 457 q 147 479 139 465 q 154 504 154 493 l 154 1056 q 164 1079 154 1079 q 174 1058 174 1079 l 174 763 q 217 787 181 780 q 276 794 252 794 q 293 795 282 794 q 308 796 304 796 q 382 765 352 796 q 385 760 385 764 q 376 750 385 750 q 370 754 374 750 m 131 87 q 117 96 117 90 q 133 108 117 104 q 146 165 146 114 q 180 308 146 261 q 282 370 214 356 q 395 419 345 381 q 472 515 445 457 q 500 639 500 572 q 489 722 500 684 q 494 742 489 742 q 510 729 506 742 q 525 631 525 682 q 492 498 525 558 q 406 399 460 438 q 288 345 351 360 q 229 324 251 335 q 190 279 208 314 q 171 176 171 244 q 164 114 171 139 q 131 87 157 89 m 256 689 l 256 518 q 325 564 304 539 q 345 646 345 589 q 324 681 345 673 q 256 689 303 689 m 57 489 q 77 416 57 442 q 124 389 97 389 q 172 417 152 389 q 193 496 193 445 l 193 663 q 203 729 193 709 q 229 753 213 749 q 279 760 244 758 q 404 626 404 760 q 371 526 400 567 q 274 450 342 486 q 197 384 231 409 q 125 360 163 360 q 76 376 101 360 q 52 265 52 367 q 50 205 50 243 q 60 104 50 135 q 95 71 71 74 q 126 67 113 67 q 176 95 162 67 q 190 193 190 122 q 210 283 190 250 q 279 328 229 317 q 426 394 367 346 q 513 504 485 441 q 542 635 542 568 q 521 743 542 693 q 425 858 488 824 q 235 892 361 892 q 215 891 229 892 q 193 890 201 890 l 193 1069 q 173 1135 193 1112 q 126 1157 154 1157 q 77 1134 98 1157 q 57 1071 57 1111 l 57 489 z "}," ":{"ha":493,"x_min":0,"x_max":0,"o":""},"!":{"ha":493,"x_min":-108,"x_max":361,"o":"m -3 393 l -3 817 q 36 917 -3 881 q 128 953 75 953 q 192 937 162 953 q 240 891 221 922 q 258 817 258 861 l 256 393 q 329 331 298 380 q 361 208 361 281 q 335 96 361 149 q 256 10 308 43 q 131 -22 204 -22 q -7 16 47 -22 q -84 108 -61 55 q -108 208 -108 162 q -3 393 -108 343 m 57 822 l 57 361 q -23 299 6 344 q -52 211 -52 255 q -1 88 -52 139 q 128 35 51 37 q 212 58 171 35 q 277 119 252 81 q 301 203 301 158 q 265 307 301 257 q 226 340 252 328 q 174 353 200 353 q 105 315 125 353 q 97 288 97 303 q 136 228 97 259 q 150 201 150 216 q 141 182 150 190 q 119 174 131 174 q 89 200 89 174 q 95 217 89 211 q 97 221 97 219 q 89 228 97 228 q 85 225 87 228 q 75 201 75 215 q 85 171 75 188 q 75 157 85 157 q 65 162 69 157 q 53 199 53 179 q 85 253 53 238 q 75 283 75 265 q 98 343 75 314 q 160 375 121 371 l 160 808 q 171 829 160 829 q 179 811 179 829 l 179 390 q 190 376 179 376 q 201 390 201 376 l 201 817 q 180 872 201 853 q 131 892 159 892 q 79 873 100 892 q 57 822 57 854 m 97 82 q 128 78 113 78 q 189 96 161 78 q 233 145 217 115 q 249 208 249 176 q 219 288 249 255 q 217 294 217 290 q 229 306 217 306 q 242 299 236 306 q 275 203 275 255 q 233 100 275 144 q 129 56 190 56 q 95 60 111 56 q 82 72 82 64 q 97 82 82 82 z "},"\"":{"ha":507,"x_min":40,"x_max":486,"o":"m 40 649 l 40 849 q 68 922 40 896 q 135 949 97 949 q 202 921 173 949 q 231 846 231 894 l 231 649 q 202 571 231 599 q 136 543 174 543 q 69 571 97 543 q 40 649 40 599 m 89 651 q 103 610 89 626 q 136 594 118 594 q 167 609 154 594 q 179 651 179 624 l 179 846 q 166 886 179 872 q 135 900 153 900 q 102 887 116 900 q 89 851 89 874 l 89 651 m 165 843 l 165 651 q 139 608 165 608 q 125 617 125 608 q 133 624 125 624 q 149 657 149 624 l 149 843 q 157 857 149 857 q 165 843 165 857 m 296 646 l 296 849 q 324 920 296 895 q 390 946 352 946 q 458 919 429 946 q 486 846 486 893 l 486 649 q 457 569 486 598 q 390 540 428 540 q 324 568 352 540 q 296 646 296 596 m 345 649 q 358 608 345 623 q 390 593 372 593 q 422 608 409 593 q 435 651 435 623 l 435 846 q 422 886 435 872 q 390 900 409 900 q 358 886 372 900 q 345 849 345 873 l 345 649 m 424 843 l 424 649 q 393 606 424 609 q 379 614 379 606 q 388 621 379 621 q 404 654 404 621 l 404 843 q 414 857 404 857 q 424 843 424 857 z "},"#":{"ha":1093,"x_min":38,"x_max":1007,"o":"m 729 244 l 729 610 l 372 610 l 372 244 l 729 244 m 729 231 l 372 231 l 372 76 q 347 38 372 45 q 332 43 332 38 q 342 52 332 49 q 358 89 358 57 l 358 231 l 142 231 q 132 237 132 231 q 139 244 132 244 l 358 244 l 358 610 l 144 610 q 133 617 133 610 q 146 624 133 624 l 358 624 l 358 833 q 364 847 358 847 q 369 843 366 847 q 372 833 372 838 l 372 624 l 729 624 l 729 833 q 738 842 729 842 q 743 836 743 842 l 743 624 l 908 624 q 936 637 930 624 q 944 645 940 645 q 953 632 953 645 q 908 610 946 610 l 743 610 l 743 244 l 900 244 q 933 258 928 244 q 939 265 935 265 q 947 256 947 265 q 906 231 937 231 l 743 231 l 743 71 q 722 38 743 44 q 710 42 710 38 q 720 52 710 47 q 729 82 729 57 l 729 231 m 663 592 l 663 319 l 390 319 l 390 592 l 663 592 m 663 694 l 390 694 l 390 843 q 375 889 390 873 q 336 904 359 904 q 298 889 314 904 q 282 846 282 873 l 282 694 l 144 694 q 97 679 114 694 q 81 643 81 664 q 97 607 81 623 q 142 592 114 592 l 282 592 l 282 319 l 139 319 q 96 304 112 319 q 81 270 81 290 q 100 230 81 247 q 151 214 118 214 l 282 214 l 282 79 q 299 37 282 53 q 339 21 317 21 q 375 35 360 21 q 390 76 390 50 l 390 214 l 663 214 l 663 79 q 678 38 663 53 q 714 22 693 22 q 748 36 734 22 q 763 76 763 50 l 763 214 l 903 214 q 945 229 930 214 q 960 264 960 243 q 944 303 960 286 q 903 319 929 319 l 765 319 l 765 592 l 914 592 q 952 606 939 592 q 965 640 965 620 q 951 678 965 662 q 911 694 937 693 l 763 694 l 765 840 q 751 883 765 868 q 715 897 736 897 q 678 882 694 897 q 663 840 663 867 l 663 694 m 618 171 l 432 171 l 432 76 q 401 4 432 31 q 332 -22 371 -22 q 267 3 294 -22 q 239 74 239 27 l 239 174 l 133 174 q 63 203 89 174 q 38 271 38 232 q 63 338 38 309 q 133 367 89 367 l 239 367 l 239 549 l 136 549 q 64 576 90 549 q 38 642 38 604 q 66 709 38 680 q 146 738 94 738 l 239 738 l 239 846 q 267 922 239 895 q 335 949 295 949 q 403 922 374 949 q 432 846 432 895 l 432 738 l 618 738 l 618 846 q 646 920 618 893 q 712 947 674 947 q 780 920 751 947 q 808 846 808 893 l 808 738 l 911 738 q 982 709 956 738 q 1007 643 1007 681 q 982 577 1007 605 q 911 549 956 549 l 808 549 l 808 361 l 908 361 q 980 332 954 361 q 1006 265 1006 303 q 980 199 1006 227 q 906 171 954 171 l 808 171 l 808 71 q 780 1 808 27 q 712 -25 751 -25 q 646 1 674 -25 q 618 74 618 26 l 618 171 m 432 549 l 432 361 l 618 361 l 618 549 l 432 549 z "},"$":{"ha":651,"x_min":1,"x_max":564,"o":"m 188 828 l 188 854 q 218 924 188 899 q 290 949 249 949 q 358 927 329 949 q 388 868 387 906 l 388 836 q 471 789 443 820 q 500 722 500 759 q 492 683 500 703 q 404 625 464 625 q 313 654 358 625 q 292 659 307 659 q 262 639 262 659 q 293 606 262 623 q 399 564 309 595 q 564 342 560 500 q 507 187 564 255 q 375 95 449 120 q 342 8 375 41 q 268 -25 309 -25 q 198 9 228 -25 q 168 97 168 43 q 81 144 119 111 q 22 220 43 177 q 1 301 1 262 q 46 390 1 362 q 108 410 77 410 q 201 333 175 410 q 279 276 221 276 q 336 301 318 276 q 349 332 349 316 q 258 407 349 378 q 111 499 167 434 q 56 640 56 565 q 89 744 56 694 q 188 828 122 793 m 214 133 l 214 85 q 230 40 214 56 q 267 24 245 24 q 307 40 290 24 q 325 85 325 57 l 325 133 q 451 198 402 150 q 510 296 500 247 q 517 349 517 323 q 276 558 517 485 q 217 633 217 579 q 236 684 217 662 q 286 707 256 707 q 325 697 306 707 q 406 672 378 672 q 450 708 442 672 q 420 771 450 747 q 345 800 390 794 l 342 839 q 325 888 341 871 q 286 904 309 904 q 249 887 264 904 q 233 840 233 871 l 233 800 q 136 731 170 774 q 103 639 103 688 q 125 561 103 600 q 191 491 147 523 q 299 439 235 459 q 368 403 336 430 q 400 336 400 376 q 388 288 400 315 q 343 247 376 263 q 274 231 310 231 q 203 251 234 231 q 160 315 172 272 q 138 349 154 337 q 101 361 122 361 q 52 285 52 361 q 104 185 63 226 q 214 133 144 144 m 339 786 q 322 779 339 779 q 313 797 313 789 q 311 813 313 804 q 310 826 310 821 q 313 839 310 830 q 321 849 315 849 q 328 833 328 849 l 328 814 q 339 786 328 797 m 418 711 q 424 715 420 715 q 432 700 432 713 q 399 686 421 686 q 356 697 378 686 q 288 715 323 715 q 229 693 252 714 q 201 640 205 672 q 192 628 201 628 q 182 643 182 628 q 216 710 185 685 q 290 735 247 735 q 358 717 326 735 q 372 712 363 715 q 388 706 380 709 q 401 704 395 704 q 418 711 415 704 m 162 532 q 157 543 157 537 q 165 553 157 553 q 171 550 168 553 q 231 504 196 522 q 328 461 266 486 q 335 453 335 458 q 318 445 335 445 q 162 532 216 477 m 426 461 q 422 467 422 463 q 429 474 422 474 q 439 469 435 474 q 500 345 500 416 q 477 257 500 299 q 416 185 454 215 q 333 146 377 155 q 316 141 319 145 q 313 122 313 136 q 307 67 313 82 q 279 43 302 51 q 270 46 274 43 q 265 53 265 49 q 271 60 265 58 q 289 74 285 62 q 293 122 293 87 q 298 151 293 143 q 328 165 304 159 q 442 232 399 180 q 485 345 485 284 q 426 461 485 417 m 185 225 q 125 315 137 253 q 103 328 121 328 q 97 333 97 328 q 108 345 97 341 q 128 338 117 345 q 142 325 140 331 q 196 242 156 263 q 199 233 199 239 q 185 225 199 225 z "},"%":{"ha":1281,"x_min":42,"x_max":1181,"o":"m 325 133 l 681 879 q 723 931 696 914 q 779 949 749 949 q 849 921 819 949 q 879 849 879 892 q 865 792 879 822 l 512 48 q 417 -18 479 -18 q 344 11 376 -18 q 313 83 313 41 q 325 133 313 106 m 370 119 q 361 83 361 101 q 377 44 361 60 q 414 29 392 29 q 472 71 451 29 l 820 808 q 829 847 829 828 q 814 888 829 872 q 778 904 799 904 q 720 857 741 904 l 370 119 m 806 811 l 455 74 q 410 43 444 43 q 397 52 397 45 q 415 62 397 62 q 445 89 432 62 l 789 820 q 799 828 791 828 q 806 811 806 828 m 1019 271 q 1003 278 1017 271 q 974 290 988 285 q 942 294 959 294 q 893 276 913 292 q 861 215 861 252 q 896 146 861 171 q 943 131 917 131 q 1001 154 974 131 q 1032 214 1032 179 q 1026 249 1032 230 q 1019 271 1019 268 m 353 771 q 336 778 350 771 q 306 790 322 785 q 272 794 290 794 q 225 779 246 794 q 194 718 194 754 q 228 649 194 674 q 278 631 252 631 q 333 654 308 631 q 364 715 364 681 q 358 750 364 731 q 353 771 353 768 m 1022 315 q 1044 308 1033 308 q 1065 317 1057 308 q 1074 337 1074 326 q 1061 361 1074 351 q 947 397 1007 397 q 847 370 893 397 q 782 301 802 343 q 757 203 757 249 q 784 110 757 152 q 855 45 811 68 q 947 22 899 22 q 1007 32 980 22 q 1081 78 1052 50 q 1123 141 1110 107 q 1136 211 1136 175 q 1101 318 1136 277 q 1089 321 1099 321 q 1076 318 1079 321 q 1070 310 1074 316 q 1061 301 1066 304 q 1057 293 1057 300 q 1064 268 1057 279 q 1078 211 1078 240 q 1058 146 1078 176 q 1006 99 1038 117 q 940 82 974 82 q 900 89 921 82 q 840 138 864 104 q 815 211 815 172 q 860 307 815 264 q 944 339 893 339 q 1022 315 987 339 m 356 814 q 376 807 367 807 q 397 816 389 807 q 406 838 406 826 q 393 860 406 851 q 279 897 340 897 q 180 870 225 897 q 114 800 134 842 q 90 704 90 752 q 117 611 90 653 q 187 547 143 570 q 278 524 230 524 q 339 535 308 524 q 438 607 406 559 q 469 711 469 654 q 435 817 469 776 q 429 819 434 817 q 419 822 424 821 q 410 820 413 822 q 405 812 407 817 q 400 806 402 808 q 393 803 397 804 q 389 793 389 801 q 396 768 389 780 q 410 710 410 741 q 369 620 410 657 q 276 583 328 583 q 233 592 255 583 q 173 638 198 605 q 149 710 149 670 q 196 806 149 763 q 278 838 228 838 q 356 814 320 838 m 1053 325 q 1040 319 1049 319 q 1028 322 1036 319 q 943 349 986 349 q 830 290 873 349 q 807 211 807 255 q 860 103 807 144 q 863 99 863 101 q 849 95 861 95 q 796 210 796 136 q 822 299 796 263 q 950 358 866 358 q 1030 336 992 358 q 1039 333 1034 336 q 1044 336 1042 333 q 1053 325 1053 336 m 385 828 q 372 818 380 818 q 361 822 365 818 q 275 849 318 849 q 165 789 204 849 q 142 711 142 757 q 196 606 142 644 q 189 592 196 592 q 182 594 188 592 q 128 710 128 636 q 154 797 128 762 q 282 860 200 860 q 364 836 327 860 q 372 833 367 836 q 376 836 375 833 q 385 828 385 836 m 893 54 q 949 46 922 46 q 1033 68 995 46 q 1093 127 1072 90 q 1115 208 1115 164 q 1099 285 1115 245 q 1103 297 1099 297 q 1113 290 1109 297 q 1132 214 1132 252 q 1108 126 1132 168 q 1042 59 1084 84 q 949 33 999 33 q 887 43 917 33 q 881 50 881 45 q 893 54 881 54 m 225 555 q 283 546 261 546 q 368 568 331 546 q 427 628 406 590 q 449 710 449 666 q 432 783 449 746 q 435 796 432 796 q 445 789 441 796 q 464 714 464 752 q 440 626 464 668 q 374 559 416 585 q 280 533 331 533 q 219 543 249 533 q 214 547 214 545 q 225 555 214 555 m 1110 361 q 1149 327 1129 361 q 1178 250 1169 293 q 1181 215 1181 230 q 1148 99 1181 154 q 1060 11 1115 44 q 940 -22 1005 -22 q 822 8 882 -22 q 738 93 768 37 q 707 213 707 149 q 752 351 707 289 q 885 439 797 413 q 936 445 905 445 q 1015 434 976 445 q 1080 404 1054 422 q 1110 361 1106 385 m 442 860 q 484 828 464 860 q 512 751 504 795 q 515 715 515 729 q 483 600 515 655 q 396 511 451 545 q 276 478 341 478 q 157 510 215 478 q 72 596 103 540 q 42 715 42 652 q 87 853 42 791 q 219 939 132 914 q 272 946 247 946 q 386 920 333 946 q 442 860 439 895 z "},"&":{"ha":1133,"x_min":0,"x_max":853,"o":"m 439 692 q 397 708 412 708 q 378 688 378 708 q 393 651 378 669 q 439 583 402 641 q 550 635 484 618 q 632 692 603 648 q 738 754 677 754 q 830 700 799 754 q 853 628 853 664 q 811 522 853 572 q 711 436 769 471 q 726 336 726 385 q 708 225 726 278 q 656 128 689 172 q 581 53 624 84 q 489 8 538 22 q 371 -8 428 -8 q 184 39 270 -8 q 49 166 99 86 q 0 335 0 245 q 33 475 0 405 q 133 606 65 545 q 121 685 121 639 q 138 783 121 735 q 185 863 155 832 q 280 928 227 906 q 390 949 333 949 q 481 935 438 949 q 556 897 525 922 q 600 839 587 872 q 608 794 608 819 q 578 710 608 747 q 502 674 547 674 q 439 692 471 674 m 413 486 q 376 456 400 465 q 325 437 352 447 q 282 404 299 427 q 262 345 262 380 q 282 284 262 312 q 328 244 301 256 q 361 239 340 239 q 424 257 395 239 q 464 310 453 276 q 471 349 471 336 q 464 381 471 368 q 444 411 457 394 q 422 444 430 428 q 413 486 414 460 m 318 496 q 380 554 380 515 q 358 603 380 577 q 318 690 318 654 q 339 743 318 716 q 390 765 355 765 q 461 740 429 765 q 496 726 479 726 q 535 749 519 726 q 550 794 550 772 q 498 866 547 839 q 401 896 449 893 q 279 867 331 896 q 202 791 228 839 q 176 690 176 744 q 201 592 176 638 q 65 339 65 483 q 96 212 65 272 q 179 109 126 151 q 296 52 232 67 q 357 44 328 44 q 465 64 410 44 q 566 120 520 83 q 639 210 611 157 q 667 331 667 264 q 643 455 667 391 q 687 486 657 468 q 738 521 718 505 q 779 569 758 537 q 797 626 797 597 q 780 675 797 656 q 739 694 763 694 q 667 649 701 694 q 615 601 643 615 q 543 575 586 586 q 464 507 464 560 q 480 461 464 483 q 529 333 529 393 q 504 259 527 295 q 443 201 481 223 q 364 179 406 179 q 285 201 323 179 q 203 339 203 250 q 235 438 203 393 q 318 496 268 484 m 196 692 q 208 610 196 645 q 217 606 210 606 q 231 624 231 608 q 217 692 217 646 q 205 707 217 707 q 196 692 198 707 m 510 786 q 518 792 511 792 q 529 773 529 792 q 515 751 526 760 q 492 743 504 743 q 480 746 485 743 q 385 781 422 781 q 315 738 346 781 q 303 730 312 730 q 293 740 293 730 q 296 749 293 746 q 389 804 335 804 q 478 777 425 804 q 493 768 489 768 q 510 786 503 768 m 347 555 q 357 571 347 571 q 370 555 366 571 q 313 507 370 524 q 227 448 262 494 q 192 340 192 401 q 208 262 192 303 q 213 249 213 255 q 207 240 213 240 q 193 256 201 240 q 174 340 174 292 q 208 455 174 403 q 301 524 242 508 q 347 555 347 540 m 771 594 q 717 528 746 555 q 624 467 689 502 q 653 332 653 399 q 610 189 653 252 q 498 91 567 125 q 357 57 430 57 q 236 85 290 57 q 222 100 222 91 q 236 111 222 111 q 247 108 240 111 q 360 83 299 83 q 490 115 428 83 q 591 205 552 147 q 629 339 629 264 q 608 450 629 397 q 601 463 607 454 q 594 476 594 472 q 615 492 594 487 q 688 536 642 497 q 757 615 733 575 q 771 629 765 629 q 778 618 778 629 q 771 594 778 607 z "},"'":{"ha":364,"x_min":43,"x_max":310,"o":"m 222 849 q 221 857 221 851 q 225 863 221 863 q 236 857 231 863 q 249 830 249 847 q 240 794 249 815 q 208 726 231 772 q 171 649 185 680 q 161 639 169 639 q 154 647 154 639 q 157 657 154 649 q 197 744 176 700 q 223 802 218 788 q 229 828 229 816 q 222 849 229 840 m 79 669 l 103 720 q 43 817 43 765 q 80 913 43 871 q 176 957 116 956 q 270 923 231 957 q 310 835 310 889 q 293 765 310 803 l 228 626 q 142 558 197 558 q 91 580 113 558 q 70 631 70 601 q 79 669 70 652 m 122 654 q 119 636 119 641 q 147 608 119 608 q 182 632 171 608 l 258 803 q 264 829 264 816 q 237 884 264 860 q 179 908 210 908 q 118 883 145 908 q 92 825 92 857 q 113 768 92 794 q 162 740 135 742 q 139 692 151 719 q 122 654 127 665 m 179 840 q 196 825 196 840 q 179 806 196 806 q 162 822 162 806 q 179 840 162 840 z "},"(":{"ha":502,"x_min":44,"x_max":413,"o":"m 393 783 q 279 425 279 608 q 375 105 279 258 q 396 40 396 73 q 360 -36 396 -4 q 278 -67 325 -67 q 171 -5 213 -67 q 44 425 44 183 q 61 589 44 508 q 111 748 77 670 q 190 890 144 825 q 297 949 233 949 q 354 935 327 949 q 397 898 381 922 q 413 846 413 874 q 393 783 413 815 m 228 851 q 130 653 164 763 q 96 428 96 543 q 125 217 96 321 q 214 25 155 114 q 280 -17 242 -17 q 322 0 306 -17 q 339 43 339 17 q 325 89 339 65 q 222 439 222 266 q 333 786 222 619 q 356 849 356 821 q 341 885 356 872 q 306 899 327 899 q 228 851 259 899 m 293 17 q 300 10 300 17 q 285 -3 300 -1 q 239 22 259 -3 q 176 128 207 56 q 174 138 174 132 q 182 146 174 146 q 196 136 192 146 q 221 83 203 116 q 242 46 240 50 q 293 17 261 17 m 333 863 q 337 842 337 856 q 322 797 335 813 q 236 618 264 710 q 207 431 207 526 q 233 247 207 345 q 229 229 233 229 q 214 242 219 229 q 185 433 185 338 q 304 803 185 620 q 318 840 318 825 q 315 851 318 846 q 325 868 315 868 q 333 863 330 868 z "},")":{"ha":504,"x_min":56,"x_max":424,"o":"m 76 783 q 56 847 56 813 q 72 899 56 876 q 115 936 88 922 q 171 949 141 949 q 276 890 235 949 q 386 671 348 791 q 424 425 424 550 q 296 -5 424 182 q 189 -67 254 -67 q 107 -36 142 -67 q 72 40 72 -5 q 92 105 72 75 q 190 426 190 255 q 76 783 190 608 m 242 851 q 161 899 208 899 q 125 885 139 899 q 111 849 111 872 q 133 786 111 820 q 244 442 244 624 q 142 89 244 266 q 128 43 128 65 q 145 0 128 17 q 186 -17 161 -17 q 253 25 225 -17 q 341 218 312 114 q 371 429 371 322 q 338 654 371 545 q 242 851 304 764 m 176 17 q 225 46 210 17 q 271 136 261 107 q 286 146 277 146 q 296 138 296 146 q 293 128 296 136 q 231 22 254 50 q 182 -3 205 -3 q 168 8 168 -1 q 176 17 168 17 m 136 863 q 143 867 138 867 q 154 851 154 867 q 151 839 151 847 q 162 803 151 831 q 251 632 218 722 q 283 437 283 542 q 253 242 283 346 q 239 229 250 229 q 233 247 233 229 q 260 432 260 337 q 231 618 260 526 q 144 797 202 710 q 137 816 143 800 q 131 842 132 832 q 136 863 131 853 z "},"*":{"ha":589,"x_min":36,"x_max":498,"o":"m 268 643 q 236 658 250 643 q 222 692 222 672 q 236 724 222 710 q 268 738 250 738 q 303 724 289 738 q 318 692 318 711 q 303 657 318 671 q 268 643 288 643 m 345 700 q 335 706 335 705 q 339 711 335 709 l 432 765 q 439 782 439 770 q 446 796 439 796 q 450 789 448 796 q 453 778 453 785 q 439 757 453 763 l 345 700 m 122 792 q 111 797 115 797 q 103 792 108 797 q 93 789 100 789 q 86 793 86 791 q 89 797 86 794 q 125 806 96 806 l 222 749 q 225 744 225 747 q 214 738 225 738 l 122 792 m 225 760 l 133 814 q 115 820 126 820 q 86 806 98 820 q 74 777 74 793 q 92 746 74 756 l 185 692 l 92 637 q 72 606 72 628 q 84 576 72 589 q 113 563 96 563 q 131 567 122 563 l 225 621 l 225 515 q 238 485 225 496 q 270 474 252 474 q 296 484 286 474 q 307 512 307 494 l 307 618 l 401 564 q 418 558 409 558 q 449 572 435 558 q 464 603 463 586 q 442 635 464 623 l 347 689 l 442 743 q 464 781 464 757 q 454 809 464 797 q 428 821 444 821 q 404 814 418 821 l 307 760 l 307 868 q 293 898 307 887 q 261 910 279 910 q 225 873 225 910 l 225 760 m 318 632 q 315 636 315 633 q 322 640 317 640 l 413 586 q 432 589 426 586 q 440 592 435 592 q 447 586 447 590 q 445 581 447 586 q 424 571 436 571 q 410 575 415 571 l 318 632 m 239 624 q 246 631 239 631 q 253 624 253 631 l 253 515 q 261 498 253 503 q 271 490 271 495 q 261 486 271 486 q 245 497 251 488 q 239 512 239 506 l 239 624 m 190 678 q 201 675 201 678 q 199 669 201 672 l 105 618 q 95 600 95 607 q 90 586 92 586 q 85 594 87 586 q 95 626 85 617 l 190 678 m 296 765 q 290 758 296 758 q 285 765 285 758 l 285 868 q 271 882 285 882 q 264 890 264 884 q 271 896 264 896 q 289 888 283 896 q 296 871 296 880 l 296 765 m 268 675 q 278 680 274 675 q 282 689 282 684 q 268 703 282 703 q 256 689 256 703 q 260 680 256 685 q 268 675 264 675 m 117 689 l 74 717 q 38 779 38 741 q 59 833 38 809 q 110 857 80 857 q 151 843 132 857 l 190 820 l 190 877 q 212 929 190 910 q 262 947 233 947 q 316 927 294 947 q 339 871 339 907 l 339 817 l 388 843 q 426 854 409 854 q 462 843 446 854 q 489 815 479 832 q 498 777 498 797 q 455 711 498 734 l 413 689 l 458 663 q 497 603 497 643 q 475 549 497 573 q 422 525 453 525 q 382 537 403 525 l 342 561 l 342 512 q 320 458 342 478 q 270 439 298 439 q 216 460 239 439 q 193 518 193 481 l 193 564 l 149 537 q 108 526 130 526 q 57 550 79 526 q 36 603 36 573 q 79 669 36 646 l 117 689 z "},"+":{"ha":783,"x_min":39,"x_max":682,"o":"m 507 502 l 535 502 q 615 481 581 502 q 665 426 648 460 q 682 354 682 392 q 643 251 682 294 q 532 208 604 208 l 502 208 l 502 151 q 481 67 502 101 q 428 15 461 32 q 357 -3 394 -3 q 255 37 299 -3 q 211 146 211 77 l 211 205 l 196 208 q 80 256 121 212 q 39 358 39 300 q 79 459 39 416 q 190 502 119 502 l 214 502 l 214 558 q 258 677 214 634 q 362 720 302 720 q 433 701 400 720 q 487 647 466 683 q 507 558 507 611 l 507 502 m 442 439 l 442 553 q 417 624 442 598 q 358 650 392 650 q 302 624 326 650 q 279 553 279 599 l 279 439 l 193 439 q 130 413 154 439 q 107 353 107 387 q 130 296 107 320 q 196 271 154 271 l 279 271 l 279 157 q 302 91 279 114 q 356 68 324 68 q 414 93 389 68 q 439 160 439 118 l 439 271 l 529 271 q 586 297 566 271 q 607 358 607 323 q 588 415 607 392 q 535 439 569 439 l 442 439 m 535 288 l 201 288 q 185 299 185 288 q 199 310 185 310 l 529 310 q 550 316 538 310 q 564 331 562 322 q 579 351 568 351 q 586 331 586 351 q 567 300 584 312 q 535 288 550 288 m 418 250 l 418 157 q 409 120 418 142 q 379 92 399 99 q 354 103 354 92 q 370 119 354 115 q 390 165 390 125 l 390 247 q 401 274 390 274 q 413 266 408 274 q 418 250 418 259 m 390 453 l 390 549 q 401 565 390 565 q 415 549 415 565 l 418 455 q 406 439 418 439 q 390 453 395 439 z "},",":{"ha":382,"x_min":62,"x_max":333,"o":"m 242 111 q 247 126 242 126 q 258 122 254 126 q 265 97 265 114 q 233 7 265 76 q 190 -92 202 -62 q 178 -107 186 -107 q 171 -96 171 -107 q 174 -82 171 -87 q 224 35 199 -15 q 249 95 249 85 q 242 111 249 102 m 92 -71 l 117 -19 q 62 87 62 24 q 98 182 62 144 q 199 222 133 220 q 265 205 234 222 q 315 159 296 189 q 333 93 333 130 q 318 29 333 64 l 250 -117 q 160 -188 218 -188 q 121 -177 139 -188 q 93 -149 103 -167 q 82 -110 82 -131 q 92 -71 82 -90 m 139 -87 q 135 -108 135 -100 q 162 -138 135 -138 q 201 -111 188 -138 l 282 71 q 288 99 288 84 q 260 157 288 132 q 199 182 232 182 q 153 169 174 182 q 118 136 131 157 q 105 92 105 115 q 129 33 105 62 q 179 3 152 5 q 155 -49 167 -20 q 139 -87 143 -78 m 199 108 q 210 102 204 108 q 217 89 217 95 q 199 71 210 71 q 179 92 179 71 q 185 103 179 98 q 199 108 192 108 z "},"-":{"ha":555,"x_min":40,"x_max":489,"o":"m 370 450 q 457 417 426 450 q 489 339 489 384 q 458 263 489 295 q 372 231 428 231 l 171 231 q 75 265 109 231 q 40 345 40 299 q 71 418 40 387 q 157 450 102 450 l 370 450 m 367 393 l 157 393 q 121 379 134 393 q 108 346 108 365 q 125 303 108 322 q 171 285 142 285 l 372 285 q 407 301 394 285 q 419 339 419 317 q 406 377 419 361 q 367 393 393 393 m 174 304 q 164 314 164 304 q 174 325 164 325 l 370 325 q 382 342 382 325 q 393 356 384 356 q 401 342 401 356 q 393 315 401 325 q 375 304 384 304 l 174 304 z "},".":{"ha":315,"x_min":40,"x_max":301,"o":"m 171 117 q 182 112 177 117 q 188 103 188 107 q 174 85 188 88 q 154 97 154 85 q 159 111 154 105 q 171 117 164 117 m 171 17 q 232 43 206 17 q 258 103 258 70 q 233 161 258 137 q 171 185 207 185 q 111 161 137 185 q 85 103 85 136 q 110 43 85 70 q 171 17 136 17 m 171 -28 q 79 9 118 -28 q 40 97 40 46 q 58 162 40 132 q 105 210 75 192 q 171 228 135 228 q 264 192 226 228 q 301 103 301 156 q 284 39 301 69 q 237 -10 267 8 q 171 -28 207 -28 m 214 122 q 222 140 214 140 q 231 133 229 140 q 237 103 237 115 q 217 55 237 73 q 171 36 197 36 q 142 43 154 36 q 133 56 133 49 q 139 62 133 62 q 149 60 144 62 q 168 56 159 56 q 204 69 189 56 q 218 101 218 82 q 214 122 218 112 z "},"/":{"ha":700,"x_min":39,"x_max":607,"o":"m 52 133 l 407 882 q 507 950 441 950 q 577 923 547 950 q 607 853 607 895 q 592 794 607 827 l 239 46 q 143 -21 205 -21 q 71 9 102 -21 q 39 82 39 39 q 52 133 39 107 m 95 117 q 86 82 86 98 q 102 42 86 58 q 139 26 117 26 q 199 71 176 26 l 549 811 q 558 850 558 831 q 543 891 558 874 q 507 907 528 907 q 447 860 469 907 l 95 117 m 535 814 l 182 74 q 136 40 171 40 q 125 48 125 42 q 142 60 125 60 q 171 87 159 60 l 518 822 q 528 830 520 830 q 535 814 535 830 z "},":":{"ha":315,"x_min":40,"x_max":301,"o":"m 214 651 q 223 667 214 667 q 233 660 231 667 q 239 631 239 644 q 219 584 239 603 q 172 565 198 565 q 142 572 154 565 q 133 583 133 576 q 143 592 133 592 q 151 589 146 592 q 172 583 160 583 q 205 597 191 583 q 218 631 218 611 q 214 651 218 641 m 174 502 q 79 538 118 502 q 40 626 40 574 q 79 718 40 680 q 171 757 118 757 q 264 720 226 757 q 301 632 301 683 q 284 567 301 598 q 238 519 267 537 q 174 502 209 502 m 171 546 q 232 572 207 546 q 258 632 258 598 q 233 689 258 665 q 174 714 208 714 q 111 689 137 714 q 85 632 85 665 q 111 572 85 598 q 171 546 137 546 m 171 646 q 185 641 179 646 q 190 629 190 636 q 174 612 190 612 q 154 629 154 612 q 171 646 154 646 m 214 285 q 223 301 214 301 q 233 296 232 301 q 239 267 239 282 q 218 218 239 237 q 171 199 198 199 q 142 205 154 199 q 133 218 133 210 q 142 225 133 225 q 149 222 142 225 q 171 217 158 217 q 204 230 191 217 q 218 264 218 244 q 214 285 218 274 m 171 136 q 79 173 118 136 q 40 261 40 210 q 58 325 40 295 q 105 373 75 355 q 171 390 135 390 q 264 353 226 390 q 301 265 301 317 q 264 174 301 213 q 171 136 226 136 m 171 179 q 232 205 207 179 q 258 265 258 231 q 233 324 258 300 q 171 347 208 347 q 110 324 136 347 q 85 265 85 300 q 111 205 85 231 q 171 179 137 179 m 171 279 q 188 265 188 279 q 183 253 188 259 q 171 247 179 247 q 154 261 154 247 q 159 273 154 268 q 171 279 163 279 z "},";":{"ha":356,"x_min":43,"x_max":307,"o":"m 217 651 q 227 667 217 667 q 236 660 234 667 q 242 631 242 647 q 221 584 242 603 q 175 565 201 565 q 146 572 158 565 q 138 585 138 576 q 146 592 138 592 q 154 589 148 592 q 175 583 163 583 q 207 597 194 583 q 221 631 221 611 q 217 651 221 641 m 176 502 q 82 538 121 502 q 43 626 43 574 q 82 718 43 680 q 174 757 120 757 q 268 720 229 757 q 307 632 307 683 q 269 540 307 578 q 176 502 231 502 m 176 546 q 218 558 199 546 q 249 590 238 570 q 261 632 261 610 q 236 689 261 665 q 176 714 211 714 q 114 689 140 714 q 89 632 89 665 q 115 572 89 598 q 176 546 141 546 m 176 646 q 187 641 181 646 q 193 629 193 635 q 176 612 193 612 q 157 629 157 612 q 163 641 157 635 q 176 646 170 646 m 222 261 q 219 270 219 264 q 225 275 222 275 q 236 268 233 275 q 243 246 243 257 q 215 169 243 228 q 171 65 187 110 q 158 52 166 52 q 151 62 151 52 q 154 76 151 64 q 183 145 170 115 q 208 196 197 175 q 223 227 219 217 q 228 244 228 237 q 222 261 228 254 m 79 87 l 103 136 q 48 236 48 173 q 83 326 48 289 q 179 364 118 362 q 243 348 214 364 q 290 304 273 332 q 307 242 307 276 q 293 182 307 211 l 228 43 q 142 -26 197 -26 q 91 -5 113 -26 q 70 47 70 17 q 79 87 70 68 m 122 71 q 119 53 119 57 q 147 22 119 22 q 182 46 169 22 l 258 219 q 264 246 264 233 q 237 301 264 277 q 179 325 211 325 q 118 299 144 325 q 92 242 92 274 q 113 185 92 212 q 162 157 135 159 q 139 109 149 131 q 122 71 129 87 m 182 253 q 199 239 199 253 q 182 219 199 219 q 168 224 174 219 q 162 236 162 230 q 169 248 162 242 q 182 253 175 253 z "},"<":{"ha":757,"x_min":40,"x_max":625,"o":"m 208 258 l 455 82 q 483 71 468 71 q 515 85 499 71 q 524 90 519 90 q 531 79 531 90 q 524 65 531 71 q 486 48 507 48 q 442 65 467 48 l 199 239 q 188 254 188 246 q 197 262 188 262 q 208 258 202 262 m 550 581 q 532 529 550 542 l 361 410 q 347 403 354 403 q 339 411 339 403 q 347 426 339 422 l 492 529 q 519 551 509 542 q 529 578 529 561 q 533 584 529 579 q 542 589 537 589 q 550 581 547 589 m 442 48 q 488 33 463 33 q 540 55 517 33 q 563 104 563 76 q 529 162 563 137 l 285 339 l 532 510 q 568 571 568 534 q 547 616 568 597 q 496 635 527 635 q 429 610 462 635 l 160 413 q 100 321 100 361 q 142 258 100 287 l 442 48 m 89 219 q 40 321 40 253 q 97 435 40 392 l 382 649 q 500 694 442 694 q 589 660 554 694 q 625 576 625 625 q 555 458 625 508 l 385 336 l 561 208 q 624 103 624 165 q 583 13 624 52 q 488 -25 543 -25 q 410 0 447 -25 l 89 219 z "},"=":{"ha":990,"x_min":39,"x_max":887,"o":"m 717 421 l 160 421 q 117 450 123 421 q 126 468 119 468 q 136 455 134 468 q 165 439 139 439 l 720 439 q 726 431 726 439 q 717 421 726 421 m 162 510 q 115 494 132 510 q 99 457 99 478 q 116 420 99 435 q 162 404 133 404 l 743 404 q 802 420 780 404 q 824 457 824 435 q 803 494 824 478 q 743 510 782 510 l 162 510 m 165 572 l 763 572 q 848 537 817 572 q 879 455 879 503 q 847 377 879 410 q 754 345 814 345 l 157 345 q 70 377 101 345 q 39 454 39 410 q 73 537 39 501 q 165 572 106 572 m 722 162 l 165 162 q 139 170 152 162 q 122 196 126 178 q 132 213 125 213 q 142 199 140 213 q 171 182 144 182 l 724 182 q 732 172 732 182 q 722 162 732 162 m 168 244 q 122 230 138 244 q 105 197 105 216 q 122 163 105 177 q 168 149 139 149 l 749 149 q 804 163 784 149 q 824 196 824 177 q 804 230 824 215 q 751 244 785 244 l 168 244 m 171 304 l 768 304 q 855 271 823 304 q 887 194 887 238 q 855 121 887 151 q 763 92 823 92 l 168 92 q 79 123 111 92 q 47 197 47 154 q 80 272 47 240 q 171 304 113 304 z "},">":{"ha":757,"x_min":113,"x_max":699,"o":"m 529 258 q 540 261 533 261 q 551 253 551 261 q 540 239 551 244 l 296 65 q 251 48 271 48 q 214 65 230 48 q 207 81 207 72 q 214 90 207 90 q 222 85 218 90 q 256 71 239 71 q 282 82 269 71 l 529 258 m 188 581 q 197 589 191 589 q 208 578 208 586 q 247 529 208 555 l 390 426 q 399 413 399 422 q 392 403 399 403 q 376 410 388 403 l 205 529 q 185 569 185 547 q 188 581 185 572 m 296 48 l 597 258 q 637 321 637 286 q 578 413 637 361 l 310 610 q 242 635 277 635 q 190 616 211 635 q 170 571 170 597 q 205 510 170 534 l 453 339 l 208 162 q 175 104 175 137 q 197 55 175 76 q 250 33 220 33 q 296 48 274 33 m 649 219 l 328 0 q 250 -25 293 -25 q 183 -7 214 -25 q 133 42 152 12 q 114 105 114 73 q 174 208 114 166 l 353 336 l 182 458 q 113 578 113 510 q 148 660 113 626 q 236 694 183 694 q 356 649 294 694 l 640 435 q 699 321 699 391 q 649 219 699 252 z "},"?":{"ha":797,"x_min":-52,"x_max":547,"o":"m 76 379 q 60 480 63 461 q 58 510 58 490 q 94 605 58 574 q 182 636 129 636 q 219 632 200 636 q 240 629 238 629 q 275 655 275 629 q 268 678 275 666 q 235 699 257 699 q 196 686 216 699 q 165 660 177 674 q 78 612 130 612 q -12 653 28 612 q -52 750 -52 694 q -40 806 -52 779 q 55 916 -10 881 q 201 951 120 951 q 325 932 265 951 q 421 885 385 913 q 513 769 479 840 q 547 622 547 698 q 504 469 547 539 q 372 358 460 398 q 445 199 445 290 q 397 63 445 124 q 276 -17 350 2 q 210 -25 241 -25 q 90 5 144 -25 q 5 85 36 35 q -25 193 -25 136 q 76 379 -25 298 m 136 347 q 38 200 38 293 q 61 117 38 157 q 123 53 84 78 q 204 29 161 29 q 228 32 211 29 q 342 92 305 46 q 379 194 379 137 q 365 266 379 232 q 326 323 351 301 q 274 347 302 345 q 208 329 230 347 q 186 285 186 310 q 196 253 186 269 q 217 231 201 244 q 236 203 233 219 q 199 171 236 171 q 176 196 176 173 q 182 214 176 207 q 175 227 182 224 q 168 222 170 227 q 161 196 161 209 q 168 174 161 184 q 171 167 171 168 q 160 156 171 156 q 146 165 153 156 q 139 199 139 179 q 168 256 139 236 q 164 285 164 271 q 239 370 164 343 l 225 453 q 279 443 252 443 q 371 473 331 443 q 429 549 411 503 q 446 631 446 587 q 376 792 446 728 q 367 808 367 800 q 374 817 367 817 q 390 808 379 817 q 431 754 413 785 q 458 689 449 723 q 468 624 468 655 q 464 586 468 605 q 433 513 455 550 q 372 449 410 475 q 282 424 334 424 q 253 426 272 424 l 258 376 q 265 368 258 368 q 276 382 276 368 l 276 407 q 388 438 340 407 q 462 520 437 469 q 488 631 488 571 q 460 749 488 691 q 376 846 432 806 q 222 892 315 892 q 117 873 166 892 q 36 821 67 855 q 5 740 5 786 q 28 698 5 716 q 78 681 51 681 q 133 711 114 681 q 176 745 148 732 q 235 758 204 758 q 318 711 294 758 q 331 657 331 686 q 310 598 331 622 q 251 575 290 575 q 225 578 244 575 q 188 582 204 582 q 115 506 115 582 q 117 478 115 486 l 136 347 m 171 79 q 207 75 190 75 q 301 112 263 75 q 339 200 339 148 q 310 285 339 243 q 307 293 307 288 q 315 303 307 303 q 331 293 325 303 q 362 199 362 247 q 341 125 362 159 q 283 72 319 92 q 208 53 247 53 q 162 60 181 53 q 150 72 150 64 q 171 79 150 79 m 48 729 q 32 722 32 729 q 40 708 32 714 q 79 694 54 694 q 111 708 103 694 q 228 772 157 772 q 313 740 277 772 q 323 735 318 735 q 332 743 332 735 q 322 760 332 752 q 227 793 282 793 q 100 724 147 793 q 79 715 92 715 q 48 729 63 715 z "},"@":{"ha":999,"x_min":38,"x_max":930,"o":"m 310 318 l 439 700 q 471 738 448 725 q 522 751 494 751 q 570 739 548 751 q 600 703 592 726 l 667 502 q 741 524 703 502 q 779 603 779 547 q 733 694 773 647 q 627 774 692 742 q 486 806 563 806 q 346 755 416 800 q 230 639 276 710 q 182 493 184 569 q 201 369 182 432 q 244 262 219 307 q 306 196 263 232 q 409 136 349 161 q 532 111 469 111 q 672 141 622 119 q 777 214 722 163 q 826 235 799 235 q 880 214 858 235 q 903 162 903 193 q 877 103 903 133 q 667 -5 818 38 q 511 -29 582 -29 q 263 44 372 -29 q 96 237 155 118 q 38 486 38 356 q 58 613 41 556 q 107 717 76 669 q 179 803 138 764 q 276 877 221 841 q 397 924 328 907 q 536 942 466 942 q 657 925 604 942 q 787 856 726 905 q 884 745 847 807 q 928 624 921 684 q 930 575 930 606 q 872 428 930 476 q 703 372 814 381 l 722 310 q 725 292 725 299 q 701 243 725 263 q 650 222 677 222 q 618 231 633 222 l 467 328 l 442 268 q 376 223 426 223 q 326 241 348 223 q 304 289 304 259 q 310 318 304 305 m 435 372 l 401 279 q 376 262 397 262 q 367 270 367 264 q 376 276 367 276 q 393 288 382 276 l 424 379 l 404 393 q 386 432 386 407 q 399 467 386 452 q 432 483 411 482 l 458 483 l 498 606 q 508 614 503 614 q 512 603 512 614 l 472 483 l 483 483 l 518 589 l 550 483 l 610 483 l 550 675 q 554 690 550 690 q 561 683 559 690 l 626 483 l 635 483 l 572 686 q 521 721 561 721 q 469 683 483 721 l 342 310 q 337 288 337 298 q 348 261 337 271 q 374 251 359 251 q 413 276 402 251 l 445 367 q 435 372 435 372 q 435 372 435 372 m 518 521 l 504 486 l 526 486 l 518 521 m 833 708 q 839 720 836 720 q 843 717 840 720 q 885 576 885 644 q 830 459 885 503 q 663 415 775 415 l 524 415 q 512 422 512 415 q 521 426 512 426 l 663 426 q 817 466 762 426 q 872 576 872 505 q 833 708 872 634 m 535 404 l 660 404 q 827 441 758 404 q 896 574 896 478 q 890 629 896 602 q 859 712 883 669 q 803 792 836 755 q 729 856 769 829 q 649 893 689 882 q 528 910 575 910 q 293 846 408 910 q 177 750 227 810 q 99 619 126 690 q 71 480 71 548 q 143 218 74 325 q 316 59 211 111 q 531 7 421 7 q 654 25 600 7 q 778 76 722 48 q 849 125 833 105 q 861 160 861 142 q 851 184 861 174 q 826 193 841 193 q 792 179 807 193 q 706 117 765 150 q 535 79 647 85 q 391 107 458 79 q 278 173 325 134 q 214 244 232 212 q 181 313 193 286 q 158 383 169 341 q 147 471 147 425 q 157 550 147 512 q 236 706 178 643 q 361 800 294 769 q 483 839 429 832 q 512 840 493 840 q 650 805 582 840 q 762 714 717 770 q 814 603 806 659 q 766 498 814 526 q 665 469 719 469 l 436 469 q 411 458 422 469 q 400 432 400 446 q 415 404 400 413 l 629 261 q 654 251 643 251 q 681 265 670 251 q 692 288 692 279 q 679 346 689 315 q 657 376 669 376 l 681 301 q 653 261 681 261 q 637 265 646 261 l 435 401 q 425 411 425 407 q 429 417 425 417 q 439 413 435 417 l 643 276 q 655 274 649 274 q 669 288 669 274 q 667 301 669 290 l 643 382 q 631 389 641 389 q 609 381 621 389 q 594 364 598 374 q 535 404 548 394 m 789 720 q 796 704 796 712 q 792 699 796 699 q 779 711 788 699 q 661 814 730 778 q 514 850 592 850 q 318 789 412 850 q 133 482 133 676 q 174 301 133 395 q 410 82 233 150 q 424 71 424 78 q 411 65 424 65 q 399 68 407 65 q 297 122 346 87 q 211 204 249 157 q 154 301 173 250 q 118 488 118 404 q 313 808 118 683 q 508 865 400 865 q 667 828 592 865 q 789 720 741 791 m 455 28 q 442 36 442 30 q 458 43 442 43 q 535 38 494 38 q 797 117 660 38 q 828 150 828 132 q 825 157 828 152 q 839 176 825 176 q 849 158 849 172 q 817 111 849 133 q 532 19 674 19 q 455 28 495 19 z "},"A":{"ha":911,"x_min":10,"x_max":779,"o":"m 19 151 l 258 851 q 318 925 275 898 q 413 951 362 951 q 500 925 461 951 q 553 849 538 899 l 669 486 q 748 452 717 486 q 779 372 779 418 q 726 276 779 314 l 773 136 q 778 103 778 120 q 758 38 778 68 q 707 -10 739 8 q 642 -28 675 -28 q 583 -11 608 -28 l 307 174 l 262 60 q 213 -1 247 20 q 140 -22 180 -22 q 49 11 88 -22 q 10 99 10 44 q 19 151 10 124 m 247 253 l 188 82 q 169 60 183 69 q 139 52 155 52 q 122 62 122 54 q 144 76 122 76 q 160 84 150 76 q 171 97 169 91 l 228 265 l 193 293 q 157 362 157 318 q 181 426 157 399 q 244 453 205 453 l 290 453 l 367 678 q 380 690 370 690 q 390 672 390 690 l 315 453 l 333 453 l 401 649 l 461 453 l 569 453 l 458 808 q 468 832 458 832 q 480 820 476 832 l 597 453 l 618 453 l 498 828 q 463 873 490 856 q 403 890 435 890 q 346 873 371 890 q 310 822 321 856 l 76 139 q 70 99 70 120 q 90 48 70 66 q 139 29 111 29 q 180 41 161 29 q 205 76 199 53 l 262 242 q 254 248 258 245 q 247 253 250 251 m 396 524 l 379 453 l 418 453 l 396 524 m 678 376 q 686 392 678 392 q 697 382 693 392 q 700 368 700 374 q 689 342 700 353 q 665 331 677 331 l 410 331 q 389 342 389 331 q 407 353 389 351 l 663 353 q 678 376 678 353 m 426 310 l 660 310 q 707 328 690 310 q 724 372 724 347 q 709 415 724 397 q 665 432 693 432 l 247 432 q 201 410 222 432 q 180 361 180 388 q 211 310 180 329 l 600 46 q 646 29 627 29 q 696 55 676 29 q 717 97 717 81 q 691 201 709 146 q 654 258 672 255 l 697 119 q 700 103 700 109 q 685 66 700 82 q 649 50 669 50 q 618 60 632 50 l 244 307 q 227 327 227 318 q 237 333 227 333 q 256 328 248 333 l 626 76 q 650 71 635 71 q 676 96 676 71 q 672 119 676 106 l 626 274 q 600 278 618 278 q 537 236 553 278 q 426 310 476 274 z "},"B":{"ha":843,"x_min":0,"x_max":671,"o":"m 0 822 q 125 925 0 925 l 364 925 q 466 895 421 925 q 535 814 511 865 q 560 707 560 764 q 532 592 560 645 q 671 325 671 486 q 631 167 671 242 q 525 46 592 92 q 382 0 458 0 l 103 0 q 33 28 63 0 q 3 108 3 57 l 0 822 m 60 125 q 78 67 60 80 q 131 54 97 54 l 376 54 q 495 94 441 54 q 579 200 549 135 q 610 335 610 264 q 575 468 610 406 q 469 569 540 531 q 445 575 460 575 q 400 560 420 575 q 380 519 380 545 q 432 426 380 478 q 475 323 475 381 q 459 257 475 289 q 416 207 443 225 q 364 188 390 188 l 239 188 q 199 225 199 188 l 199 325 q 179 333 181 331 l 179 201 q 168 190 179 190 q 157 205 157 190 l 157 347 q 128 410 128 374 q 165 486 128 448 l 165 706 q 185 755 165 736 q 231 773 205 773 l 322 773 q 337 765 337 773 q 322 754 337 754 l 233 754 q 199 737 212 754 q 185 686 185 721 l 185 504 l 201 521 l 201 678 q 210 720 201 706 q 247 735 219 735 l 304 735 q 356 692 356 735 q 312 594 356 652 q 199 486 269 536 q 147 410 147 450 q 162 371 147 388 q 199 347 177 354 q 283 372 245 347 q 367 442 320 397 q 368 450 368 443 q 364 467 368 467 q 291 398 325 424 q 217 367 257 372 q 179 382 204 367 q 189 401 179 401 q 196 399 193 401 q 217 388 203 388 q 284 421 244 390 q 358 498 323 452 q 379 561 358 535 q 424 592 399 587 q 460 703 460 646 q 404 817 460 778 q 400 825 400 821 q 421 836 400 836 q 482 711 482 789 q 450 597 482 657 q 475 594 467 597 q 497 704 497 647 q 481 788 497 750 q 433 848 465 826 q 356 871 401 871 l 139 871 q 77 861 95 871 q 60 811 60 850 l 60 125 m 253 672 l 253 597 q 296 672 296 649 q 275 683 296 683 q 253 672 253 683 m 486 418 q 475 401 486 401 q 469 404 473 401 q 426 455 462 425 q 424 463 424 459 q 427 472 424 468 q 435 476 431 476 q 442 472 437 476 q 486 418 469 449 m 139 92 l 385 92 q 463 122 419 92 q 539 205 508 152 q 571 321 571 257 q 526 467 571 394 q 524 479 524 472 q 532 489 524 489 q 549 478 542 489 q 593 328 593 403 q 574 229 593 276 q 523 147 555 183 q 453 91 491 111 q 382 71 415 71 l 142 71 q 124 83 124 71 q 139 92 124 92 m 258 299 l 258 253 l 356 253 q 399 277 383 257 q 415 322 415 296 q 390 382 415 355 q 258 299 324 305 z "},"C":{"ha":944,"x_min":-25,"x_max":789,"o":"m 722 48 q 464 -31 603 -31 q 282 6 370 -31 q 126 108 195 43 q 17 256 57 173 q -25 429 -23 339 q 42 688 -25 568 q 223 878 108 808 q 474 949 338 949 q 686 903 578 949 q 763 843 738 881 q 789 765 789 806 q 758 682 789 718 q 676 647 726 647 q 606 665 642 647 q 476 699 536 699 q 352 662 408 699 q 267 569 297 626 q 236 455 236 512 q 268 342 236 396 q 354 256 299 289 q 474 223 409 223 q 606 258 542 223 q 669 276 637 276 q 749 240 718 276 q 781 154 781 203 q 722 48 781 87 m 621 205 q 464 167 546 167 q 320 206 385 167 q 216 309 254 244 q 176 450 178 374 q 215 597 176 527 q 323 710 254 667 q 475 753 391 753 q 643 708 556 753 q 671 701 656 701 q 713 721 695 701 q 730 768 730 742 q 663 851 730 825 q 475 889 570 889 q 301 853 382 889 q 160 753 220 817 q 67 608 100 690 q 35 439 35 527 q 73 276 37 351 q 172 144 110 201 q 313 56 235 87 q 471 25 391 25 q 686 92 589 25 q 724 153 724 118 q 705 197 724 179 q 659 215 686 215 q 621 205 638 215 m 660 746 q 671 743 667 743 q 689 765 689 743 q 681 789 689 782 q 678 796 678 794 q 692 806 678 806 q 706 797 701 806 q 712 769 712 785 q 699 735 712 749 q 668 722 686 722 q 651 726 660 722 q 642 740 642 734 q 660 746 642 746 m 318 76 q 304 90 304 82 q 317 97 304 97 q 336 92 327 97 q 471 62 391 62 q 564 73 518 62 q 639 104 609 84 q 675 149 669 124 q 692 172 683 172 q 703 149 703 172 q 668 96 702 120 q 579 56 634 71 q 468 42 525 42 q 318 76 382 42 m 268 219 q 280 201 280 211 q 272 193 280 193 q 258 199 264 193 q 136 447 136 309 q 188 629 136 536 q 261 712 212 674 q 371 772 310 750 q 486 793 431 793 q 553 783 517 793 q 572 771 572 781 q 560 763 572 763 q 546 765 557 763 q 482 775 515 775 q 321 729 402 775 q 203 618 241 684 q 157 453 157 535 q 268 219 157 323 z "},"D":{"ha":765,"x_min":3,"x_max":721,"o":"m 3 814 q 40 903 3 872 q 128 942 77 935 q 236 950 182 950 q 422 922 333 950 q 578 836 512 894 q 668 685 668 759 q 654 626 668 656 q 721 461 721 587 q 717 404 721 433 q 222 -25 677 -5 q 3 117 3 -25 l 3 814 m 62 806 l 62 125 q 106 56 62 79 q 199 32 150 32 q 429 72 329 32 q 589 199 529 113 q 660 415 649 284 q 661 449 661 425 q 643 553 661 509 q 583 597 626 597 q 540 574 557 594 q 524 480 524 554 q 502 329 524 401 q 430 209 481 256 q 299 162 380 162 q 205 265 205 162 l 205 643 q 322 760 205 760 q 489 651 430 755 q 511 621 496 636 q 539 606 526 606 q 549 608 543 606 q 597 618 569 618 q 610 651 610 621 q 600 703 610 674 q 568 762 591 731 q 507 822 545 793 q 240 893 410 893 q 174 890 215 893 q 98 867 134 888 q 62 806 62 847 m 201 199 q 190 174 201 174 q 176 188 181 174 q 162 242 162 211 l 162 665 q 205 762 162 721 q 336 803 247 803 q 367 790 367 801 q 336 777 367 777 q 225 738 261 777 q 190 657 190 699 l 190 236 q 201 199 190 215 m 635 529 q 643 446 643 488 q 628 333 643 390 q 586 229 613 277 q 521 144 558 180 q 397 73 470 98 q 247 48 323 48 q 128 68 182 48 q 108 90 108 77 q 118 99 108 99 q 133 95 125 99 q 247 75 183 75 q 469 136 363 75 q 580 265 540 176 q 620 453 620 354 q 612 526 620 489 q 622 545 614 545 q 635 529 631 545 m 543 760 q 579 712 570 731 q 594 646 589 693 q 582 629 594 629 q 569 643 571 629 q 529 740 565 715 q 521 755 521 746 q 529 767 521 767 q 543 760 536 767 m 480 578 q 444 607 462 584 q 407 655 427 630 q 370 689 388 681 q 325 697 345 697 q 268 649 268 697 l 268 268 q 319 219 268 219 q 376 242 345 224 q 434 304 408 261 q 461 418 460 348 l 461 475 q 480 578 461 555 z "},"E":{"ha":768,"x_min":-29,"x_max":615,"o":"m 122 615 l 17 708 q -29 812 -29 748 q -14 878 -29 847 q 34 926 2 908 q 111 944 65 944 l 467 944 q 559 906 524 944 q 594 817 594 868 q 553 723 594 762 q 429 683 511 683 l 537 583 q 575 490 575 548 q 539 394 575 435 q 439 353 503 353 l 271 353 l 271 231 l 498 228 q 584 189 552 228 q 615 100 615 151 q 581 10 615 47 q 480 -28 546 -28 l 122 -28 q 3 103 3 -28 l 3 483 q 31 569 3 531 q 122 615 59 607 m 136 32 l 486 32 q 539 54 519 32 q 558 104 558 75 q 539 153 558 133 q 483 174 519 174 l 271 174 q 208 222 208 174 l 208 353 q 262 410 208 410 l 424 410 q 483 434 457 410 q 508 493 508 459 q 469 564 508 532 l 256 746 l 439 746 q 508 768 484 746 q 533 820 533 789 q 513 866 533 847 q 453 885 492 885 l 128 885 q 56 865 81 885 q 32 815 32 845 q 79 729 32 770 l 293 550 l 133 550 q 83 527 101 550 q 65 478 65 504 l 65 119 q 78 57 65 82 q 136 32 90 32 m 146 74 l 483 71 q 503 78 492 71 q 515 97 514 85 q 520 107 515 102 q 531 113 525 113 q 537 95 537 113 q 516 62 533 76 q 483 48 498 48 l 146 48 q 131 61 131 48 q 146 74 131 74 m 190 201 q 179 172 190 172 q 168 201 168 172 l 168 376 q 191 429 168 408 q 242 450 214 450 l 426 453 q 450 465 437 453 q 464 489 462 476 q 475 502 468 502 q 486 483 486 502 q 467 447 486 462 q 429 432 448 432 l 253 432 q 211 418 231 432 q 190 375 190 404 l 190 201 m 313 592 q 317 583 317 588 q 307 574 317 574 q 293 581 302 574 l 203 654 q 194 668 194 661 q 205 678 194 678 q 217 672 211 678 l 313 592 m 228 740 q 236 724 236 734 q 229 715 236 715 q 214 724 224 715 l 174 757 q 168 769 168 763 q 190 783 168 783 l 455 783 q 478 792 466 783 q 493 811 490 800 q 503 824 495 824 q 509 820 506 824 q 512 814 512 817 q 494 777 512 791 q 450 763 475 763 l 203 763 l 228 740 z "},"F":{"ha":743,"x_min":-31,"x_max":586,"o":"m 122 615 l 14 711 q -31 815 -31 751 q 5 907 -31 869 q 108 944 41 944 l 469 944 q 554 909 522 944 q 586 826 586 874 q 568 759 586 791 q 511 708 549 728 q 415 689 473 689 l 532 583 q 567 503 567 551 q 549 434 567 468 q 502 379 532 400 q 439 358 473 358 l 288 358 q 271 356 273 358 q 268 336 268 353 l 268 114 q 227 11 268 48 q 131 -25 186 -25 q 38 9 77 -25 q 0 103 0 42 l 0 486 q 28 574 0 535 q 122 615 56 612 m 205 119 l 205 361 q 215 399 205 385 q 262 413 225 413 l 424 413 q 476 439 450 413 q 502 500 502 466 q 467 567 502 536 l 256 746 l 436 746 q 506 768 480 746 q 531 821 531 791 q 510 868 531 849 q 453 887 490 887 l 122 887 q 53 868 76 887 q 29 818 29 848 q 76 732 29 769 l 290 558 l 128 558 q 60 478 60 558 l 60 119 q 82 54 60 78 q 135 31 105 31 q 185 54 164 31 q 205 119 205 77 m 144 46 q 131 52 131 46 q 146 65 131 61 q 162 92 162 71 l 162 375 q 188 435 162 415 q 239 455 213 455 l 424 455 q 444 467 432 455 q 458 489 456 478 q 471 502 460 502 q 480 480 480 502 q 456 447 474 461 q 424 432 438 432 l 250 435 q 204 422 227 435 q 182 376 182 409 l 182 87 q 144 46 182 58 m 310 600 q 315 589 315 596 q 312 579 315 583 q 304 575 308 575 q 293 581 299 575 l 201 657 q 193 671 193 664 q 203 681 193 681 q 214 675 208 681 l 310 600 m 225 743 q 231 732 231 739 q 219 720 231 720 q 211 724 217 720 l 171 757 q 167 768 167 761 q 193 789 167 789 l 453 789 q 474 796 463 789 q 486 814 484 804 q 497 826 490 826 q 507 814 507 826 q 490 782 507 797 q 450 768 473 768 l 199 768 l 225 743 z "},"G":{"ha":950,"x_min":-25,"x_max":800,"o":"m 592 -5 q 458 -26 525 -26 q 283 8 369 -26 q 128 106 197 43 q 19 252 59 169 q -25 429 -22 336 q 41 690 -25 571 q 222 877 108 809 q 472 946 337 946 q 681 903 576 946 q 760 844 733 882 q 786 764 786 807 q 772 704 786 731 q 733 659 758 676 q 676 643 708 643 q 603 665 641 643 q 471 703 535 703 q 349 666 404 703 q 264 571 295 628 q 233 455 233 513 q 264 337 233 385 q 340 266 295 290 q 429 236 384 242 q 446 244 446 236 q 437 271 446 254 q 407 327 429 288 q 373 391 386 366 q 347 450 360 417 q 336 508 336 478 q 369 593 336 560 q 453 626 402 626 l 667 626 q 773 595 745 626 q 800 507 800 563 l 800 114 q 758 10 800 45 q 661 -25 716 -25 q 592 -5 618 -25 m 464 165 q 299 221 361 185 q 207 311 237 256 q 174 447 178 366 q 213 594 174 523 q 322 710 253 666 q 474 754 391 754 q 637 708 556 754 q 667 700 653 700 q 709 720 691 700 q 726 768 726 739 q 660 851 726 823 q 469 892 565 892 q 299 856 379 892 q 160 756 219 820 q 67 610 100 693 q 35 439 35 528 q 103 228 42 322 q 264 83 165 135 q 476 31 363 31 q 572 40 528 31 q 571 52 571 44 q 569 65 571 60 q 485 47 546 47 q 383 58 438 47 q 307 79 328 69 q 319 103 307 103 q 319 103 319 103 q 328 100 319 103 q 387 80 347 90 q 474 70 428 70 q 569 87 530 70 l 569 328 q 562 362 569 334 q 555 404 555 389 q 578 432 555 432 q 602 400 602 430 q 598 365 602 387 q 594 333 594 342 l 594 92 q 618 50 594 67 q 671 33 642 33 q 718 51 699 33 q 738 105 738 69 l 738 504 q 678 567 738 567 l 455 567 q 397 510 397 567 q 400 486 397 497 q 404 469 402 474 l 515 242 q 525 205 525 222 q 464 165 525 165 m 654 746 q 667 743 662 743 q 686 767 686 743 q 678 789 686 782 q 675 796 675 792 q 686 806 675 806 q 703 794 696 806 q 710 769 710 780 q 696 736 710 750 q 664 722 682 722 q 646 726 654 722 q 637 739 637 730 q 654 746 637 746 m 675 54 q 651 64 651 54 q 658 76 651 71 q 675 82 665 82 q 694 98 690 82 q 697 149 697 115 l 697 475 q 711 498 697 498 q 724 472 724 498 l 724 151 q 710 71 724 87 q 675 54 697 54 m 265 222 q 276 205 276 213 q 265 196 276 196 q 253 201 258 196 q 129 449 129 305 q 179 632 129 541 q 303 750 218 702 q 475 799 389 799 q 549 786 513 799 q 567 769 567 782 q 557 763 567 763 q 543 765 554 763 q 475 775 511 775 q 318 730 393 775 q 203 618 243 685 q 157 449 157 546 q 265 222 157 311 m 429 453 q 437 471 429 471 q 450 461 446 471 l 553 258 q 555 246 555 254 q 546 236 555 236 q 532 247 536 236 l 429 453 m 524 439 q 547 464 528 454 q 586 475 567 475 q 600 464 600 473 q 581 453 600 455 q 549 432 560 449 q 537 425 544 425 q 524 439 524 428 z "},"H":{"ha":735,"x_min":3,"x_max":676,"o":"m 3 806 q 41 913 3 876 q 131 951 79 951 q 222 914 183 951 q 261 811 261 877 l 261 578 l 364 578 l 364 811 q 402 910 364 875 q 493 944 440 944 q 581 912 543 944 q 618 822 618 880 l 618 553 q 676 451 676 516 q 661 391 676 419 q 618 345 646 362 l 618 111 q 598 40 618 71 q 546 -8 579 8 q 478 -25 514 -25 q 361 32 408 -25 l 256 160 l 256 85 q 220 3 256 33 q 135 -28 184 -28 q 42 9 81 -28 q 3 114 3 45 l 3 806 m 561 540 l 561 814 q 542 859 561 844 q 496 875 523 875 q 446 858 468 875 q 424 811 424 841 l 426 540 l 524 540 l 524 786 q 536 800 524 800 q 549 783 549 800 l 549 540 l 561 540 m 179 307 l 179 128 q 171 83 179 106 q 149 54 164 60 q 131 52 142 52 q 117 60 117 54 q 142 79 117 73 q 152 90 146 79 q 157 105 157 100 l 157 333 l 100 413 q 81 465 81 438 q 100 514 81 493 q 157 540 120 535 l 157 786 q 167 808 157 808 q 179 783 179 808 l 179 540 l 201 540 l 201 794 q 180 860 201 836 q 131 883 159 883 q 80 860 101 883 q 60 792 60 836 l 60 114 q 78 51 60 73 q 124 29 97 29 q 174 50 152 29 q 196 103 196 71 l 196 285 l 179 307 m 310 379 l 537 379 q 591 402 571 379 q 611 454 611 425 q 593 499 611 481 q 540 518 575 518 l 168 518 q 126 503 146 518 q 105 461 105 487 q 131 404 105 435 l 401 68 q 475 32 431 32 q 534 55 509 32 q 558 114 558 77 q 555 265 558 220 q 535 322 551 310 l 535 122 q 516 72 535 88 q 469 56 496 56 q 426 71 439 56 l 160 396 q 154 414 154 405 q 161 422 154 422 q 176 413 169 422 l 442 87 q 471 74 451 74 q 502 84 488 74 q 515 108 515 94 l 515 339 q 485 353 507 353 q 439 328 460 353 q 415 247 419 303 l 310 379 m 310 401 q 280 411 280 401 q 313 421 280 421 l 543 421 q 569 442 562 421 q 583 455 576 455 q 594 439 594 455 q 577 414 594 426 q 546 401 561 401 l 310 401 z "},"I":{"ha":325,"x_min":0,"x_max":261,"o":"m 0 811 q 41 912 0 876 q 135 949 81 949 q 224 913 186 949 q 261 814 261 878 l 261 122 q 243 41 261 75 q 196 -10 225 7 q 133 -26 166 -26 q 40 13 80 -26 q 0 122 0 53 l 0 811 m 57 806 l 57 131 q 78 58 57 84 q 128 32 98 32 q 179 57 156 32 q 201 122 201 82 l 201 806 q 181 870 201 847 q 131 892 160 892 q 79 869 101 892 q 57 806 57 846 m 160 794 q 174 820 160 820 q 185 797 185 820 l 185 122 q 171 71 185 87 q 142 54 158 54 q 122 71 122 54 q 133 79 122 79 q 154 92 148 79 q 160 119 160 105 l 160 794 z "},"J":{"ha":629,"x_min":-22,"x_max":532,"o":"m 271 811 q 311 913 271 876 q 406 950 352 950 q 495 913 457 950 q 532 808 532 877 l 532 276 q 503 157 532 227 q 409 35 474 88 q 239 -18 343 -18 q 208 -17 219 -18 q -8 122 49 -5 q -22 186 -22 153 q 11 278 -22 239 q 92 317 44 317 q 188 268 143 317 q 237 236 217 236 q 271 313 271 236 l 271 811 m 331 806 l 331 296 q 304 205 331 235 q 240 175 278 175 q 154 219 187 175 q 95 260 125 260 q 55 238 71 260 q 39 185 39 216 q 43 157 39 172 q 119 69 62 96 q 219 38 175 43 q 369 80 313 38 q 447 176 425 122 q 469 265 469 230 l 469 803 q 449 866 469 844 q 400 887 429 887 q 351 866 372 887 q 331 806 331 844 m 429 789 q 442 811 429 811 q 453 792 453 811 l 453 271 q 422 154 453 204 q 341 79 391 105 q 236 53 291 53 q 151 71 189 53 q 126 93 126 82 q 136 100 126 100 q 154 95 145 100 q 237 78 194 78 q 332 101 288 78 q 403 169 376 125 q 429 274 429 214 l 429 789 z "},"K":{"ha":800,"x_min":3,"x_max":699,"o":"m 3 797 q 44 908 3 869 q 142 947 85 947 q 234 911 195 947 q 274 811 274 875 l 274 735 l 439 903 q 540 949 485 949 q 635 910 594 949 q 675 820 675 871 q 632 724 675 767 l 421 512 l 678 168 q 699 101 699 141 q 664 13 699 51 q 564 -25 630 -25 l 117 -25 q 34 14 65 -25 q 3 111 3 53 l 3 797 m 62 125 q 85 54 62 76 q 142 32 109 32 l 572 32 q 622 52 604 32 q 639 99 639 73 q 626 136 639 124 l 331 515 l 583 768 q 610 824 610 794 q 590 869 610 850 q 542 889 570 889 q 480 860 510 889 l 190 564 q 175 524 175 550 q 193 467 175 492 l 424 171 l 256 171 q 211 188 221 171 q 201 233 201 204 l 201 410 q 198 418 199 415 q 195 424 197 422 q 188 429 193 427 l 188 196 q 178 172 188 172 q 168 193 168 172 l 168 464 q 149 519 149 489 q 168 583 149 552 l 165 783 q 179 806 165 806 q 193 783 193 806 l 193 612 q 201 621 195 612 q 208 632 207 630 l 208 803 q 187 864 208 842 q 136 886 165 886 q 84 863 106 886 q 62 797 62 840 l 62 125 m 258 290 q 268 231 258 239 q 318 225 279 225 q 258 290 304 241 m 144 71 l 567 71 q 597 117 597 71 q 604 131 597 131 q 615 117 611 131 q 618 95 618 103 q 564 48 616 48 l 144 48 q 133 58 133 48 q 137 67 133 62 q 144 71 140 71 m 439 182 l 214 472 q 210 485 210 479 q 217 494 210 492 q 228 489 224 494 l 455 190 q 460 180 460 184 q 453 172 460 172 q 439 182 445 172 m 553 828 q 550 833 550 830 q 554 843 550 838 q 564 847 558 847 q 578 839 571 847 q 586 817 586 828 q 561 773 586 797 l 315 521 q 318 510 315 514 q 321 502 321 504 q 317 491 321 495 q 308 486 313 486 q 301 492 305 486 q 289 514 289 504 q 299 535 289 523 l 543 789 q 561 815 561 807 q 553 828 561 822 z "},"L":{"ha":575,"x_min":0,"x_max":506,"o":"m 0 803 q 18 885 0 851 q 67 936 37 919 q 129 953 96 953 q 218 916 180 953 q 256 811 256 878 l 256 276 q 288 247 256 247 l 372 247 q 471 210 436 247 q 506 121 506 172 q 474 36 506 72 q 385 0 442 0 l 125 0 q 34 41 67 0 q 0 133 0 82 l 0 803 m 60 811 l 60 142 q 73 80 60 102 q 139 57 87 57 l 375 57 q 427 77 408 57 q 446 126 446 98 q 429 172 446 153 q 379 190 412 190 l 247 190 q 205 209 215 190 q 196 242 196 228 l 196 811 q 176 872 196 850 q 129 893 156 893 q 80 871 101 893 q 60 811 60 850 m 154 797 q 167 820 154 820 q 179 794 179 820 l 179 211 q 167 193 179 193 q 154 214 154 193 l 154 797 m 142 95 l 382 95 q 402 102 394 95 q 410 119 410 109 q 418 126 412 126 q 429 114 429 126 q 411 84 426 95 q 379 74 397 74 l 139 74 q 124 82 124 74 q 142 95 124 95 z "},"M":{"ha":1244,"x_min":-14,"x_max":1107,"o":"m 211 849 q 266 925 228 898 q 347 951 303 951 q 421 930 388 951 q 469 865 454 908 l 540 672 l 597 857 q 644 922 609 900 q 721 944 678 944 q 800 922 765 944 q 851 860 836 900 l 1101 154 q 1107 117 1107 137 q 1067 34 1107 68 q 944 0 1026 0 l 626 0 q 518 16 557 0 q 461 87 480 32 l 350 418 l 239 74 q 190 2 225 27 q 113 -22 154 -22 q 24 11 61 -22 q -14 101 -14 45 q -5 157 -14 129 l 211 849 m 333 632 l 168 97 q 108 54 154 54 q 95 67 95 57 q 108 76 95 76 q 142 100 136 76 l 313 635 q 327 650 316 650 q 333 632 333 650 m 729 407 q 669 296 695 304 q 676 272 672 286 q 689 249 680 258 q 714 239 697 239 l 794 239 l 729 407 m 626 85 l 968 85 q 1006 113 1006 85 q 1001 136 1006 120 l 765 803 q 771 829 765 829 q 786 811 782 829 l 1019 146 q 1028 110 1028 125 q 965 65 1028 65 l 626 65 q 611 75 611 65 q 626 85 611 85 m 694 635 q 708 646 697 646 q 717 635 717 646 q 714 624 717 633 l 635 376 q 612 348 629 363 q 575 333 595 333 q 560 343 560 333 q 572 356 560 353 q 603 374 594 361 q 618 404 612 386 l 694 635 m 347 606 l 518 105 q 612 52 533 52 l 971 52 q 1023 68 1004 52 q 1042 114 1042 85 q 1036 149 1042 132 l 794 836 q 767 872 786 859 q 724 886 747 886 q 679 870 700 886 q 649 820 659 854 l 521 432 q 514 392 514 407 q 532 340 514 360 q 576 321 551 321 q 623 339 601 321 q 657 393 645 357 l 726 603 q 753 524 740 562 q 795 410 767 487 q 843 277 823 333 q 877 179 863 222 l 694 179 q 646 199 665 179 q 603 293 620 222 q 589 296 594 293 l 615 203 q 607 183 615 183 q 597 193 599 183 l 561 299 q 492 390 492 329 q 504 453 492 418 l 382 811 q 392 830 382 830 q 404 820 400 830 l 518 493 q 522 510 518 500 q 526 524 526 520 l 415 839 q 347 893 394 893 q 265 814 291 893 l 54 146 q 47 104 47 127 q 64 54 47 72 q 107 36 82 36 q 154 53 132 36 q 188 103 177 71 l 347 606 z "},"N":{"ha":800,"x_min":3,"x_max":763,"o":"m 3 822 q 39 912 3 872 q 128 951 76 951 q 279 846 210 951 l 493 515 l 493 820 q 534 918 493 882 q 629 954 574 954 q 723 918 683 954 q 763 817 763 882 l 763 139 q 716 28 763 58 q 612 -3 669 -3 l 122 -3 q 36 28 68 -3 q 3 119 3 59 l 3 822 m 62 125 q 83 73 62 90 q 133 57 104 57 l 600 57 q 677 82 650 57 q 703 139 703 106 l 703 820 q 680 877 703 857 q 626 897 657 897 q 574 878 596 897 q 553 825 553 859 l 553 483 q 603 288 553 358 q 621 232 621 260 q 593 170 621 196 q 526 144 564 144 q 436 190 474 144 l 239 190 q 201 250 201 190 l 201 581 l 458 208 q 531 165 488 165 q 577 183 558 165 q 597 229 597 201 q 581 276 597 252 l 214 833 q 125 897 173 897 q 80 876 98 897 q 62 822 62 855 l 62 125 m 262 396 l 262 274 q 268 259 262 268 q 290 250 274 250 l 358 250 l 262 396 m 160 603 q 170 614 160 614 q 180 609 175 614 q 185 597 185 605 l 185 208 q 174 196 185 196 q 160 208 160 196 l 160 603 m 176 820 q 174 830 174 824 q 182 840 174 840 q 199 828 191 840 l 575 256 q 582 232 582 243 q 569 199 582 218 q 558 190 563 190 q 549 194 553 190 q 546 203 546 199 q 549 208 546 203 q 557 231 557 221 q 540 268 557 240 l 176 820 m 663 783 q 672 817 663 817 q 682 808 678 817 q 686 786 686 799 l 686 136 q 661 87 686 103 q 606 71 636 71 l 149 71 q 125 82 125 71 q 149 95 125 95 l 612 95 q 650 106 637 95 q 663 133 663 117 l 663 783 z "},"O":{"ha":1113,"x_min":-28,"x_max":944,"o":"m 313 663 q 288 612 313 651 q 247 536 263 572 q 231 454 231 499 q 276 319 231 384 q 461 228 341 228 q 533 238 498 228 q 596 269 567 249 q 646 319 625 290 q 696 468 696 394 q 615 632 696 565 q 471 693 545 693 q 428 689 448 693 q 383 677 408 685 q 342 666 358 670 q 313 663 327 663 m 199 800 q 287 911 199 877 q 486 944 375 944 q 654 908 572 944 q 801 807 735 872 q 906 652 867 741 q 944 461 944 564 q 891 229 943 325 q 759 78 838 133 q 601 -1 681 22 q 464 -25 521 -25 q 273 15 363 -24 q 115 120 182 54 q 11 267 48 186 q -28 432 -27 349 q -14 557 -28 493 q 30 676 0 621 q 101 765 59 731 q 199 800 144 798 m 208 760 q 121 718 162 759 q 54 608 80 676 q 29 463 29 539 q 53 319 29 390 q 130 186 77 249 q 268 79 184 123 q 455 33 353 33 q 659 85 562 33 q 819 237 756 136 q 887 475 882 337 q 856 621 887 548 q 768 753 825 694 q 633 848 710 813 q 468 883 556 883 q 304 851 387 883 q 253 818 270 839 q 236 775 236 798 q 256 729 236 748 q 306 710 276 710 q 345 720 325 710 q 468 749 408 749 q 608 711 543 749 q 712 609 673 674 q 751 468 751 545 q 743 401 751 434 q 634 231 715 292 q 455 171 554 171 q 334 198 392 171 q 236 276 276 225 q 171 453 171 362 q 189 548 171 504 q 228 624 207 593 q 261 672 250 656 q 265 686 265 681 q 261 700 265 694 q 249 712 257 706 q 236 724 241 719 q 227 743 234 726 q 208 760 220 760 m 268 746 q 304 726 283 726 q 353 743 315 726 q 465 764 405 764 q 700 651 600 764 q 706 649 703 649 q 717 667 717 649 q 469 787 608 787 q 345 763 407 787 q 306 749 314 749 q 282 763 292 749 q 272 769 277 769 q 264 758 264 769 q 268 746 264 754 m 840 535 q 844 548 840 542 q 853 554 849 554 q 863 540 858 554 q 867 476 867 507 q 833 306 867 384 q 740 171 799 229 q 606 83 681 114 q 454 53 531 53 q 313 82 380 53 q 297 96 297 87 q 308 103 297 103 q 318 100 310 103 q 446 76 374 76 q 586 100 515 76 q 714 173 656 124 q 808 300 772 222 q 843 480 843 377 q 840 535 843 499 m 253 203 q 265 199 257 199 q 274 208 274 199 q 271 217 274 214 q 157 453 157 313 q 179 570 157 513 q 236 663 201 627 q 242 675 242 668 q 235 685 242 685 q 217 669 228 685 q 136 454 136 573 q 167 315 136 381 q 253 203 198 248 z "},"P":{"ha":660,"x_min":3,"x_max":624,"o":"m 40 379 q 15 431 27 399 q 3 486 3 464 l 3 797 q 48 886 3 847 q 157 925 94 925 l 339 925 q 497 880 433 925 q 592 759 561 834 q 624 594 624 684 q 587 443 621 515 q 486 319 553 371 q 322 244 419 267 q 280 220 295 237 q 265 165 265 203 l 265 108 q 225 7 265 43 q 131 -29 185 -29 q 41 5 78 -29 q 3 100 3 39 l 3 296 q 15 347 3 318 q 40 379 27 376 m 388 726 q 292 749 344 749 q 244 746 262 749 q 207 722 219 742 q 196 681 196 702 l 196 475 q 162 396 196 410 q 147 406 147 396 q 154 418 147 412 q 168 436 166 424 q 171 478 171 448 l 171 678 q 196 748 171 723 q 296 773 221 773 q 401 743 352 773 q 404 736 404 742 q 388 726 404 726 m 146 52 q 129 64 129 52 q 144 79 129 75 q 165 133 165 87 q 199 280 165 232 q 301 342 233 327 q 415 392 365 354 q 494 489 466 431 q 522 611 522 547 q 510 697 522 654 q 517 720 510 720 q 532 706 527 720 q 549 604 549 652 q 515 471 549 532 q 426 370 482 410 q 307 315 371 330 q 249 298 273 309 q 207 250 225 286 q 188 144 188 214 q 180 87 188 111 q 146 52 173 64 m 274 667 l 274 486 q 345 539 324 509 q 367 621 367 569 q 342 659 365 650 q 274 667 319 667 m 52 486 q 78 405 52 436 q 139 374 105 374 q 188 397 168 374 q 208 467 208 421 l 208 643 q 215 701 208 683 q 241 724 223 719 q 299 729 258 729 q 424 603 424 729 q 392 501 421 541 q 293 424 362 460 q 250 389 273 407 q 203 356 228 371 q 151 339 178 341 q 89 350 123 339 q 57 282 57 340 l 57 100 q 78 51 57 69 q 128 32 99 32 q 182 55 159 32 q 205 119 205 77 l 205 176 q 227 256 205 225 q 299 299 248 287 q 446 366 386 317 q 536 478 506 414 q 565 611 565 543 q 543 722 565 668 q 345 873 477 873 l 157 873 q 84 843 116 873 q 52 779 52 812 l 52 486 z "},"Q":{"ha":1153,"x_min":-19,"x_max":960,"o":"m 247 857 q 322 922 274 905 q 468 947 388 947 q 674 905 573 947 q 836 789 774 863 q 960 467 960 639 q 814 119 960 282 l 865 32 q 886 -42 886 -4 q 847 -127 886 -94 q 755 -161 807 -161 q 657 -105 689 -161 l 597 -3 q 468 -21 539 -21 q 243 31 352 -21 q 68 182 135 83 q -19 463 -19 307 q -1 595 -19 529 q 56 720 17 661 q 154 828 94 779 q 229 860 192 860 q 247 857 236 860 m 572 68 q 465 57 523 57 q 214 136 329 57 q 205 150 205 142 q 215 158 205 158 q 231 151 222 158 q 301 112 258 129 q 391 86 344 95 q 483 78 439 78 q 575 92 538 78 q 532 182 575 111 q 464 172 501 172 q 316 214 387 172 q 211 318 245 255 q 174 460 174 380 q 271 683 174 592 q 301 743 301 710 q 282 788 301 770 q 236 807 263 807 q 185 786 210 807 q 78 641 119 728 q 35 464 37 553 q 110 220 35 331 q 333 57 186 110 q 475 38 389 38 q 572 68 570 38 m 461 231 l 261 572 q 231 468 231 537 q 258 350 231 401 q 341 266 288 301 q 461 231 395 231 m 489 694 l 681 361 q 710 465 710 405 q 678 583 710 530 q 598 663 652 631 q 489 694 545 694 m 208 256 q 135 461 135 345 q 164 601 135 535 q 239 703 193 666 q 261 714 252 714 q 267 708 267 714 q 258 692 267 702 q 182 583 210 644 q 154 457 154 522 q 228 261 154 352 q 233 249 233 256 q 227 243 233 243 q 208 256 217 243 m 385 763 q 476 796 410 796 q 585 777 529 796 q 669 732 642 758 q 681 715 681 723 q 675 711 681 711 q 657 720 667 711 q 574 759 625 742 q 479 775 524 775 q 401 746 421 775 q 385 735 395 735 q 376 744 376 735 q 385 763 376 752 m 763 151 q 866 297 830 212 q 901 471 901 381 q 814 724 901 617 q 669 846 758 796 q 479 896 579 896 q 372 879 426 896 q 323 858 341 870 q 288 817 305 846 q 327 742 327 790 q 310 686 327 709 l 743 -57 q 779 -62 749 -62 q 786 -74 786 -65 q 779 -85 786 -82 q 761 -87 768 -87 q 722 -68 733 -87 l 301 654 q 297 645 297 654 q 301 618 297 626 l 697 -62 q 765 -107 722 -107 q 810 -89 791 -107 q 829 -42 829 -70 q 814 8 829 -17 l 421 689 q 413 717 413 705 q 429 746 413 735 q 464 757 446 757 q 602 724 533 757 q 711 637 671 692 q 767 464 767 568 q 740 350 767 392 q 708 260 708 288 q 740 185 708 230 q 864 467 864 319 q 839 603 864 531 q 835 621 835 613 q 842 632 835 632 q 854 618 848 632 q 882 472 882 548 q 851 314 882 394 q 754 165 820 234 q 763 151 757 157 z "},"R":{"ha":803,"x_min":-3,"x_max":653,"o":"m 105 564 l 17 714 q -3 786 -3 744 q 36 884 -3 842 q 154 925 76 925 l 345 925 q 489 884 427 925 q 584 774 551 842 q 617 631 617 707 q 587 495 617 559 q 498 388 557 431 l 624 185 q 653 93 653 136 q 612 6 653 39 q 519 -26 572 -26 q 418 28 449 -26 q 256 301 275 267 l 256 103 q 216 9 256 43 q 122 -24 176 -24 q 36 6 73 -24 q 0 89 0 36 l 0 447 q 25 531 0 498 q 105 564 50 564 m 319 678 q 335 651 328 664 q 350 624 343 637 q 367 597 358 611 q 374 622 374 611 q 357 661 374 644 q 319 678 340 678 m 342 307 q 345 262 342 268 l 469 54 q 517 31 483 31 q 569 49 545 31 q 593 95 593 67 q 581 133 593 113 l 455 345 q 407 367 443 367 q 353 331 361 367 q 425 203 383 279 q 487 98 467 127 q 524 68 508 68 q 532 71 527 68 q 542 64 542 71 q 535 54 542 58 q 518 50 526 50 q 481 73 497 50 q 424 171 466 95 q 342 307 382 247 m 231 532 q 339 543 307 532 q 290 628 324 572 q 256 701 256 685 q 274 724 256 718 q 310 730 290 730 q 385 704 351 730 q 418 629 418 677 q 413 592 418 610 q 359 523 398 539 q 260 507 319 507 l 219 507 l 146 507 q 92 502 109 507 q 67 484 74 498 q 60 442 60 471 l 60 100 q 78 54 60 71 q 121 38 96 38 q 171 54 149 38 q 193 97 193 71 l 190 310 q 208 357 190 343 q 251 373 226 371 q 293 375 277 374 q 440 424 382 384 q 525 520 498 463 q 551 637 551 577 q 510 771 551 723 q 427 843 468 819 q 325 868 385 866 l 165 868 q 90 841 119 868 q 61 777 61 815 q 76 724 61 749 l 188 532 l 205 532 l 95 726 q 93 738 93 730 q 97 744 93 744 q 111 735 105 744 l 231 532 m 233 751 q 310 772 267 772 q 432 711 389 772 q 435 701 435 707 q 426 690 435 693 q 418 694 420 690 q 369 735 399 718 q 307 753 338 752 q 253 738 276 753 q 239 733 244 733 q 229 742 229 735 q 233 751 229 749 m 125 74 q 160 108 160 89 l 160 345 q 186 397 160 378 q 244 415 213 415 q 394 444 336 415 q 480 521 451 473 q 521 637 509 570 q 531 653 523 653 q 537 640 537 653 q 456 459 535 526 q 244 393 376 393 q 199 380 222 393 q 176 347 176 367 l 176 103 q 133 54 176 81 q 119 67 119 59 q 125 74 119 72 z "},"S":{"ha":817,"x_min":-25,"x_max":671,"o":"m 95 518 q 42 671 42 593 q 87 817 42 743 q 201 913 126 880 q 356 946 276 946 q 424 939 389 946 q 554 875 512 918 q 597 785 597 832 q 560 703 597 738 q 467 669 523 669 q 367 697 417 669 q 333 706 352 706 q 299 678 299 704 q 322 643 299 657 q 384 612 347 626 q 463 582 421 598 q 535 549 505 567 q 638 445 605 507 q 671 310 671 382 q 646 184 671 244 q 581 82 622 124 q 458 2 528 29 q 311 -25 387 -25 q 113 25 203 -25 q -5 157 24 75 q -25 271 -25 213 q 95 518 -25 416 m 131 475 q 60 390 84 443 q 36 279 36 337 q 61 163 36 217 q 131 82 86 109 q 311 31 213 31 q 446 60 382 31 q 552 140 510 89 q 606 256 595 192 q 610 306 610 280 q 450 526 610 464 q 395 547 428 535 q 339 568 363 558 q 293 592 315 578 q 239 678 239 622 q 265 736 239 713 q 342 760 291 760 q 439 724 368 758 q 461 720 449 720 q 512 738 489 720 q 535 783 535 757 q 478 857 535 823 q 346 890 421 890 q 216 860 276 890 q 125 771 155 829 q 101 669 101 723 q 168 524 101 580 q 178 519 172 519 q 183 524 183 519 q 179 532 183 526 q 172 541 178 535 q 165 549 166 547 q 175 565 165 565 q 185 561 181 565 q 264 497 221 521 q 375 450 308 473 q 385 442 385 448 q 372 429 385 429 q 340 438 353 433 q 304 452 327 443 q 274 464 281 461 q 268 458 268 462 q 276 447 268 450 q 342 425 319 433 q 392 402 364 417 q 442 366 420 388 q 469 318 464 345 q 472 288 472 307 q 429 196 472 231 q 333 160 385 162 q 227 188 276 160 q 178 274 178 216 q 196 345 178 304 q 218 381 201 357 q 239 418 235 406 q 244 446 244 431 q 232 485 244 469 q 196 500 219 500 q 131 475 168 500 m 222 686 q 213 660 220 660 q 203 667 208 660 q 199 686 199 675 q 241 772 204 742 q 328 803 278 803 q 375 794 352 803 q 412 780 386 791 q 452 765 438 769 q 472 760 466 760 q 492 773 487 760 q 497 777 493 777 q 507 760 507 777 q 469 738 493 738 q 417 752 450 739 q 366 771 385 765 q 315 777 347 777 q 251 744 279 777 q 222 686 222 711 m 253 79 q 318 71 286 71 q 440 99 382 71 q 529 176 497 128 q 568 307 568 236 q 498 453 568 403 q 493 461 493 456 q 500 469 493 466 q 512 472 508 472 q 594 311 594 409 q 553 171 594 238 q 456 81 520 114 q 313 48 391 48 q 247 54 276 48 q 228 71 228 57 q 253 79 228 79 m 211 176 q 218 162 218 170 q 210 153 218 153 q 196 160 205 153 q 151 218 163 189 q 139 293 139 247 q 148 330 140 310 q 171 378 156 350 q 194 423 186 406 q 201 453 201 439 q 208 471 201 471 q 228 453 221 471 q 219 418 228 436 q 195 373 211 400 q 171 328 179 347 q 162 278 162 306 q 211 176 162 207 m 282 379 q 243 285 243 330 q 271 233 243 251 q 329 218 293 218 q 388 235 363 218 q 413 288 413 253 q 376 344 411 325 q 282 379 340 364 z "},"T":{"ha":779,"x_min":-62,"x_max":606,"o":"m 142 103 l 142 483 q 132 551 142 530 q 82 606 123 572 q 51 630 62 621 q 17 657 39 639 q -15 686 -4 675 q -35 708 -25 696 q -62 796 -62 746 q -30 887 -62 849 q 65 925 3 925 l 461 925 q 539 906 507 925 q 589 856 572 887 q 606 790 606 825 q 572 703 606 740 q 478 667 538 667 l 370 667 q 393 636 388 657 q 399 569 399 615 l 399 95 q 364 3 399 35 q 279 -29 329 -29 q 213 -13 244 -29 q 161 32 181 2 q 142 103 142 62 m 199 529 l 199 103 q 222 50 199 70 q 275 31 245 31 q 320 48 302 31 q 339 100 339 65 l 339 583 q 322 633 339 614 q 268 680 306 651 q 214 729 230 708 l 469 729 q 525 748 505 729 q 545 793 545 766 q 521 843 545 822 q 455 865 497 865 l 60 865 q 16 844 36 865 q -4 793 -4 822 q 35 722 -4 753 q 90 677 61 701 q 137 638 119 654 q 174 603 155 623 q 199 529 199 578 m 199 606 l 71 714 q 64 725 64 722 q 75 735 64 735 q 82 732 79 735 l 214 618 q 223 604 223 610 q 215 598 223 598 q 199 606 211 598 m 301 583 q 311 610 301 610 q 319 592 319 610 l 319 103 q 308 64 319 82 q 276 46 296 46 q 267 57 267 46 q 271 65 267 65 q 301 100 301 72 l 301 583 m 199 768 l 469 768 q 504 794 504 768 q 512 801 506 801 q 524 792 524 801 q 510 758 521 769 q 467 746 499 746 l 196 746 q 182 755 182 746 q 199 768 182 768 z "},"U":{"ha":654,"x_min":-62,"x_max":561,"o":"m 489 777 l 489 274 q 457 164 489 217 q 369 79 425 112 q 244 46 313 46 q 193 52 228 46 q 176 64 176 55 q 193 71 176 71 q 240 65 212 65 q 347 90 294 65 q 435 164 400 115 q 469 279 469 213 l 469 777 q 478 785 469 785 q 489 777 489 785 m -62 836 q -25 921 -62 891 q 64 951 12 951 q 151 921 114 951 q 188 833 188 890 l 188 325 q 206 257 188 281 q 251 233 225 233 q 290 253 274 233 q 307 307 307 272 l 307 825 q 344 918 307 884 q 432 951 382 951 q 522 915 484 951 q 561 814 561 879 l 561 262 q 518 125 561 191 q 404 19 476 60 q 250 -22 332 -21 q 90 21 161 -22 q -22 133 18 63 q -62 276 -62 202 l -62 836 m 95 803 q 107 821 95 821 q 117 803 117 821 l 117 319 q 157 193 117 233 q 160 185 160 190 q 150 174 160 174 q 139 179 143 174 q 104 232 114 204 q 95 315 95 261 l 95 803 m -5 817 l -5 276 q 28 158 -5 215 q 120 67 61 101 q 253 32 179 32 q 345 54 300 34 q 426 107 391 74 q 481 184 461 141 q 502 274 502 227 l 502 811 q 481 877 502 853 q 433 900 461 900 q 385 875 405 900 q 364 806 364 851 l 364 307 q 329 202 364 240 q 249 164 295 164 q 167 202 201 164 q 133 310 133 241 l 133 822 q 114 881 133 860 q 67 901 94 901 q 16 879 37 901 q -5 817 -5 856 z "},"V":{"ha":808,"x_min":-22,"x_max":669,"o":"m -17 786 q -22 824 -22 806 q -3 889 -22 860 q 46 934 16 918 q 108 950 76 950 q 176 928 146 950 q 217 863 205 907 l 318 504 l 426 857 q 473 926 440 903 q 546 949 505 949 q 632 916 595 949 q 669 832 669 884 q 663 789 669 814 l 455 87 q 399 7 440 36 q 311 -22 359 -22 q 224 6 263 -22 q 171 89 185 35 l -17 786 m 136 803 q 144 826 136 826 q 157 808 153 826 l 301 268 q 293 251 301 251 q 282 262 286 251 l 136 803 m 561 783 q 572 792 563 792 q 581 777 581 792 l 382 111 q 354 78 375 91 q 307 65 333 65 q 292 74 292 65 q 310 82 292 82 q 344 92 328 82 q 364 119 360 103 l 561 783 m 315 296 l 168 840 q 105 887 154 887 q 56 868 78 887 q 35 817 35 848 q 38 794 35 809 l 219 122 q 255 61 230 82 q 310 39 280 39 q 367 61 340 39 q 404 122 393 82 l 610 806 q 612 826 612 812 q 592 871 612 855 q 543 887 571 887 q 480 843 495 887 l 315 296 z "},"W":{"ha":1357,"x_min":-24,"x_max":1165,"o":"m -14 779 q -24 826 -24 803 q 19 916 -24 880 q 115 951 62 951 q 181 933 151 951 q 225 877 210 914 l 396 453 l 415 478 l 299 768 q 286 828 286 801 q 326 901 286 877 q 432 925 366 925 l 711 925 q 849 829 849 925 q 828 746 849 794 l 708 478 l 720 442 l 917 877 q 1032 953 952 953 q 1125 919 1084 953 q 1165 833 1165 885 q 1153 779 1165 809 l 839 68 q 714 -21 800 -21 q 644 -3 676 -21 q 597 43 612 15 l 550 142 l 502 43 q 454 -9 485 9 q 388 -28 422 -28 q 318 -7 351 -28 q 271 54 286 15 l -14 779 m 142 817 q 149 835 142 835 q 162 825 157 835 l 376 276 q 370 258 376 258 q 358 268 362 258 l 142 817 m 393 290 l 171 849 q 110 895 153 895 q 59 874 81 895 q 38 821 38 853 q 43 789 38 804 l 322 79 q 385 38 338 38 q 450 76 432 38 q 514 214 498 174 q 529 288 529 254 l 436 85 q 419 63 432 72 q 392 54 406 54 q 379 57 387 54 q 368 71 368 60 q 385 79 368 79 q 415 95 411 79 l 512 315 q 515 329 515 319 q 498 363 515 348 q 461 379 481 379 q 418 350 434 379 q 404 318 411 338 q 393 290 397 298 m 1074 786 l 763 89 q 708 60 749 60 q 690 70 690 60 q 700 79 690 79 q 743 100 734 79 l 1050 792 q 1067 806 1057 806 q 1076 794 1076 806 q 1074 786 1076 792 m 700 274 q 690 253 700 253 q 678 262 682 253 l 483 738 q 479 758 479 750 q 512 789 479 789 l 594 789 q 607 779 607 789 q 592 765 607 765 l 524 765 q 502 755 502 765 q 507 740 502 752 l 700 274 m 965 849 l 714 293 q 671 395 698 330 q 621 514 644 459 q 575 624 597 569 q 529 735 552 680 q 526 742 526 737 q 600 751 526 751 q 586 683 586 718 q 602 618 586 646 q 637 583 617 590 l 735 789 q 753 806 745 806 q 758 796 758 806 q 754 779 758 789 l 663 578 q 695 602 679 578 q 734 680 710 626 q 782 792 757 734 q 786 814 786 804 q 765 855 786 839 q 714 871 745 871 l 453 871 q 379 863 407 871 q 351 824 351 854 q 361 782 351 805 l 635 89 q 707 36 658 36 q 752 49 730 36 q 782 82 773 62 l 1101 797 q 1107 826 1107 811 q 1085 876 1107 856 q 1033 896 1063 896 q 965 849 987 896 z "},"X":{"ha":800,"x_min":-38,"x_max":646,"o":"m 160 512 l 35 749 q 11 833 11 793 q 50 921 11 888 q 140 953 89 953 q 242 897 211 953 l 310 771 l 379 896 q 482 951 413 951 q 571 919 533 951 q 610 833 610 887 q 586 751 610 794 l 455 512 l 629 193 q 646 131 646 162 q 629 66 646 97 q 583 18 612 36 q 521 0 554 0 l 92 0 q -1 31 37 0 q -38 114 -38 62 q -11 203 -38 154 l 160 512 m 418 851 l 35 174 q 22 126 22 151 q 42 77 22 96 q 85 57 62 57 l 515 57 q 566 79 547 57 q 586 126 586 100 q 581 151 586 142 q 512 280 552 203 q 461 377 472 357 q 439 411 450 398 q 418 424 428 424 l 561 151 q 567 129 567 142 q 553 91 567 107 q 515 74 539 74 l 114 74 q 90 85 90 74 q 114 95 90 95 l 512 95 q 536 104 525 95 q 547 128 547 114 q 543 142 547 136 l 390 424 q 332 349 332 409 q 345 299 332 323 l 388 217 q 393 204 393 206 q 375 199 393 199 l 233 196 q 215 204 215 196 q 219 217 215 211 l 540 786 q 550 820 550 802 q 528 869 550 848 q 476 889 506 889 q 418 851 438 889 m 179 225 l 498 792 q 510 799 502 799 q 518 782 518 799 l 199 214 q 182 197 189 197 q 175 208 175 197 q 179 225 175 216 m 307 288 l 274 233 l 333 233 l 307 288 m 211 540 l 268 637 l 176 822 q 174 829 174 828 q 185 838 174 838 q 196 830 191 838 l 276 675 q 286 668 280 668 q 293 681 293 668 l 201 860 q 149 892 183 892 q 93 869 119 892 q 67 820 67 847 q 74 794 67 808 l 211 540 z "},"Y":{"ha":854,"x_min":-48,"x_max":725,"o":"m 203 128 q 194 93 194 108 q 216 47 194 65 q 264 29 237 29 q 328 71 308 29 l 665 763 q 671 792 671 773 q 651 847 669 824 q 597 871 633 871 l 87 871 q 33 847 56 871 q 10 799 10 823 q 14 782 10 788 l 231 370 q 289 333 251 333 q 337 352 315 333 q 358 399 358 371 q 350 432 358 415 l 203 720 q 211 732 203 732 l 483 732 q 492 717 492 732 l 370 461 q 372 445 370 450 q 385 401 385 423 q 359 340 385 368 q 293 307 333 313 l 203 128 m 290 672 l 353 555 l 404 672 l 290 672 m 219 293 q 178 348 209 293 q 76 537 147 403 q -38 749 6 671 q -48 796 -48 771 q -33 857 -48 827 q 12 906 -18 887 q 82 925 42 925 l 586 925 q 691 886 657 925 q 725 792 725 846 q 714 735 725 759 l 376 46 q 330 -5 360 12 q 267 -22 300 -22 q 178 9 216 -22 q 140 92 140 41 q 154 151 140 120 l 219 293 m 43 763 q 39 773 39 769 q 47 783 39 783 q 62 771 56 783 l 262 390 q 301 372 271 372 q 314 365 314 372 q 301 350 314 356 q 289 347 293 347 q 244 375 264 347 l 43 763 m 205 751 q 189 764 189 751 q 203 773 189 773 l 493 773 q 508 763 508 773 q 493 751 508 751 l 205 751 m 626 839 q 646 825 637 837 q 654 800 654 814 q 651 786 654 790 l 313 74 q 291 58 307 65 q 258 52 275 52 q 246 65 246 56 q 265 71 246 71 q 296 89 286 71 l 635 789 q 621 825 635 818 q 615 832 615 825 q 626 839 615 839 z "},"Z":{"ha":792,"x_min":-40,"x_max":622,"o":"m 253 678 l 117 678 q 33 715 64 678 q 1 801 1 752 q 35 889 1 852 q 133 925 70 925 l 455 925 q 549 892 516 925 q 582 808 582 858 q 561 732 582 769 l 296 247 l 496 247 q 566 231 537 247 q 608 188 594 215 q 622 131 622 161 q 589 40 622 79 q 502 0 556 0 l 76 0 q -5 35 31 0 q -40 122 -40 70 q -17 203 -40 161 l 253 678 m 350 729 l 35 174 q 21 124 21 149 q 38 74 21 94 q 82 54 55 54 l 496 54 q 541 76 523 54 q 558 126 558 98 q 541 172 558 153 q 486 190 523 190 l 196 190 l 515 760 q 522 793 522 771 q 501 846 522 823 q 432 868 480 868 l 133 868 q 78 850 96 868 q 60 804 60 831 q 77 755 60 777 q 117 732 94 732 l 350 729 m 100 95 l 486 95 q 515 114 511 95 q 526 131 515 131 q 540 111 540 131 q 523 84 536 94 q 493 74 510 74 l 97 74 q 83 82 83 74 q 88 91 83 86 q 100 95 93 95 m 492 757 l 182 199 q 175 196 180 196 q 162 205 162 196 q 165 214 162 210 l 472 760 q 485 769 476 769 q 492 757 492 769 m 142 773 l 342 773 q 361 763 361 773 q 342 751 361 751 l 144 751 q 131 763 131 751 q 142 773 131 773 z "},"[":{"ha":483,"x_min":0,"x_max":413,"o":"m 0 57 l 0 865 q 36 958 0 922 q 117 993 71 993 l 271 993 q 376 957 339 993 q 413 872 413 921 q 378 791 413 825 q 276 757 342 757 l 236 757 l 236 160 l 276 160 q 347 144 317 160 q 391 101 376 127 q 406 46 406 75 q 372 -36 406 -1 q 279 -71 338 -71 l 108 -71 q 34 -33 68 -71 q 0 57 0 5 m 52 60 q 69 3 52 29 q 108 -22 86 -22 l 276 -22 q 332 -2 313 -20 q 351 40 351 16 q 331 86 351 67 q 274 105 311 105 l 182 105 l 182 811 l 274 811 q 334 831 312 812 q 356 875 356 850 q 333 922 356 902 q 268 942 310 942 l 114 942 q 73 915 94 942 q 52 854 52 888 l 52 60 m 162 851 l 262 851 q 288 840 288 851 q 268 830 288 830 l 162 830 l 162 122 q 153 111 162 111 q 142 131 142 111 l 142 825 q 146 847 142 842 q 162 851 151 851 m 108 11 l 290 11 q 306 19 297 11 q 318 32 316 26 q 328 42 320 42 q 336 28 336 42 q 276 -8 322 -8 l 108 -8 q 99 0 99 -8 q 108 11 99 11 z "},"\\":{"ha":686,"x_min":-24,"x_max":531,"o":"m 333 40 l -11 792 q -24 846 -24 822 q 6 918 -24 889 q 76 947 36 947 q 174 877 142 947 l 518 128 q 531 75 531 98 q 500 4 531 32 q 428 -24 469 -24 q 333 40 362 -24 m 375 65 q 432 21 394 21 q 468 36 452 21 q 483 76 483 52 q 475 111 483 92 l 136 854 q 74 900 114 900 q 37 886 52 900 q 22 847 22 872 q 32 808 22 828 l 375 65 m 125 843 l 464 103 q 471 78 471 91 q 458 48 471 62 q 447 43 453 43 q 439 53 439 43 q 445 62 439 59 q 451 79 451 68 q 445 103 451 86 l 105 839 q 114 854 105 854 q 125 843 120 854 z "},"]":{"ha":486,"x_min":-24,"x_max":390,"o":"m 390 57 q 356 -33 390 5 q 282 -71 322 -71 l 111 -71 q 18 -35 52 -71 q -17 47 -17 0 q 17 126 -17 93 q 114 160 52 160 l 154 160 l 154 757 l 114 757 q 13 791 49 757 q -24 873 -24 825 q -8 932 -24 904 q 40 976 8 959 q 117 993 71 993 l 274 993 q 355 958 319 993 q 390 865 390 922 l 390 57 m 339 60 l 339 854 q 318 915 339 889 q 276 942 297 942 l 122 942 q 57 922 81 942 q 33 875 33 902 q 55 831 33 849 q 114 811 76 812 l 208 811 l 208 105 l 117 105 q 59 86 81 105 q 38 40 38 66 q 57 -2 38 16 q 114 -22 77 -20 l 282 -22 q 322 3 304 -22 q 339 60 339 28 m 228 851 q 243 847 239 851 q 247 825 247 842 l 247 131 q 236 111 247 111 q 228 122 228 111 l 228 830 l 122 830 q 101 840 101 830 q 128 851 101 851 l 228 851 m 282 11 q 290 1 290 11 q 282 -8 290 -8 l 114 -8 q 54 28 68 -8 q 64 40 54 40 q 74 32 72 40 q 84 19 76 26 q 97 11 93 11 l 282 11 z "},"^":{"ha":865,"x_min":-22,"x_max":635,"o":"m 217 896 q 296 926 250 926 q 388 890 349 926 l 603 678 q 635 604 635 646 q 616 542 635 572 q 566 493 597 511 q 500 474 535 474 q 413 510 450 474 l 319 592 q 299 606 306 606 q 268 581 293 606 l 208 518 q 115 478 170 478 q 20 516 62 478 q -22 607 -22 554 q 29 714 -22 662 l 217 896 m 62 651 q 43 607 43 632 q 62 560 43 581 q 107 539 81 539 q 154 561 134 539 l 271 678 q 292 699 289 699 q 313 686 300 699 l 455 553 q 496 536 474 536 q 541 557 522 536 q 561 604 561 577 q 543 646 561 628 l 356 830 q 328 857 338 849 q 301 865 318 865 q 236 828 274 865 l 62 651 m 95 569 q 90 579 90 572 q 103 592 90 592 q 115 588 109 588 q 131 594 124 588 l 228 692 q 244 700 236 700 q 253 693 253 700 q 244 678 253 686 l 142 578 q 111 563 126 563 q 95 569 101 563 m 345 783 q 335 803 335 793 q 343 812 335 812 q 358 806 351 812 l 532 635 q 540 586 540 626 q 529 576 536 576 q 515 592 515 576 q 507 624 515 612 l 345 783 z "},"_":{"ha":890,"x_min":5,"x_max":782,"o":"m 111 -43 l 681 -43 q 755 -71 728 -43 q 782 -138 782 -99 q 754 -205 782 -177 q 678 -233 727 -233 l 114 -233 q 34 -205 63 -233 q 5 -138 5 -176 q 33 -71 5 -99 q 111 -43 61 -43 m 114 -92 q 71 -106 87 -92 q 56 -139 56 -120 q 71 -170 56 -157 q 114 -182 86 -182 l 675 -182 q 717 -168 702 -182 q 732 -136 732 -155 q 718 -105 732 -118 q 681 -92 704 -92 l 114 -92 m 678 -168 l 114 -168 q 74 -146 79 -168 q 83 -129 76 -129 q 92 -142 90 -129 q 119 -151 93 -151 l 675 -151 q 688 -160 688 -151 q 678 -168 688 -168 z "},"`":{"ha":435,"x_min":46,"x_max":349,"o":"m 201 922 l 313 817 q 349 740 349 781 q 322 677 349 704 q 260 650 295 650 q 196 678 226 650 l 71 794 q 46 851 46 816 q 73 920 46 889 q 138 951 101 951 q 201 922 172 951 m 165 885 q 139 896 154 896 q 112 884 123 895 q 101 857 101 873 q 117 825 101 840 l 228 720 q 258 706 241 706 q 284 717 273 706 q 294 743 294 728 q 282 771 294 759 l 165 885 m 146 840 l 242 751 q 260 739 252 739 q 268 743 263 739 q 282 736 282 743 q 274 722 282 728 q 257 718 268 718 q 242 722 246 718 l 136 822 q 126 836 126 828 q 136 844 126 844 q 146 840 142 844 z "},"a":{"ha":911,"x_min":10,"x_max":779,"o":"m 19 151 l 258 851 q 318 925 275 898 q 413 951 362 951 q 500 925 461 951 q 553 849 538 899 l 669 486 q 748 452 717 486 q 779 372 779 418 q 726 276 779 314 l 773 136 q 778 103 778 120 q 758 38 778 68 q 707 -10 739 8 q 642 -28 675 -28 q 583 -11 608 -28 l 307 174 l 262 60 q 213 -1 247 20 q 140 -22 180 -22 q 49 11 88 -22 q 10 99 10 44 q 19 151 10 124 m 247 253 l 188 82 q 169 60 183 69 q 139 52 155 52 q 122 62 122 54 q 144 76 122 76 q 160 84 150 76 q 171 97 169 91 l 228 265 l 193 293 q 157 362 157 318 q 181 426 157 399 q 244 453 205 453 l 290 453 l 367 678 q 380 690 370 690 q 390 672 390 690 l 315 453 l 333 453 l 401 649 l 461 453 l 569 453 l 458 808 q 468 832 458 832 q 480 820 476 832 l 597 453 l 618 453 l 498 828 q 463 873 490 856 q 403 890 435 890 q 346 873 371 890 q 310 822 321 856 l 76 139 q 70 99 70 120 q 90 48 70 66 q 139 29 111 29 q 180 41 161 29 q 205 76 199 53 l 262 242 q 254 248 258 245 q 247 253 250 251 m 396 524 l 379 453 l 418 453 l 396 524 m 678 376 q 686 392 678 392 q 697 382 693 392 q 700 368 700 374 q 689 342 700 353 q 665 331 677 331 l 410 331 q 389 342 389 331 q 407 353 389 351 l 663 353 q 678 376 678 353 m 426 310 l 660 310 q 707 328 690 310 q 724 372 724 347 q 709 415 724 397 q 665 432 693 432 l 247 432 q 201 410 222 432 q 180 361 180 388 q 211 310 180 329 l 600 46 q 646 29 627 29 q 696 55 676 29 q 717 97 717 81 q 691 201 709 146 q 654 258 672 255 l 697 119 q 700 103 700 109 q 685 66 700 82 q 649 50 669 50 q 618 60 632 50 l 244 307 q 227 327 227 318 q 237 333 227 333 q 256 328 248 333 l 626 76 q 650 71 635 71 q 676 96 676 71 q 672 119 676 106 l 626 274 q 600 278 618 278 q 537 236 553 278 q 426 310 476 274 z "},"b":{"ha":843,"x_min":0,"x_max":671,"o":"m 0 822 q 125 925 0 925 l 364 925 q 466 895 421 925 q 535 814 511 865 q 560 707 560 764 q 532 592 560 645 q 671 325 671 486 q 631 167 671 242 q 525 46 592 92 q 382 0 458 0 l 103 0 q 33 28 63 0 q 3 108 3 57 l 0 822 m 60 125 q 78 67 60 80 q 131 54 97 54 l 376 54 q 495 94 441 54 q 579 200 549 135 q 610 335 610 264 q 575 468 610 406 q 469 569 540 531 q 445 575 460 575 q 400 560 420 575 q 380 519 380 545 q 432 426 380 478 q 475 323 475 381 q 459 257 475 289 q 416 207 443 225 q 364 188 390 188 l 239 188 q 199 225 199 188 l 199 325 q 179 333 181 331 l 179 201 q 168 190 179 190 q 157 205 157 190 l 157 347 q 128 410 128 374 q 165 486 128 448 l 165 706 q 185 755 165 736 q 231 773 205 773 l 322 773 q 337 765 337 773 q 322 754 337 754 l 233 754 q 199 737 212 754 q 185 686 185 721 l 185 504 l 201 521 l 201 678 q 210 720 201 706 q 247 735 219 735 l 304 735 q 356 692 356 735 q 312 594 356 652 q 199 486 269 536 q 147 410 147 450 q 162 371 147 388 q 199 347 177 354 q 283 372 245 347 q 367 442 320 397 q 368 450 368 443 q 364 467 368 467 q 291 398 325 424 q 217 367 257 372 q 179 382 204 367 q 189 401 179 401 q 196 399 193 401 q 217 388 203 388 q 284 421 244 390 q 358 498 323 452 q 379 561 358 535 q 424 592 399 587 q 460 703 460 646 q 404 817 460 778 q 400 825 400 821 q 421 836 400 836 q 482 711 482 789 q 450 597 482 657 q 475 594 467 597 q 497 704 497 647 q 481 788 497 750 q 433 848 465 826 q 356 871 401 871 l 139 871 q 77 861 95 871 q 60 811 60 850 l 60 125 m 253 672 l 253 597 q 296 672 296 649 q 275 683 296 683 q 253 672 253 683 m 486 418 q 475 401 486 401 q 469 404 473 401 q 426 455 462 425 q 424 463 424 459 q 427 472 424 468 q 435 476 431 476 q 442 472 437 476 q 486 418 469 449 m 139 92 l 385 92 q 463 122 419 92 q 539 205 508 152 q 571 321 571 257 q 526 467 571 394 q 524 479 524 472 q 532 489 524 489 q 549 478 542 489 q 593 328 593 403 q 574 229 593 276 q 523 147 555 183 q 453 91 491 111 q 382 71 415 71 l 142 71 q 124 83 124 71 q 139 92 124 92 m 258 299 l 258 253 l 356 253 q 399 277 383 257 q 415 322 415 296 q 390 382 415 355 q 258 299 324 305 z "},"c":{"ha":944,"x_min":-25,"x_max":789,"o":"m 722 48 q 464 -31 603 -31 q 282 6 370 -31 q 126 108 195 43 q 17 256 57 173 q -25 429 -23 339 q 42 688 -25 568 q 223 878 108 808 q 474 949 338 949 q 686 903 578 949 q 763 843 738 881 q 789 765 789 806 q 758 682 789 718 q 676 647 726 647 q 606 665 642 647 q 476 699 536 699 q 352 662 408 699 q 267 569 297 626 q 236 455 236 512 q 268 342 236 396 q 354 256 299 289 q 474 223 409 223 q 606 258 542 223 q 669 276 637 276 q 749 240 718 276 q 781 154 781 203 q 722 48 781 87 m 621 205 q 464 167 546 167 q 320 206 385 167 q 216 309 254 244 q 176 450 178 374 q 215 597 176 527 q 323 710 254 667 q 475 753 391 753 q 643 708 556 753 q 671 701 656 701 q 713 721 695 701 q 730 768 730 742 q 663 851 730 825 q 475 889 570 889 q 301 853 382 889 q 160 753 220 817 q 67 608 100 690 q 35 439 35 527 q 73 276 37 351 q 172 144 110 201 q 313 56 235 87 q 471 25 391 25 q 686 92 589 25 q 724 153 724 118 q 705 197 724 179 q 659 215 686 215 q 621 205 638 215 m 660 746 q 671 743 667 743 q 689 765 689 743 q 681 789 689 782 q 678 796 678 794 q 692 806 678 806 q 706 797 701 806 q 712 769 712 785 q 699 735 712 749 q 668 722 686 722 q 651 726 660 722 q 642 740 642 734 q 660 746 642 746 m 318 76 q 304 90 304 82 q 317 97 304 97 q 336 92 327 97 q 471 62 391 62 q 564 73 518 62 q 639 104 609 84 q 675 149 669 124 q 692 172 683 172 q 703 149 703 172 q 668 96 702 120 q 579 56 634 71 q 468 42 525 42 q 318 76 382 42 m 268 219 q 280 201 280 211 q 272 193 280 193 q 258 199 264 193 q 136 447 136 309 q 188 629 136 536 q 261 712 212 674 q 371 772 310 750 q 486 793 431 793 q 553 783 517 793 q 572 771 572 781 q 560 763 572 763 q 546 765 557 763 q 482 775 515 775 q 321 729 402 775 q 203 618 241 684 q 157 453 157 535 q 268 219 157 323 z "},"d":{"ha":765,"x_min":3,"x_max":721,"o":"m 3 814 q 40 903 3 872 q 128 942 77 935 q 236 950 182 950 q 422 922 333 950 q 578 836 512 894 q 668 685 668 759 q 654 626 668 656 q 721 461 721 587 q 717 404 721 433 q 222 -25 677 -5 q 3 117 3 -25 l 3 814 m 62 806 l 62 125 q 106 56 62 79 q 199 32 150 32 q 429 72 329 32 q 589 199 529 113 q 660 415 649 284 q 661 449 661 425 q 643 553 661 509 q 583 597 626 597 q 540 574 557 594 q 524 480 524 554 q 502 329 524 401 q 430 209 481 256 q 299 162 380 162 q 205 265 205 162 l 205 643 q 322 760 205 760 q 489 651 430 755 q 511 621 496 636 q 539 606 526 606 q 549 608 543 606 q 597 618 569 618 q 610 651 610 621 q 600 703 610 674 q 568 762 591 731 q 507 822 545 793 q 240 893 410 893 q 174 890 215 893 q 98 867 134 888 q 62 806 62 847 m 201 199 q 190 174 201 174 q 176 188 181 174 q 162 242 162 211 l 162 665 q 205 762 162 721 q 336 803 247 803 q 367 790 367 801 q 336 777 367 777 q 225 738 261 777 q 190 657 190 699 l 190 236 q 201 199 190 215 m 635 529 q 643 446 643 488 q 628 333 643 390 q 586 229 613 277 q 521 144 558 180 q 397 73 470 98 q 247 48 323 48 q 128 68 182 48 q 108 90 108 77 q 118 99 108 99 q 133 95 125 99 q 247 75 183 75 q 469 136 363 75 q 580 265 540 176 q 620 453 620 354 q 612 526 620 489 q 622 545 614 545 q 635 529 631 545 m 543 760 q 579 712 570 731 q 594 646 589 693 q 582 629 594 629 q 569 643 571 629 q 529 740 565 715 q 521 755 521 746 q 529 767 521 767 q 543 760 536 767 m 480 578 q 444 607 462 584 q 407 655 427 630 q 370 689 388 681 q 325 697 345 697 q 268 649 268 697 l 268 268 q 319 219 268 219 q 376 242 345 224 q 434 304 408 261 q 461 418 460 348 l 461 475 q 480 578 461 555 z "},"e":{"ha":768,"x_min":-29,"x_max":615,"o":"m 122 615 l 17 708 q -29 812 -29 748 q -14 878 -29 847 q 34 926 2 908 q 111 944 65 944 l 467 944 q 559 906 524 944 q 594 817 594 868 q 553 723 594 762 q 429 683 511 683 l 537 583 q 575 490 575 548 q 539 394 575 435 q 439 353 503 353 l 271 353 l 271 231 l 498 228 q 584 189 552 228 q 615 100 615 151 q 581 10 615 47 q 480 -28 546 -28 l 122 -28 q 3 103 3 -28 l 3 483 q 31 569 3 531 q 122 615 59 607 m 136 32 l 486 32 q 539 54 519 32 q 558 104 558 75 q 539 153 558 133 q 483 174 519 174 l 271 174 q 208 222 208 174 l 208 353 q 262 410 208 410 l 424 410 q 483 434 457 410 q 508 493 508 459 q 469 564 508 532 l 256 746 l 439 746 q 508 768 484 746 q 533 820 533 789 q 513 866 533 847 q 453 885 492 885 l 128 885 q 56 865 81 885 q 32 815 32 845 q 79 729 32 770 l 293 550 l 133 550 q 83 527 101 550 q 65 478 65 504 l 65 119 q 78 57 65 82 q 136 32 90 32 m 146 74 l 483 71 q 503 78 492 71 q 515 97 514 85 q 520 107 515 102 q 531 113 525 113 q 537 95 537 113 q 516 62 533 76 q 483 48 498 48 l 146 48 q 131 61 131 48 q 146 74 131 74 m 190 201 q 179 172 190 172 q 168 201 168 172 l 168 376 q 191 429 168 408 q 242 450 214 450 l 426 453 q 450 465 437 453 q 464 489 462 476 q 475 502 468 502 q 486 483 486 502 q 467 447 486 462 q 429 432 448 432 l 253 432 q 211 418 231 432 q 190 375 190 404 l 190 201 m 313 592 q 317 583 317 588 q 307 574 317 574 q 293 581 302 574 l 203 654 q 194 668 194 661 q 205 678 194 678 q 217 672 211 678 l 313 592 m 228 740 q 236 724 236 734 q 229 715 236 715 q 214 724 224 715 l 174 757 q 168 769 168 763 q 190 783 168 783 l 455 783 q 478 792 466 783 q 493 811 490 800 q 503 824 495 824 q 509 820 506 824 q 512 814 512 817 q 494 777 512 791 q 450 763 475 763 l 203 763 l 228 740 z "},"f":{"ha":743,"x_min":-31,"x_max":586,"o":"m 122 615 l 14 711 q -31 815 -31 751 q 5 907 -31 869 q 108 944 41 944 l 469 944 q 554 909 522 944 q 586 826 586 874 q 568 759 586 791 q 511 708 549 728 q 415 689 473 689 l 532 583 q 567 503 567 551 q 549 434 567 468 q 502 379 532 400 q 439 358 473 358 l 288 358 q 271 356 273 358 q 268 336 268 353 l 268 114 q 227 11 268 48 q 131 -25 186 -25 q 38 9 77 -25 q 0 103 0 42 l 0 486 q 28 574 0 535 q 122 615 56 612 m 205 119 l 205 361 q 215 399 205 385 q 262 413 225 413 l 424 413 q 476 439 450 413 q 502 500 502 466 q 467 567 502 536 l 256 746 l 436 746 q 506 768 480 746 q 531 821 531 791 q 510 868 531 849 q 453 887 490 887 l 122 887 q 53 868 76 887 q 29 818 29 848 q 76 732 29 769 l 290 558 l 128 558 q 60 478 60 558 l 60 119 q 82 54 60 78 q 135 31 105 31 q 185 54 164 31 q 205 119 205 77 m 144 46 q 131 52 131 46 q 146 65 131 61 q 162 92 162 71 l 162 375 q 188 435 162 415 q 239 455 213 455 l 424 455 q 444 467 432 455 q 458 489 456 478 q 471 502 460 502 q 480 480 480 502 q 456 447 474 461 q 424 432 438 432 l 250 435 q 204 422 227 435 q 182 376 182 409 l 182 87 q 144 46 182 58 m 310 600 q 315 589 315 596 q 312 579 315 583 q 304 575 308 575 q 293 581 299 575 l 201 657 q 193 671 193 664 q 203 681 193 681 q 214 675 208 681 l 310 600 m 225 743 q 231 732 231 739 q 219 720 231 720 q 211 724 217 720 l 171 757 q 167 768 167 761 q 193 789 167 789 l 453 789 q 474 796 463 789 q 486 814 484 804 q 497 826 490 826 q 507 814 507 826 q 490 782 507 797 q 450 768 473 768 l 199 768 l 225 743 z "},"g":{"ha":950,"x_min":-25,"x_max":800,"o":"m 592 -5 q 458 -26 525 -26 q 283 8 369 -26 q 128 106 197 43 q 19 252 59 169 q -25 429 -22 336 q 41 690 -25 571 q 222 877 108 809 q 472 946 337 946 q 681 903 576 946 q 760 844 733 882 q 786 764 786 807 q 772 704 786 731 q 733 659 758 676 q 676 643 708 643 q 603 665 641 643 q 471 703 535 703 q 349 666 404 703 q 264 571 295 628 q 233 455 233 513 q 264 337 233 385 q 340 266 295 290 q 429 236 384 242 q 446 244 446 236 q 437 271 446 254 q 407 327 429 288 q 373 391 386 366 q 347 450 360 417 q 336 508 336 478 q 369 593 336 560 q 453 626 402 626 l 667 626 q 773 595 745 626 q 800 507 800 563 l 800 114 q 758 10 800 45 q 661 -25 716 -25 q 592 -5 618 -25 m 464 165 q 299 221 361 185 q 207 311 237 256 q 174 447 178 366 q 213 594 174 523 q 322 710 253 666 q 474 754 391 754 q 637 708 556 754 q 667 700 653 700 q 709 720 691 700 q 726 768 726 739 q 660 851 726 823 q 469 892 565 892 q 299 856 379 892 q 160 756 219 820 q 67 610 100 693 q 35 439 35 528 q 103 228 42 322 q 264 83 165 135 q 476 31 363 31 q 572 40 528 31 q 571 52 571 44 q 569 65 571 60 q 485 47 546 47 q 383 58 438 47 q 307 79 328 69 q 319 103 307 103 q 319 103 319 103 q 328 100 319 103 q 387 80 347 90 q 474 70 428 70 q 569 87 530 70 l 569 328 q 562 362 569 334 q 555 404 555 389 q 578 432 555 432 q 602 400 602 430 q 598 365 602 387 q 594 333 594 342 l 594 92 q 618 50 594 67 q 671 33 642 33 q 718 51 699 33 q 738 105 738 69 l 738 504 q 678 567 738 567 l 455 567 q 397 510 397 567 q 400 486 397 497 q 404 469 402 474 l 515 242 q 525 205 525 222 q 464 165 525 165 m 654 746 q 667 743 662 743 q 686 767 686 743 q 678 789 686 782 q 675 796 675 792 q 686 806 675 806 q 703 794 696 806 q 710 769 710 780 q 696 736 710 750 q 664 722 682 722 q 646 726 654 722 q 637 739 637 730 q 654 746 637 746 m 675 54 q 651 64 651 54 q 658 76 651 71 q 675 82 665 82 q 694 98 690 82 q 697 149 697 115 l 697 475 q 711 498 697 498 q 724 472 724 498 l 724 151 q 710 71 724 87 q 675 54 697 54 m 265 222 q 276 205 276 213 q 265 196 276 196 q 253 201 258 196 q 129 449 129 305 q 179 632 129 541 q 303 750 218 702 q 475 799 389 799 q 549 786 513 799 q 567 769 567 782 q 557 763 567 763 q 543 765 554 763 q 475 775 511 775 q 318 730 393 775 q 203 618 243 685 q 157 449 157 546 q 265 222 157 311 m 429 453 q 437 471 429 471 q 450 461 446 471 l 553 258 q 555 246 555 254 q 546 236 555 236 q 532 247 536 236 l 429 453 m 524 439 q 547 464 528 454 q 586 475 567 475 q 600 464 600 473 q 581 453 600 455 q 549 432 560 449 q 537 425 544 425 q 524 439 524 428 z "},"h":{"ha":735,"x_min":3,"x_max":676,"o":"m 3 806 q 41 913 3 876 q 131 951 79 951 q 222 914 183 951 q 261 811 261 877 l 261 578 l 364 578 l 364 811 q 402 910 364 875 q 493 944 440 944 q 581 912 543 944 q 618 822 618 880 l 618 553 q 676 451 676 516 q 661 391 676 419 q 618 345 646 362 l 618 111 q 598 40 618 71 q 546 -8 579 8 q 478 -25 514 -25 q 361 32 408 -25 l 256 160 l 256 85 q 220 3 256 33 q 135 -28 184 -28 q 42 9 81 -28 q 3 114 3 45 l 3 806 m 561 540 l 561 814 q 542 859 561 844 q 496 875 523 875 q 446 858 468 875 q 424 811 424 841 l 426 540 l 524 540 l 524 786 q 536 800 524 800 q 549 783 549 800 l 549 540 l 561 540 m 179 307 l 179 128 q 171 83 179 106 q 149 54 164 60 q 131 52 142 52 q 117 60 117 54 q 142 79 117 73 q 152 90 146 79 q 157 105 157 100 l 157 333 l 100 413 q 81 465 81 438 q 100 514 81 493 q 157 540 120 535 l 157 786 q 167 808 157 808 q 179 783 179 808 l 179 540 l 201 540 l 201 794 q 180 860 201 836 q 131 883 159 883 q 80 860 101 883 q 60 792 60 836 l 60 114 q 78 51 60 73 q 124 29 97 29 q 174 50 152 29 q 196 103 196 71 l 196 285 l 179 307 m 310 379 l 537 379 q 591 402 571 379 q 611 454 611 425 q 593 499 611 481 q 540 518 575 518 l 168 518 q 126 503 146 518 q 105 461 105 487 q 131 404 105 435 l 401 68 q 475 32 431 32 q 534 55 509 32 q 558 114 558 77 q 555 265 558 220 q 535 322 551 310 l 535 122 q 516 72 535 88 q 469 56 496 56 q 426 71 439 56 l 160 396 q 154 414 154 405 q 161 422 154 422 q 176 413 169 422 l 442 87 q 471 74 451 74 q 502 84 488 74 q 515 108 515 94 l 515 339 q 485 353 507 353 q 439 328 460 353 q 415 247 419 303 l 310 379 m 310 401 q 280 411 280 401 q 313 421 280 421 l 543 421 q 569 442 562 421 q 583 455 576 455 q 594 439 594 455 q 577 414 594 426 q 546 401 561 401 l 310 401 z "},"i":{"ha":325,"x_min":0,"x_max":261,"o":"m 0 811 q 41 912 0 876 q 135 949 81 949 q 224 913 186 949 q 261 814 261 878 l 261 122 q 243 41 261 75 q 196 -10 225 7 q 133 -26 166 -26 q 40 13 80 -26 q 0 122 0 53 l 0 811 m 57 806 l 57 131 q 78 58 57 84 q 128 32 98 32 q 179 57 156 32 q 201 122 201 82 l 201 806 q 181 870 201 847 q 131 892 160 892 q 79 869 101 892 q 57 806 57 846 m 160 794 q 174 820 160 820 q 185 797 185 820 l 185 122 q 171 71 185 87 q 142 54 158 54 q 122 71 122 54 q 133 79 122 79 q 154 92 148 79 q 160 119 160 105 l 160 794 z "},"j":{"ha":629,"x_min":-22,"x_max":532,"o":"m 271 811 q 311 913 271 876 q 406 950 352 950 q 495 913 457 950 q 532 808 532 877 l 532 276 q 503 157 532 227 q 409 35 474 88 q 239 -18 343 -18 q 208 -17 219 -18 q -8 122 49 -5 q -22 186 -22 153 q 11 278 -22 239 q 92 317 44 317 q 188 268 143 317 q 237 236 217 236 q 271 313 271 236 l 271 811 m 331 806 l 331 296 q 304 205 331 235 q 240 175 278 175 q 154 219 187 175 q 95 260 125 260 q 55 238 71 260 q 39 185 39 216 q 43 157 39 172 q 119 69 62 96 q 219 38 175 43 q 369 80 313 38 q 447 176 425 122 q 469 265 469 230 l 469 803 q 449 866 469 844 q 400 887 429 887 q 351 866 372 887 q 331 806 331 844 m 429 789 q 442 811 429 811 q 453 792 453 811 l 453 271 q 422 154 453 204 q 341 79 391 105 q 236 53 291 53 q 151 71 189 53 q 126 93 126 82 q 136 100 126 100 q 154 95 145 100 q 237 78 194 78 q 332 101 288 78 q 403 169 376 125 q 429 274 429 214 l 429 789 z "},"k":{"ha":800,"x_min":3,"x_max":699,"o":"m 3 797 q 44 908 3 869 q 142 947 85 947 q 234 911 195 947 q 274 811 274 875 l 274 735 l 439 903 q 540 949 485 949 q 635 910 594 949 q 675 820 675 871 q 632 724 675 767 l 421 512 l 678 168 q 699 101 699 141 q 664 13 699 51 q 564 -25 630 -25 l 117 -25 q 34 14 65 -25 q 3 111 3 53 l 3 797 m 62 125 q 85 54 62 76 q 142 32 109 32 l 572 32 q 622 52 604 32 q 639 99 639 73 q 626 136 639 124 l 331 515 l 583 768 q 610 824 610 794 q 590 869 610 850 q 542 889 570 889 q 480 860 510 889 l 190 564 q 175 524 175 550 q 193 467 175 492 l 424 171 l 256 171 q 211 188 221 171 q 201 233 201 204 l 201 410 q 198 418 199 415 q 195 424 197 422 q 188 429 193 427 l 188 196 q 178 172 188 172 q 168 193 168 172 l 168 464 q 149 519 149 489 q 168 583 149 552 l 165 783 q 179 806 165 806 q 193 783 193 806 l 193 612 q 201 621 195 612 q 208 632 207 630 l 208 803 q 187 864 208 842 q 136 886 165 886 q 84 863 106 886 q 62 797 62 840 l 62 125 m 258 290 q 268 231 258 239 q 318 225 279 225 q 258 290 304 241 m 144 71 l 567 71 q 597 117 597 71 q 604 131 597 131 q 615 117 611 131 q 618 95 618 103 q 564 48 616 48 l 144 48 q 133 58 133 48 q 137 67 133 62 q 144 71 140 71 m 439 182 l 214 472 q 210 485 210 479 q 217 494 210 492 q 228 489 224 494 l 455 190 q 460 180 460 184 q 453 172 460 172 q 439 182 445 172 m 553 828 q 550 833 550 830 q 554 843 550 838 q 564 847 558 847 q 578 839 571 847 q 586 817 586 828 q 561 773 586 797 l 315 521 q 318 510 315 514 q 321 502 321 504 q 317 491 321 495 q 308 486 313 486 q 301 492 305 486 q 289 514 289 504 q 299 535 289 523 l 543 789 q 561 815 561 807 q 553 828 561 822 z "},"l":{"ha":575,"x_min":0,"x_max":506,"o":"m 0 803 q 18 885 0 851 q 67 936 37 919 q 129 953 96 953 q 218 916 180 953 q 256 811 256 878 l 256 276 q 288 247 256 247 l 372 247 q 471 210 436 247 q 506 121 506 172 q 474 36 506 72 q 385 0 442 0 l 125 0 q 34 41 67 0 q 0 133 0 82 l 0 803 m 60 811 l 60 142 q 73 80 60 102 q 139 57 87 57 l 375 57 q 427 77 408 57 q 446 126 446 98 q 429 172 446 153 q 379 190 412 190 l 247 190 q 205 209 215 190 q 196 242 196 228 l 196 811 q 176 872 196 850 q 129 893 156 893 q 80 871 101 893 q 60 811 60 850 m 154 797 q 167 820 154 820 q 179 794 179 820 l 179 211 q 167 193 179 193 q 154 214 154 193 l 154 797 m 142 95 l 382 95 q 402 102 394 95 q 410 119 410 109 q 418 126 412 126 q 429 114 429 126 q 411 84 426 95 q 379 74 397 74 l 139 74 q 124 82 124 74 q 142 95 124 95 z "},"m":{"ha":1244,"x_min":-14,"x_max":1107,"o":"m 211 849 q 266 925 228 898 q 347 951 303 951 q 421 930 388 951 q 469 865 454 908 l 540 672 l 597 857 q 644 922 609 900 q 721 944 678 944 q 800 922 765 944 q 851 860 836 900 l 1101 154 q 1107 117 1107 137 q 1067 34 1107 68 q 944 0 1026 0 l 626 0 q 518 16 557 0 q 461 87 480 32 l 350 418 l 239 74 q 190 2 225 27 q 113 -22 154 -22 q 24 11 61 -22 q -14 101 -14 45 q -5 157 -14 129 l 211 849 m 333 632 l 168 97 q 108 54 154 54 q 95 67 95 57 q 108 76 95 76 q 142 100 136 76 l 313 635 q 327 650 316 650 q 333 632 333 650 m 729 407 q 669 296 695 304 q 676 272 672 286 q 689 249 680 258 q 714 239 697 239 l 794 239 l 729 407 m 626 85 l 968 85 q 1006 113 1006 85 q 1001 136 1006 120 l 765 803 q 771 829 765 829 q 786 811 782 829 l 1019 146 q 1028 110 1028 125 q 965 65 1028 65 l 626 65 q 611 75 611 65 q 626 85 611 85 m 694 635 q 708 646 697 646 q 717 635 717 646 q 714 624 717 633 l 635 376 q 612 348 629 363 q 575 333 595 333 q 560 343 560 333 q 572 356 560 353 q 603 374 594 361 q 618 404 612 386 l 694 635 m 347 606 l 518 105 q 612 52 533 52 l 971 52 q 1023 68 1004 52 q 1042 114 1042 85 q 1036 149 1042 132 l 794 836 q 767 872 786 859 q 724 886 747 886 q 679 870 700 886 q 649 820 659 854 l 521 432 q 514 392 514 407 q 532 340 514 360 q 576 321 551 321 q 623 339 601 321 q 657 393 645 357 l 726 603 q 753 524 740 562 q 795 410 767 487 q 843 277 823 333 q 877 179 863 222 l 694 179 q 646 199 665 179 q 603 293 620 222 q 589 296 594 293 l 615 203 q 607 183 615 183 q 597 193 599 183 l 561 299 q 492 390 492 329 q 504 453 492 418 l 382 811 q 392 830 382 830 q 404 820 400 830 l 518 493 q 522 510 518 500 q 526 524 526 520 l 415 839 q 347 893 394 893 q 265 814 291 893 l 54 146 q 47 104 47 127 q 64 54 47 72 q 107 36 82 36 q 154 53 132 36 q 188 103 177 71 l 347 606 z "},"n":{"ha":800,"x_min":3,"x_max":763,"o":"m 3 822 q 39 912 3 872 q 128 951 76 951 q 279 846 210 951 l 493 515 l 493 820 q 534 918 493 882 q 629 954 574 954 q 723 918 683 954 q 763 817 763 882 l 763 139 q 716 28 763 58 q 612 -3 669 -3 l 122 -3 q 36 28 68 -3 q 3 119 3 59 l 3 822 m 62 125 q 83 73 62 90 q 133 57 104 57 l 600 57 q 677 82 650 57 q 703 139 703 106 l 703 820 q 680 877 703 857 q 626 897 657 897 q 574 878 596 897 q 553 825 553 859 l 553 483 q 603 288 553 358 q 621 232 621 260 q 593 170 621 196 q 526 144 564 144 q 436 190 474 144 l 239 190 q 201 250 201 190 l 201 581 l 458 208 q 531 165 488 165 q 577 183 558 165 q 597 229 597 201 q 581 276 597 252 l 214 833 q 125 897 173 897 q 80 876 98 897 q 62 822 62 855 l 62 125 m 262 396 l 262 274 q 268 259 262 268 q 290 250 274 250 l 358 250 l 262 396 m 160 603 q 170 614 160 614 q 180 609 175 614 q 185 597 185 605 l 185 208 q 174 196 185 196 q 160 208 160 196 l 160 603 m 176 820 q 174 830 174 824 q 182 840 174 840 q 199 828 191 840 l 575 256 q 582 232 582 243 q 569 199 582 218 q 558 190 563 190 q 549 194 553 190 q 546 203 546 199 q 549 208 546 203 q 557 231 557 221 q 540 268 557 240 l 176 820 m 663 783 q 672 817 663 817 q 682 808 678 817 q 686 786 686 799 l 686 136 q 661 87 686 103 q 606 71 636 71 l 149 71 q 125 82 125 71 q 149 95 125 95 l 612 95 q 650 106 637 95 q 663 133 663 117 l 663 783 z "},"o":{"ha":1113,"x_min":-28,"x_max":944,"o":"m 313 663 q 288 612 313 651 q 247 536 263 572 q 231 454 231 499 q 276 319 231 384 q 461 228 341 228 q 533 238 498 228 q 596 269 567 249 q 646 319 625 290 q 696 468 696 394 q 615 632 696 565 q 471 693 545 693 q 428 689 448 693 q 383 677 408 685 q 342 666 358 670 q 313 663 327 663 m 199 800 q 287 911 199 877 q 486 944 375 944 q 654 908 572 944 q 801 807 735 872 q 906 652 867 741 q 944 461 944 564 q 891 229 943 325 q 759 78 838 133 q 601 -1 681 22 q 464 -25 521 -25 q 273 15 363 -24 q 115 120 182 54 q 11 267 48 186 q -28 432 -27 349 q -14 557 -28 493 q 30 676 0 621 q 101 765 59 731 q 199 800 144 798 m 208 760 q 121 718 162 759 q 54 608 80 676 q 29 463 29 539 q 53 319 29 390 q 130 186 77 249 q 268 79 184 123 q 455 33 353 33 q 659 85 562 33 q 819 237 756 136 q 887 475 882 337 q 856 621 887 548 q 768 753 825 694 q 633 848 710 813 q 468 883 556 883 q 304 851 387 883 q 253 818 270 839 q 236 775 236 798 q 256 729 236 748 q 306 710 276 710 q 345 720 325 710 q 468 749 408 749 q 608 711 543 749 q 712 609 673 674 q 751 468 751 545 q 743 401 751 434 q 634 231 715 292 q 455 171 554 171 q 334 198 392 171 q 236 276 276 225 q 171 453 171 362 q 189 548 171 504 q 228 624 207 593 q 261 672 250 656 q 265 686 265 681 q 261 700 265 694 q 249 712 257 706 q 236 724 241 719 q 227 743 234 726 q 208 760 220 760 m 268 746 q 304 726 283 726 q 353 743 315 726 q 465 764 405 764 q 700 651 600 764 q 706 649 703 649 q 717 667 717 649 q 469 787 608 787 q 345 763 407 787 q 306 749 314 749 q 282 763 292 749 q 272 769 277 769 q 264 758 264 769 q 268 746 264 754 m 840 535 q 844 548 840 542 q 853 554 849 554 q 863 540 858 554 q 867 476 867 507 q 833 306 867 384 q 740 171 799 229 q 606 83 681 114 q 454 53 531 53 q 313 82 380 53 q 297 96 297 87 q 308 103 297 103 q 318 100 310 103 q 446 76 374 76 q 586 100 515 76 q 714 173 656 124 q 808 300 772 222 q 843 480 843 377 q 840 535 843 499 m 253 203 q 265 199 257 199 q 274 208 274 199 q 271 217 274 214 q 157 453 157 313 q 179 570 157 513 q 236 663 201 627 q 242 675 242 668 q 235 685 242 685 q 217 669 228 685 q 136 454 136 573 q 167 315 136 381 q 253 203 198 248 z "},"p":{"ha":660,"x_min":3,"x_max":624,"o":"m 40 379 q 15 431 27 399 q 3 486 3 464 l 3 797 q 48 886 3 847 q 157 925 94 925 l 339 925 q 497 880 433 925 q 592 759 561 834 q 624 594 624 684 q 587 443 621 515 q 486 319 553 371 q 322 244 419 267 q 280 220 295 237 q 265 165 265 203 l 265 108 q 225 7 265 43 q 131 -29 185 -29 q 41 5 78 -29 q 3 100 3 39 l 3 296 q 15 347 3 318 q 40 379 27 376 m 388 726 q 292 749 344 749 q 244 746 262 749 q 207 722 219 742 q 196 681 196 702 l 196 475 q 162 396 196 410 q 147 406 147 396 q 154 418 147 412 q 168 436 166 424 q 171 478 171 448 l 171 678 q 196 748 171 723 q 296 773 221 773 q 401 743 352 773 q 404 736 404 742 q 388 726 404 726 m 146 52 q 129 64 129 52 q 144 79 129 75 q 165 133 165 87 q 199 280 165 232 q 301 342 233 327 q 415 392 365 354 q 494 489 466 431 q 522 611 522 547 q 510 697 522 654 q 517 720 510 720 q 532 706 527 720 q 549 604 549 652 q 515 471 549 532 q 426 370 482 410 q 307 315 371 330 q 249 298 273 309 q 207 250 225 286 q 188 144 188 214 q 180 87 188 111 q 146 52 173 64 m 274 667 l 274 486 q 345 539 324 509 q 367 621 367 569 q 342 659 365 650 q 274 667 319 667 m 52 486 q 78 405 52 436 q 139 374 105 374 q 188 397 168 374 q 208 467 208 421 l 208 643 q 215 701 208 683 q 241 724 223 719 q 299 729 258 729 q 424 603 424 729 q 392 501 421 541 q 293 424 362 460 q 250 389 273 407 q 203 356 228 371 q 151 339 178 341 q 89 350 123 339 q 57 282 57 340 l 57 100 q 78 51 57 69 q 128 32 99 32 q 182 55 159 32 q 205 119 205 77 l 205 176 q 227 256 205 225 q 299 299 248 287 q 446 366 386 317 q 536 478 506 414 q 565 611 565 543 q 543 722 565 668 q 345 873 477 873 l 157 873 q 84 843 116 873 q 52 779 52 812 l 52 486 z "},"q":{"ha":1153,"x_min":-19,"x_max":960,"o":"m 247 857 q 322 922 274 905 q 468 947 388 947 q 674 905 573 947 q 836 789 774 863 q 960 467 960 639 q 814 119 960 282 l 865 32 q 886 -42 886 -4 q 847 -127 886 -94 q 755 -161 807 -161 q 657 -105 689 -161 l 597 -3 q 468 -21 539 -21 q 243 31 352 -21 q 68 182 135 83 q -19 463 -19 307 q -1 595 -19 529 q 56 720 17 661 q 154 828 94 779 q 229 860 192 860 q 247 857 236 860 m 572 68 q 465 57 523 57 q 214 136 329 57 q 205 150 205 142 q 215 158 205 158 q 231 151 222 158 q 301 112 258 129 q 391 86 344 95 q 483 78 439 78 q 575 92 538 78 q 532 182 575 111 q 464 172 501 172 q 316 214 387 172 q 211 318 245 255 q 174 460 174 380 q 271 683 174 592 q 301 743 301 710 q 282 788 301 770 q 236 807 263 807 q 185 786 210 807 q 78 641 119 728 q 35 464 37 553 q 110 220 35 331 q 333 57 186 110 q 475 38 389 38 q 572 68 570 38 m 461 231 l 261 572 q 231 468 231 537 q 258 350 231 401 q 341 266 288 301 q 461 231 395 231 m 489 694 l 681 361 q 710 465 710 405 q 678 583 710 530 q 598 663 652 631 q 489 694 545 694 m 208 256 q 135 461 135 345 q 164 601 135 535 q 239 703 193 666 q 261 714 252 714 q 267 708 267 714 q 258 692 267 702 q 182 583 210 644 q 154 457 154 522 q 228 261 154 352 q 233 249 233 256 q 227 243 233 243 q 208 256 217 243 m 385 763 q 476 796 410 796 q 585 777 529 796 q 669 732 642 758 q 681 715 681 723 q 675 711 681 711 q 657 720 667 711 q 574 759 625 742 q 479 775 524 775 q 401 746 421 775 q 385 735 395 735 q 376 744 376 735 q 385 763 376 752 m 763 151 q 866 297 830 212 q 901 471 901 381 q 814 724 901 617 q 669 846 758 796 q 479 896 579 896 q 372 879 426 896 q 323 858 341 870 q 288 817 305 846 q 327 742 327 790 q 310 686 327 709 l 743 -57 q 779 -62 749 -62 q 786 -74 786 -65 q 779 -85 786 -82 q 761 -87 768 -87 q 722 -68 733 -87 l 301 654 q 297 645 297 654 q 301 618 297 626 l 697 -62 q 765 -107 722 -107 q 810 -89 791 -107 q 829 -42 829 -70 q 814 8 829 -17 l 421 689 q 413 717 413 705 q 429 746 413 735 q 464 757 446 757 q 602 724 533 757 q 711 637 671 692 q 767 464 767 568 q 740 350 767 392 q 708 260 708 288 q 740 185 708 230 q 864 467 864 319 q 839 603 864 531 q 835 621 835 613 q 842 632 835 632 q 854 618 848 632 q 882 472 882 548 q 851 314 882 394 q 754 165 820 234 q 763 151 757 157 z "},"r":{"ha":803,"x_min":-3,"x_max":653,"o":"m 105 564 l 17 714 q -3 786 -3 744 q 36 884 -3 842 q 154 925 76 925 l 345 925 q 489 884 427 925 q 584 774 551 842 q 617 631 617 707 q 587 495 617 559 q 498 388 557 431 l 624 185 q 653 93 653 136 q 612 6 653 39 q 519 -26 572 -26 q 418 28 449 -26 q 256 301 275 267 l 256 103 q 216 9 256 43 q 122 -24 176 -24 q 36 6 73 -24 q 0 89 0 36 l 0 447 q 25 531 0 498 q 105 564 50 564 m 319 678 q 335 651 328 664 q 350 624 343 637 q 367 597 358 611 q 374 622 374 611 q 357 661 374 644 q 319 678 340 678 m 342 307 q 345 262 342 268 l 469 54 q 517 31 483 31 q 569 49 545 31 q 593 95 593 67 q 581 133 593 113 l 455 345 q 407 367 443 367 q 353 331 361 367 q 425 203 383 279 q 487 98 467 127 q 524 68 508 68 q 532 71 527 68 q 542 64 542 71 q 535 54 542 58 q 518 50 526 50 q 481 73 497 50 q 424 171 466 95 q 342 307 382 247 m 231 532 q 339 543 307 532 q 290 628 324 572 q 256 701 256 685 q 274 724 256 718 q 310 730 290 730 q 385 704 351 730 q 418 629 418 677 q 413 592 418 610 q 359 523 398 539 q 260 507 319 507 l 219 507 l 146 507 q 92 502 109 507 q 67 484 74 498 q 60 442 60 471 l 60 100 q 78 54 60 71 q 121 38 96 38 q 171 54 149 38 q 193 97 193 71 l 190 310 q 208 357 190 343 q 251 373 226 371 q 293 375 277 374 q 440 424 382 384 q 525 520 498 463 q 551 637 551 577 q 510 771 551 723 q 427 843 468 819 q 325 868 385 866 l 165 868 q 90 841 119 868 q 61 777 61 815 q 76 724 61 749 l 188 532 l 205 532 l 95 726 q 93 738 93 730 q 97 744 93 744 q 111 735 105 744 l 231 532 m 233 751 q 310 772 267 772 q 432 711 389 772 q 435 701 435 707 q 426 690 435 693 q 418 694 420 690 q 369 735 399 718 q 307 753 338 752 q 253 738 276 753 q 239 733 244 733 q 229 742 229 735 q 233 751 229 749 m 125 74 q 160 108 160 89 l 160 345 q 186 397 160 378 q 244 415 213 415 q 394 444 336 415 q 480 521 451 473 q 521 637 509 570 q 531 653 523 653 q 537 640 537 653 q 456 459 535 526 q 244 393 376 393 q 199 380 222 393 q 176 347 176 367 l 176 103 q 133 54 176 81 q 119 67 119 59 q 125 74 119 72 z "},"s":{"ha":817,"x_min":-25,"x_max":671,"o":"m 95 518 q 42 671 42 593 q 87 817 42 743 q 201 913 126 880 q 356 946 276 946 q 424 939 389 946 q 554 875 512 918 q 597 785 597 832 q 560 703 597 738 q 467 669 523 669 q 367 697 417 669 q 333 706 352 706 q 299 678 299 704 q 322 643 299 657 q 384 612 347 626 q 463 582 421 598 q 535 549 505 567 q 638 445 605 507 q 671 310 671 382 q 646 184 671 244 q 581 82 622 124 q 458 2 528 29 q 311 -25 387 -25 q 113 25 203 -25 q -5 157 24 75 q -25 271 -25 213 q 95 518 -25 416 m 131 475 q 60 390 84 443 q 36 279 36 337 q 61 163 36 217 q 131 82 86 109 q 311 31 213 31 q 446 60 382 31 q 552 140 510 89 q 606 256 595 192 q 610 306 610 280 q 450 526 610 464 q 395 547 428 535 q 339 568 363 558 q 293 592 315 578 q 239 678 239 622 q 265 736 239 713 q 342 760 291 760 q 439 724 368 758 q 461 720 449 720 q 512 738 489 720 q 535 783 535 757 q 478 857 535 823 q 346 890 421 890 q 216 860 276 890 q 125 771 155 829 q 101 669 101 723 q 168 524 101 580 q 178 519 172 519 q 183 524 183 519 q 179 532 183 526 q 172 541 178 535 q 165 549 166 547 q 175 565 165 565 q 185 561 181 565 q 264 497 221 521 q 375 450 308 473 q 385 442 385 448 q 372 429 385 429 q 340 438 353 433 q 304 452 327 443 q 274 464 281 461 q 268 458 268 462 q 276 447 268 450 q 342 425 319 433 q 392 402 364 417 q 442 366 420 388 q 469 318 464 345 q 472 288 472 307 q 429 196 472 231 q 333 160 385 162 q 227 188 276 160 q 178 274 178 216 q 196 345 178 304 q 218 381 201 357 q 239 418 235 406 q 244 446 244 431 q 232 485 244 469 q 196 500 219 500 q 131 475 168 500 m 222 686 q 213 660 220 660 q 203 667 208 660 q 199 686 199 675 q 241 772 204 742 q 328 803 278 803 q 375 794 352 803 q 412 780 386 791 q 452 765 438 769 q 472 760 466 760 q 492 773 487 760 q 497 777 493 777 q 507 760 507 777 q 469 738 493 738 q 417 752 450 739 q 366 771 385 765 q 315 777 347 777 q 251 744 279 777 q 222 686 222 711 m 253 79 q 318 71 286 71 q 440 99 382 71 q 529 176 497 128 q 568 307 568 236 q 498 453 568 403 q 493 461 493 456 q 500 469 493 466 q 512 472 508 472 q 594 311 594 409 q 553 171 594 238 q 456 81 520 114 q 313 48 391 48 q 247 54 276 48 q 228 71 228 57 q 253 79 228 79 m 211 176 q 218 162 218 170 q 210 153 218 153 q 196 160 205 153 q 151 218 163 189 q 139 293 139 247 q 148 330 140 310 q 171 378 156 350 q 194 423 186 406 q 201 453 201 439 q 208 471 201 471 q 228 453 221 471 q 219 418 228 436 q 195 373 211 400 q 171 328 179 347 q 162 278 162 306 q 211 176 162 207 m 282 379 q 243 285 243 330 q 271 233 243 251 q 329 218 293 218 q 388 235 363 218 q 413 288 413 253 q 376 344 411 325 q 282 379 340 364 z "},"t":{"ha":779,"x_min":-62,"x_max":606,"o":"m 142 103 l 142 483 q 132 551 142 530 q 82 606 123 572 q 51 630 62 621 q 17 657 39 639 q -15 686 -4 675 q -35 708 -25 696 q -62 796 -62 746 q -30 887 -62 849 q 65 925 3 925 l 461 925 q 539 906 507 925 q 589 856 572 887 q 606 790 606 825 q 572 703 606 740 q 478 667 538 667 l 370 667 q 393 636 388 657 q 399 569 399 615 l 399 95 q 364 3 399 35 q 279 -29 329 -29 q 213 -13 244 -29 q 161 32 181 2 q 142 103 142 62 m 199 529 l 199 103 q 222 50 199 70 q 275 31 245 31 q 320 48 302 31 q 339 100 339 65 l 339 583 q 322 633 339 614 q 268 680 306 651 q 214 729 230 708 l 469 729 q 525 748 505 729 q 545 793 545 766 q 521 843 545 822 q 455 865 497 865 l 60 865 q 16 844 36 865 q -4 793 -4 822 q 35 722 -4 753 q 90 677 61 701 q 137 638 119 654 q 174 603 155 623 q 199 529 199 578 m 199 606 l 71 714 q 64 725 64 722 q 75 735 64 735 q 82 732 79 735 l 214 618 q 223 604 223 610 q 215 598 223 598 q 199 606 211 598 m 301 583 q 311 610 301 610 q 319 592 319 610 l 319 103 q 308 64 319 82 q 276 46 296 46 q 267 57 267 46 q 271 65 267 65 q 301 100 301 72 l 301 583 m 199 768 l 469 768 q 504 794 504 768 q 512 801 506 801 q 524 792 524 801 q 510 758 521 769 q 467 746 499 746 l 196 746 q 182 755 182 746 q 199 768 182 768 z "},"u":{"ha":654,"x_min":-62,"x_max":561,"o":"m 489 777 l 489 274 q 457 164 489 217 q 369 79 425 112 q 244 46 313 46 q 193 52 228 46 q 176 64 176 55 q 193 71 176 71 q 240 65 212 65 q 347 90 294 65 q 435 164 400 115 q 469 279 469 213 l 469 777 q 478 785 469 785 q 489 777 489 785 m -62 836 q -25 921 -62 891 q 64 951 12 951 q 151 921 114 951 q 188 833 188 890 l 188 325 q 206 257 188 281 q 251 233 225 233 q 290 253 274 233 q 307 307 307 272 l 307 825 q 344 918 307 884 q 432 951 382 951 q 522 915 484 951 q 561 814 561 879 l 561 262 q 518 125 561 191 q 404 19 476 60 q 250 -22 332 -21 q 90 21 161 -22 q -22 133 18 63 q -62 276 -62 202 l -62 836 m 95 803 q 107 821 95 821 q 117 803 117 821 l 117 319 q 157 193 117 233 q 160 185 160 190 q 150 174 160 174 q 139 179 143 174 q 104 232 114 204 q 95 315 95 261 l 95 803 m -5 817 l -5 276 q 28 158 -5 215 q 120 67 61 101 q 253 32 179 32 q 345 54 300 34 q 426 107 391 74 q 481 184 461 141 q 502 274 502 227 l 502 811 q 481 877 502 853 q 433 900 461 900 q 385 875 405 900 q 364 806 364 851 l 364 307 q 329 202 364 240 q 249 164 295 164 q 167 202 201 164 q 133 310 133 241 l 133 822 q 114 881 133 860 q 67 901 94 901 q 16 879 37 901 q -5 817 -5 856 z "},"v":{"ha":808,"x_min":-22,"x_max":669,"o":"m -17 786 q -22 824 -22 806 q -3 889 -22 860 q 46 934 16 918 q 108 950 76 950 q 176 928 146 950 q 217 863 205 907 l 318 504 l 426 857 q 473 926 440 903 q 546 949 505 949 q 632 916 595 949 q 669 832 669 884 q 663 789 669 814 l 455 87 q 399 7 440 36 q 311 -22 359 -22 q 224 6 263 -22 q 171 89 185 35 l -17 786 m 136 803 q 144 826 136 826 q 157 808 153 826 l 301 268 q 293 251 301 251 q 282 262 286 251 l 136 803 m 561 783 q 572 792 563 792 q 581 777 581 792 l 382 111 q 354 78 375 91 q 307 65 333 65 q 292 74 292 65 q 310 82 292 82 q 344 92 328 82 q 364 119 360 103 l 561 783 m 315 296 l 168 840 q 105 887 154 887 q 56 868 78 887 q 35 817 35 848 q 38 794 35 809 l 219 122 q 255 61 230 82 q 310 39 280 39 q 367 61 340 39 q 404 122 393 82 l 610 806 q 612 826 612 812 q 592 871 612 855 q 543 887 571 887 q 480 843 495 887 l 315 296 z "},"w":{"ha":1357,"x_min":-24,"x_max":1165,"o":"m -14 779 q -24 826 -24 803 q 19 916 -24 880 q 115 951 62 951 q 181 933 151 951 q 225 877 210 914 l 396 453 l 415 478 l 299 768 q 286 828 286 801 q 326 901 286 877 q 432 925 366 925 l 711 925 q 849 829 849 925 q 828 746 849 794 l 708 478 l 720 442 l 917 877 q 1032 953 952 953 q 1125 919 1084 953 q 1165 833 1165 885 q 1153 779 1165 809 l 839 68 q 714 -21 800 -21 q 644 -3 676 -21 q 597 43 612 15 l 550 142 l 502 43 q 454 -9 485 9 q 388 -28 422 -28 q 318 -7 351 -28 q 271 54 286 15 l -14 779 m 142 817 q 149 835 142 835 q 162 825 157 835 l 376 276 q 370 258 376 258 q 358 268 362 258 l 142 817 m 393 290 l 171 849 q 110 895 153 895 q 59 874 81 895 q 38 821 38 853 q 43 789 38 804 l 322 79 q 385 38 338 38 q 450 76 432 38 q 514 214 498 174 q 529 288 529 254 l 436 85 q 419 63 432 72 q 392 54 406 54 q 379 57 387 54 q 368 71 368 60 q 385 79 368 79 q 415 95 411 79 l 512 315 q 515 329 515 319 q 498 363 515 348 q 461 379 481 379 q 418 350 434 379 q 404 318 411 338 q 393 290 397 298 m 1074 786 l 763 89 q 708 60 749 60 q 690 70 690 60 q 700 79 690 79 q 743 100 734 79 l 1050 792 q 1067 806 1057 806 q 1076 794 1076 806 q 1074 786 1076 792 m 700 274 q 690 253 700 253 q 678 262 682 253 l 483 738 q 479 758 479 750 q 512 789 479 789 l 594 789 q 607 779 607 789 q 592 765 607 765 l 524 765 q 502 755 502 765 q 507 740 502 752 l 700 274 m 965 849 l 714 293 q 671 395 698 330 q 621 514 644 459 q 575 624 597 569 q 529 735 552 680 q 526 742 526 737 q 600 751 526 751 q 586 683 586 718 q 602 618 586 646 q 637 583 617 590 l 735 789 q 753 806 745 806 q 758 796 758 806 q 754 779 758 789 l 663 578 q 695 602 679 578 q 734 680 710 626 q 782 792 757 734 q 786 814 786 804 q 765 855 786 839 q 714 871 745 871 l 453 871 q 379 863 407 871 q 351 824 351 854 q 361 782 351 805 l 635 89 q 707 36 658 36 q 752 49 730 36 q 782 82 773 62 l 1101 797 q 1107 826 1107 811 q 1085 876 1107 856 q 1033 896 1063 896 q 965 849 987 896 z "},"x":{"ha":800,"x_min":-38,"x_max":646,"o":"m 160 512 l 35 749 q 11 833 11 793 q 50 921 11 888 q 140 953 89 953 q 242 897 211 953 l 310 771 l 379 896 q 482 951 413 951 q 571 919 533 951 q 610 833 610 887 q 586 751 610 794 l 455 512 l 629 193 q 646 131 646 162 q 629 66 646 97 q 583 18 612 36 q 521 0 554 0 l 92 0 q -1 31 37 0 q -38 114 -38 62 q -11 203 -38 154 l 160 512 m 418 851 l 35 174 q 22 126 22 151 q 42 77 22 96 q 85 57 62 57 l 515 57 q 566 79 547 57 q 586 126 586 100 q 581 151 586 142 q 512 280 552 203 q 461 377 472 357 q 439 411 450 398 q 418 424 428 424 l 561 151 q 567 129 567 142 q 553 91 567 107 q 515 74 539 74 l 114 74 q 90 85 90 74 q 114 95 90 95 l 512 95 q 536 104 525 95 q 547 128 547 114 q 543 142 547 136 l 390 424 q 332 349 332 409 q 345 299 332 323 l 388 217 q 393 204 393 206 q 375 199 393 199 l 233 196 q 215 204 215 196 q 219 217 215 211 l 540 786 q 550 820 550 802 q 528 869 550 848 q 476 889 506 889 q 418 851 438 889 m 179 225 l 498 792 q 510 799 502 799 q 518 782 518 799 l 199 214 q 182 197 189 197 q 175 208 175 197 q 179 225 175 216 m 307 288 l 274 233 l 333 233 l 307 288 m 211 540 l 268 637 l 176 822 q 174 829 174 828 q 185 838 174 838 q 196 830 191 838 l 276 675 q 286 668 280 668 q 293 681 293 668 l 201 860 q 149 892 183 892 q 93 869 119 892 q 67 820 67 847 q 74 794 67 808 l 211 540 z "},"y":{"ha":854,"x_min":-48,"x_max":725,"o":"m 203 128 q 194 93 194 108 q 216 47 194 65 q 264 29 237 29 q 328 71 308 29 l 665 763 q 671 792 671 773 q 651 847 669 824 q 597 871 633 871 l 87 871 q 33 847 56 871 q 10 799 10 823 q 14 782 10 788 l 231 370 q 289 333 251 333 q 337 352 315 333 q 358 399 358 371 q 350 432 358 415 l 203 720 q 211 732 203 732 l 483 732 q 492 717 492 732 l 370 461 q 372 445 370 450 q 385 401 385 423 q 359 340 385 368 q 293 307 333 313 l 203 128 m 290 672 l 353 555 l 404 672 l 290 672 m 219 293 q 178 348 209 293 q 76 537 147 403 q -38 749 6 671 q -48 796 -48 771 q -33 857 -48 827 q 12 906 -18 887 q 82 925 42 925 l 586 925 q 691 886 657 925 q 725 792 725 846 q 714 735 725 759 l 376 46 q 330 -5 360 12 q 267 -22 300 -22 q 178 9 216 -22 q 140 92 140 41 q 154 151 140 120 l 219 293 m 43 763 q 39 773 39 769 q 47 783 39 783 q 62 771 56 783 l 262 390 q 301 372 271 372 q 314 365 314 372 q 301 350 314 356 q 289 347 293 347 q 244 375 264 347 l 43 763 m 205 751 q 189 764 189 751 q 203 773 189 773 l 493 773 q 508 763 508 773 q 493 751 508 751 l 205 751 m 626 839 q 646 825 637 837 q 654 800 654 814 q 651 786 654 790 l 313 74 q 291 58 307 65 q 258 52 275 52 q 246 65 246 56 q 265 71 246 71 q 296 89 286 71 l 635 789 q 621 825 635 818 q 615 832 615 825 q 626 839 615 839 z "},"z":{"ha":792,"x_min":-40,"x_max":622,"o":"m 253 678 l 117 678 q 33 715 64 678 q 1 801 1 752 q 35 889 1 852 q 133 925 70 925 l 455 925 q 549 892 516 925 q 582 808 582 858 q 561 732 582 769 l 296 247 l 496 247 q 566 231 537 247 q 608 188 594 215 q 622 131 622 161 q 589 40 622 79 q 502 0 556 0 l 76 0 q -5 35 31 0 q -40 122 -40 70 q -17 203 -40 161 l 253 678 m 350 729 l 35 174 q 21 124 21 149 q 38 74 21 94 q 82 54 55 54 l 496 54 q 541 76 523 54 q 558 126 558 98 q 541 172 558 153 q 486 190 523 190 l 196 190 l 515 760 q 522 793 522 771 q 501 846 522 823 q 432 868 480 868 l 133 868 q 78 850 96 868 q 60 804 60 831 q 77 755 60 777 q 117 732 94 732 l 350 729 m 100 95 l 486 95 q 515 114 511 95 q 526 131 515 131 q 540 111 540 131 q 523 84 536 94 q 493 74 510 74 l 97 74 q 83 82 83 74 q 88 91 83 86 q 100 95 93 95 m 492 757 l 182 199 q 175 196 180 196 q 162 205 162 196 q 165 214 162 210 l 472 760 q 485 769 476 769 q 492 757 492 769 m 142 773 l 342 773 q 361 763 361 773 q 342 751 361 751 l 144 751 q 131 763 131 751 q 142 773 131 773 z "},"{":{"ha":706,"x_min":-19,"x_max":569,"o":"m 196 40 l 196 429 l 92 429 q 11 461 41 429 q -19 533 -19 492 q 11 607 -19 576 q 97 637 42 637 l 199 637 l 199 885 q 304 996 199 996 l 442 996 q 536 964 503 996 q 569 887 569 931 q 537 814 569 845 q 447 783 505 783 l 413 783 l 413 146 l 450 146 q 536 115 506 146 q 567 42 567 85 q 536 -35 567 -2 q 450 -68 505 -68 l 293 -68 q 226 -38 256 -68 q 196 40 196 -7 m 242 54 q 261 6 242 31 q 296 -19 279 -19 l 447 -19 q 497 -3 479 -18 q 515 35 515 13 q 496 74 515 57 q 445 92 477 92 l 358 92 l 358 836 l 445 836 q 499 853 479 836 q 519 892 519 869 q 499 933 519 916 q 442 950 479 950 l 304 950 q 244 877 244 950 l 244 592 l 97 592 q 47 574 65 592 q 29 535 29 557 q 47 495 29 511 q 97 478 65 478 l 242 478 l 242 54 m 345 871 l 439 871 q 465 860 465 871 q 439 849 465 849 l 345 849 l 345 111 q 337 101 345 101 q 329 105 333 101 q 325 114 325 109 l 325 846 q 345 871 325 871 m 304 14 l 461 14 q 483 29 477 14 q 489 33 483 33 q 498 25 498 33 q 485 4 496 13 q 464 -5 473 -5 l 304 -5 q 296 4 296 -5 q 304 14 296 14 m 236 507 q 254 498 254 507 q 236 492 254 492 l 87 492 q 61 501 74 492 q 46 524 48 510 q 54 536 47 536 q 65 526 65 536 q 72 513 65 518 q 89 507 79 507 l 236 507 z "},"|":{"ha":244,"x_min":0,"x_max":233,"o":"m 0 87 l 0 833 q 34 921 0 890 q 115 951 69 951 q 196 921 162 951 q 231 833 231 890 l 233 89 q 198 2 233 34 q 114 -31 162 -31 q 34 1 68 -31 q 0 87 0 32 m 48 95 q 69 43 48 61 q 117 24 89 24 q 161 41 143 24 q 179 92 179 59 l 179 825 q 159 879 179 860 q 111 899 139 899 q 67 880 85 899 q 48 828 48 861 l 48 95 m 162 817 l 162 89 q 155 59 162 75 q 131 38 147 43 q 111 47 111 38 q 125 60 111 56 q 144 97 144 62 l 144 817 q 153 833 144 833 q 162 817 162 833 z "},"}":{"ha":703,"x_min":-26,"x_max":563,"o":"m 347 40 q 333 -17 347 8 q 297 -55 320 -42 q 250 -68 275 -68 l 92 -68 q 7 -35 39 -68 q -24 42 -24 -2 q 7 115 -24 84 q 92 146 37 146 l 131 146 l 131 783 l 95 783 q 6 814 38 783 q -26 886 -26 844 q 7 963 -26 930 q 100 996 40 996 l 242 996 q 345 885 345 996 l 345 637 l 445 637 q 532 606 501 637 q 563 532 563 575 q 533 460 563 491 q 453 429 504 429 l 347 429 l 347 40 m 301 54 l 301 478 l 447 478 q 496 494 478 478 q 514 533 514 511 q 496 574 514 557 q 445 592 477 592 l 299 592 l 299 877 q 242 950 299 950 l 103 950 q 45 933 65 950 q 25 892 25 916 q 44 853 25 869 q 97 836 63 836 l 188 836 l 185 92 l 97 92 q 46 74 65 92 q 28 33 28 56 q 45 -3 28 12 q 95 -19 62 -18 l 247 -19 q 283 5 265 -19 q 301 54 301 30 m 199 871 q 217 846 217 871 l 217 114 q 213 105 217 109 q 205 101 209 101 q 199 111 199 101 l 199 849 l 103 849 q 79 860 79 849 q 105 871 79 871 l 199 871 m 242 14 q 247 5 247 14 q 239 -5 247 -5 l 82 -5 q 58 4 71 -5 q 46 25 46 14 q 54 33 48 33 q 62 29 60 33 q 85 14 69 14 l 242 14 m 307 507 l 455 507 q 473 513 465 507 q 480 526 480 518 q 488 536 483 536 q 496 524 496 536 q 482 500 494 509 q 455 492 471 492 l 307 492 q 289 498 289 492 q 307 507 289 507 z "},"~":{"ha":811,"x_min":26,"x_max":668,"o":"m 79 372 q 243 421 150 421 q 339 410 289 421 q 439 392 422 392 q 518 413 469 392 q 560 421 539 421 q 636 388 605 421 q 668 313 668 355 q 606 219 668 253 q 446 174 524 174 q 325 193 399 174 q 256 203 291 203 q 157 182 211 203 q 126 176 144 176 q 78 191 101 176 q 41 231 55 207 q 26 283 26 256 q 79 372 26 337 m 100 322 q 81 282 81 303 q 94 248 81 262 q 126 235 107 235 q 146 239 136 235 q 257 262 205 262 q 331 253 292 262 q 451 237 400 237 q 581 268 527 237 q 608 314 608 284 q 596 348 608 333 q 563 362 583 362 q 543 358 553 362 q 424 340 483 340 q 333 356 373 340 q 247 372 295 372 q 164 359 204 372 q 100 322 124 346 m 288 331 q 247 332 274 332 q 149 310 186 330 q 128 274 128 296 q 114 260 125 260 q 103 268 105 260 q 117 313 103 302 q 240 353 170 353 q 290 350 254 353 q 308 340 308 348 q 288 331 308 331 m 424 271 q 463 270 437 270 q 553 290 519 272 q 575 318 575 304 q 585 331 577 331 q 592 328 586 331 q 597 314 597 322 q 575 282 597 295 q 464 250 518 250 q 418 253 451 250 q 404 261 404 255 q 424 271 404 271 z "},"Ä":{"ha":911,"x_min":10,"x_max":779,"o":"m 19 151 l 258 851 q 318 925 275 898 q 413 951 362 951 q 500 925 461 951 q 553 849 538 899 l 669 486 q 748 452 717 486 q 779 372 779 418 q 726 276 779 314 l 773 136 q 778 103 778 120 q 758 38 778 68 q 707 -10 739 8 q 642 -28 675 -28 q 583 -11 608 -28 l 307 174 l 262 60 q 213 -1 247 20 q 140 -22 180 -22 q 49 11 88 -22 q 10 99 10 44 q 19 151 10 124 m 247 253 l 188 82 q 169 60 183 69 q 139 52 155 52 q 122 62 122 54 q 144 76 122 76 q 160 84 150 76 q 171 97 169 91 l 228 265 l 193 293 q 157 362 157 318 q 181 426 157 399 q 244 453 205 453 l 290 453 l 367 678 q 380 690 370 690 q 390 672 390 690 l 315 453 l 333 453 l 401 649 l 461 453 l 569 453 l 458 808 q 468 832 458 832 q 480 820 476 832 l 597 453 l 618 453 l 498 828 q 463 873 490 856 q 403 890 435 890 q 346 873 371 890 q 310 822 321 856 l 76 139 q 70 99 70 120 q 90 48 70 66 q 139 29 111 29 q 180 41 161 29 q 205 76 199 53 l 262 242 q 254 248 258 245 q 247 253 250 251 m 396 524 l 379 453 l 418 453 l 396 524 m 678 376 q 686 392 678 392 q 697 382 693 392 q 700 368 700 374 q 689 342 700 353 q 665 331 677 331 l 410 331 q 389 342 389 331 q 407 353 389 351 l 663 353 q 678 376 678 353 m 426 310 l 660 310 q 707 328 690 310 q 724 372 724 347 q 709 415 724 397 q 665 432 693 432 l 247 432 q 201 410 222 432 q 180 361 180 388 q 211 310 180 329 l 600 46 q 646 29 627 29 q 696 55 676 29 q 717 97 717 81 q 691 201 709 146 q 654 258 672 255 l 697 119 q 700 103 700 109 q 685 66 700 82 q 649 50 669 50 q 618 60 632 50 l 244 307 q 227 327 227 318 q 237 333 227 333 q 256 328 248 333 l 626 76 q 650 71 635 71 q 676 96 676 71 q 672 119 676 106 l 626 274 q 600 278 618 278 q 537 236 553 278 q 426 310 476 274 m 306 1018 q 351 1064 351 1023 q 339 1098 351 1084 q 306 1113 327 1113 q 254 1067 254 1113 q 306 1018 254 1018 m 306 981 q 245 1005 271 981 q 218 1061 218 1029 q 242 1122 218 1096 q 303 1148 267 1148 q 363 1122 338 1148 q 389 1064 389 1095 q 362 1007 387 1033 q 306 981 337 981 m 322 1075 q 326 1078 324 1075 q 329 1081 329 1081 q 329 1081 329 1081 q 333 1067 333 1074 q 325 1045 333 1055 q 303 1035 316 1035 q 289 1038 293 1035 q 283 1042 283 1038 q 297 1044 283 1044 q 322 1075 322 1044 m 525 1018 q 568 1064 568 1022 q 525 1110 568 1110 q 471 1064 471 1110 q 487 1031 471 1044 q 525 1018 503 1018 m 519 982 q 462 1006 487 982 q 436 1061 436 1029 q 461 1122 436 1096 q 522 1148 486 1148 q 584 1123 559 1148 q 610 1061 610 1098 q 582 1005 610 1028 q 519 982 555 982 m 539 1075 q 542 1086 539 1086 q 550 1081 546 1086 q 553 1068 553 1072 q 545 1045 553 1055 q 524 1035 537 1035 q 508 1038 514 1035 q 503 1040 503 1038 q 517 1047 503 1047 q 542 1067 542 1047 q 539 1075 542 1069 z "},"Å":{"ha":911,"x_min":10,"x_max":779,"o":"m 19 151 l 258 851 q 318 925 275 898 q 413 951 362 951 q 500 925 461 951 q 553 849 538 899 l 669 486 q 748 452 717 486 q 779 372 779 418 q 726 276 779 314 l 773 136 q 778 103 778 120 q 758 38 778 68 q 707 -10 739 8 q 642 -28 675 -28 q 583 -11 608 -28 l 307 174 l 262 60 q 213 -1 247 20 q 140 -22 180 -22 q 49 11 88 -22 q 10 99 10 44 q 19 151 10 124 m 247 253 l 188 82 q 169 60 183 69 q 139 52 155 52 q 122 62 122 54 q 144 76 122 76 q 160 84 150 76 q 171 97 169 91 l 228 265 l 193 293 q 157 362 157 318 q 181 426 157 399 q 244 453 205 453 l 290 453 l 367 678 q 380 690 370 690 q 390 672 390 690 l 315 453 l 333 453 l 401 649 l 461 453 l 569 453 l 458 808 q 468 832 458 832 q 480 820 476 832 l 597 453 l 618 453 l 498 828 q 463 873 490 856 q 403 890 435 890 q 346 873 371 890 q 310 822 321 856 l 76 139 q 70 99 70 120 q 90 48 70 66 q 139 29 111 29 q 180 41 161 29 q 205 76 199 53 l 262 242 q 254 248 258 245 q 247 253 250 251 m 396 524 l 379 453 l 418 453 l 396 524 m 678 376 q 686 392 678 392 q 697 382 693 392 q 700 368 700 374 q 689 342 700 353 q 665 331 677 331 l 410 331 q 389 342 389 331 q 407 353 389 351 l 663 353 q 678 376 678 353 m 426 310 l 660 310 q 707 328 690 310 q 724 372 724 347 q 709 415 724 397 q 665 432 693 432 l 247 432 q 201 410 222 432 q 180 361 180 388 q 211 310 180 329 l 600 46 q 646 29 627 29 q 696 55 676 29 q 717 97 717 81 q 691 201 709 146 q 654 258 672 255 l 697 119 q 700 103 700 109 q 685 66 700 82 q 649 50 669 50 q 618 60 632 50 l 244 307 q 227 327 227 318 q 237 333 227 333 q 256 328 248 333 l 626 76 q 650 71 635 71 q 676 96 676 71 q 672 119 676 106 l 626 274 q 600 278 618 278 q 537 236 553 278 q 426 310 476 274 m 439 1107 q 427 1113 438 1107 q 407 1119 416 1119 q 388 1113 396 1119 q 372 1082 372 1101 q 382 1056 372 1067 q 406 1046 390 1046 q 436 1058 424 1046 q 446 1079 446 1068 q 442 1096 446 1087 q 439 1107 439 1105 m 442 1125 q 450 1122 447 1122 q 463 1136 463 1122 q 457 1147 463 1143 q 408 1164 434 1164 q 366 1152 385 1164 q 337 1121 348 1140 q 329 1082 329 1100 q 353 1026 329 1049 q 410 1003 378 1003 q 436 1007 424 1003 q 492 1082 492 1028 q 476 1128 492 1111 l 465 1128 q 457 1121 459 1122 q 458 1115 457 1119 q 460 1107 458 1111 q 465 1082 465 1096 q 448 1043 465 1059 q 408 1026 430 1026 q 390 1030 398 1026 q 354 1083 354 1046 q 374 1124 354 1106 q 407 1136 386 1136 q 442 1125 427 1136 m 454 1131 q 453 1134 454 1132 q 451 1136 452 1136 l 447 1136 q 413 1146 432 1146 q 357 1121 377 1146 q 345 1082 345 1104 q 368 1033 345 1051 q 374 1036 374 1033 q 351 1082 351 1054 q 362 1115 351 1102 q 408 1139 384 1139 q 445 1128 424 1139 q 454 1131 451 1128 m 388 1017 q 411 1014 396 1014 q 461 1033 441 1014 q 482 1081 482 1052 q 474 1113 482 1096 q 476 1119 474 1117 q 479 1115 477 1119 q 488 1083 488 1101 q 465 1030 488 1054 q 411 1007 442 1007 q 385 1011 399 1007 q 388 1017 385 1017 m 482 1144 q 511 1096 503 1144 q 482 1013 511 1046 q 410 981 453 981 q 360 993 385 981 q 311 1081 311 1019 q 331 1140 311 1113 q 388 1178 350 1167 q 408 1181 400 1181 q 457 1170 435 1181 q 482 1144 480 1160 z "},"Ç":{"ha":944,"x_min":-25,"x_max":789,"o":"m 660 746 q 671 743 667 743 q 689 765 689 743 q 681 789 689 782 q 678 796 678 794 q 692 806 678 806 q 706 797 701 806 q 712 769 712 785 q 699 735 712 749 q 668 722 686 722 q 651 726 660 722 q 642 740 642 734 q 660 746 642 746 m 318 76 q 304 90 304 82 q 317 97 304 97 q 336 92 327 97 q 471 62 391 62 q 564 73 518 62 q 639 104 609 84 q 675 149 669 124 q 692 172 683 172 q 703 149 703 172 q 668 96 702 120 q 579 56 634 71 q 468 42 525 42 q 318 76 382 42 m 268 219 q 280 201 280 211 q 272 193 280 193 q 258 199 264 193 q 136 447 136 309 q 188 629 136 536 q 261 712 212 674 q 371 772 310 750 q 486 793 431 793 q 553 783 517 793 q 572 771 572 781 q 560 763 572 763 q 546 765 557 763 q 482 775 515 775 q 321 729 402 775 q 203 618 241 684 q 157 453 157 535 q 268 219 157 323 m 379 -28 q 81 134 185 13 q -25 429 -23 255 q 42 688 -25 568 q 223 878 108 808 q 474 949 338 949 q 686 903 578 949 q 763 843 738 881 q 789 765 789 806 q 758 682 789 718 q 676 647 726 647 q 606 665 642 647 q 476 699 536 699 q 352 662 408 699 q 267 569 297 626 q 236 455 236 512 q 268 342 236 396 q 355 256 299 289 q 475 223 410 223 q 606 258 544 223 q 668 275 635 275 q 749 238 717 275 q 781 153 781 201 q 722 48 781 87 q 618 -13 654 4 q 529 -32 583 -29 l 507 -82 q 583 -114 560 -82 q 606 -185 606 -146 q 442 -342 606 -342 q 324 -306 352 -338 q 296 -242 296 -273 q 347 -182 301 -186 q 332 -153 332 -174 q 342 -117 332 -136 l 379 -28 m 496 25 q 686 92 596 31 q 724 153 724 118 q 705 197 724 179 q 659 215 686 215 q 621 205 638 215 q 464 167 546 167 q 320 206 385 167 q 216 309 254 244 q 176 450 178 374 q 215 597 176 527 q 323 710 254 667 q 475 753 391 753 q 643 708 556 753 q 671 701 660 701 q 713 722 695 701 q 730 769 730 743 q 663 851 730 827 q 475 889 570 889 q 301 853 382 889 q 160 753 220 817 q 67 608 100 690 q 35 439 35 527 q 73 277 37 353 q 170 145 109 201 q 306 58 230 90 q 461 25 381 27 l 393 -125 q 388 -143 388 -134 q 435 -162 388 -162 q 484 -172 469 -166 q 498 -205 498 -178 q 455 -242 498 -242 q 407 -231 435 -242 q 364 -219 379 -219 q 350 -227 355 -219 q 345 -244 345 -234 q 382 -280 345 -266 q 455 -293 419 -293 q 526 -265 498 -293 q 553 -190 553 -237 q 471 -122 553 -122 q 435 -125 466 -122 l 496 25 m 524 -142 q 541 -161 534 -147 q 549 -188 549 -174 q 523 -256 549 -225 q 453 -288 498 -288 q 432 -285 436 -288 q 428 -280 428 -283 q 435 -276 428 -276 q 444 -278 436 -276 q 455 -279 451 -279 q 514 -253 490 -279 q 540 -188 538 -228 q 532 -163 540 -175 q 515 -144 525 -150 q 517 -139 515 -139 q 524 -142 518 -139 z "},"É":{"ha":768,"x_min":-29,"x_max":615,"o":"m 122 615 l 17 708 q -29 812 -29 748 q -14 878 -29 847 q 34 926 2 908 q 111 944 65 944 l 467 944 q 559 906 524 944 q 594 817 594 868 q 553 723 594 762 q 429 683 511 683 l 537 583 q 575 490 575 548 q 539 394 575 435 q 439 353 503 353 l 271 353 l 271 231 l 498 228 q 584 189 552 228 q 615 100 615 151 q 581 10 615 47 q 480 -28 546 -28 l 122 -28 q 3 103 3 -28 l 3 483 q 31 569 3 531 q 122 615 59 607 m 136 32 l 486 32 q 539 54 519 32 q 558 104 558 75 q 539 153 558 133 q 483 174 519 174 l 271 174 q 208 222 208 174 l 208 353 q 262 410 208 410 l 424 410 q 483 434 457 410 q 508 493 508 459 q 469 564 508 532 l 256 746 l 439 746 q 508 768 484 746 q 533 820 533 789 q 513 866 533 847 q 453 885 492 885 l 128 885 q 56 865 81 885 q 32 815 32 845 q 79 729 32 770 l 293 550 l 133 550 q 83 527 101 550 q 65 478 65 504 l 65 119 q 78 57 65 82 q 136 32 90 32 m 146 74 l 483 71 q 503 78 492 71 q 515 97 514 85 q 520 107 515 102 q 531 113 525 113 q 537 95 537 113 q 516 62 533 76 q 483 48 498 48 l 146 48 q 131 61 131 48 q 146 74 131 74 m 190 201 q 179 172 190 172 q 168 201 168 172 l 168 376 q 191 429 168 408 q 242 450 214 450 l 426 453 q 450 465 437 453 q 464 489 462 476 q 475 502 468 502 q 486 483 486 502 q 467 447 486 462 q 429 432 448 432 l 253 432 q 211 418 231 432 q 190 375 190 404 l 190 201 m 313 592 q 317 583 317 588 q 307 574 317 574 q 293 581 302 574 l 203 654 q 194 668 194 661 q 205 678 194 678 q 217 672 211 678 l 313 592 m 228 740 q 236 724 236 734 q 229 715 236 715 q 214 724 224 715 l 174 757 q 168 769 168 763 q 190 783 168 783 l 455 783 q 478 792 466 783 q 493 811 490 800 q 503 824 495 824 q 509 820 506 824 q 512 814 512 817 q 494 777 512 791 q 450 763 475 763 l 203 763 l 228 740 m 208 1131 l 314 1242 q 390 1278 346 1278 q 453 1252 426 1278 q 479 1192 479 1227 q 451 1128 479 1157 l 335 1003 q 276 978 312 978 q 210 1005 240 978 q 179 1067 179 1031 q 208 1131 179 1101 m 246 1096 q 235 1068 235 1085 q 246 1042 236 1053 q 272 1032 256 1032 q 303 1047 289 1032 l 411 1158 q 424 1187 424 1171 q 412 1214 424 1203 q 386 1225 401 1225 q 360 1213 372 1225 l 246 1096 m 289 1079 l 379 1171 q 390 1190 390 1184 q 386 1201 390 1195 q 396 1214 386 1214 q 408 1207 403 1214 q 413 1189 413 1200 q 408 1171 413 1178 l 306 1065 q 293 1057 299 1057 q 285 1067 285 1057 q 289 1079 285 1075 z "},"Ñ":{"ha":800,"x_min":3,"x_max":763,"o":"m 3 822 q 39 912 3 872 q 128 951 76 951 q 279 846 210 951 l 493 515 l 493 820 q 534 918 493 882 q 629 954 574 954 q 723 918 683 954 q 763 817 763 882 l 763 139 q 716 28 763 58 q 612 -3 669 -3 l 122 -3 q 36 28 68 -3 q 3 119 3 59 l 3 822 m 62 125 q 83 73 62 90 q 133 57 104 57 l 600 57 q 677 82 650 57 q 703 139 703 106 l 703 820 q 680 877 703 857 q 626 897 657 897 q 574 878 596 897 q 553 825 553 859 l 553 483 q 603 288 553 358 q 621 232 621 260 q 593 170 621 196 q 526 144 564 144 q 436 190 474 144 l 239 190 q 201 250 201 190 l 201 581 l 458 208 q 531 165 488 165 q 577 183 558 165 q 597 229 597 201 q 581 276 597 252 l 214 833 q 125 897 173 897 q 80 876 98 897 q 62 822 62 855 l 62 125 m 262 396 l 262 274 q 268 259 262 268 q 290 250 274 250 l 358 250 l 262 396 m 160 603 q 170 614 160 614 q 180 609 175 614 q 185 597 185 605 l 185 208 q 174 196 185 196 q 160 208 160 196 l 160 603 m 176 820 q 174 830 174 824 q 182 840 174 840 q 199 828 191 840 l 575 256 q 582 232 582 243 q 569 199 582 218 q 558 190 563 190 q 549 194 553 190 q 546 203 546 199 q 549 208 546 203 q 557 231 557 221 q 540 268 557 240 l 176 820 m 663 783 q 672 817 663 817 q 682 808 678 817 q 686 786 686 799 l 686 136 q 661 87 686 103 q 606 71 636 71 l 149 71 q 125 82 125 71 q 149 95 125 95 l 612 95 q 650 106 637 95 q 663 133 663 117 l 663 783 m 221 1104 q 319 1133 263 1133 q 378 1126 346 1133 q 437 1115 421 1115 q 486 1126 458 1115 q 511 1132 497 1132 q 555 1112 537 1132 q 574 1065 574 1092 q 535 1007 574 1028 q 442 981 494 981 q 361 993 408 981 q 327 997 347 997 q 272 985 304 996 q 253 981 262 981 q 209 1002 228 981 q 190 1050 190 1024 q 221 1104 190 1085 m 240 1067 q 231 1050 231 1063 q 238 1031 231 1040 q 254 1022 245 1022 q 264 1025 260 1022 q 327 1042 302 1042 q 372 1033 348 1042 q 436 1022 403 1022 q 517 1042 478 1022 q 533 1067 533 1052 q 526 1081 533 1075 q 508 1087 519 1087 q 494 1085 503 1087 q 435 1075 459 1075 q 375 1085 410 1075 q 335 1092 359 1092 q 240 1067 290 1092 m 346 1072 q 270 1058 315 1072 q 259 1054 264 1058 q 253 1044 253 1050 q 246 1038 251 1038 q 240 1047 240 1038 q 261 1069 244 1064 q 346 1085 307 1085 q 357 1079 357 1085 q 346 1072 357 1072 m 426 1042 q 500 1056 471 1042 q 514 1069 510 1059 q 518 1074 514 1074 q 522 1069 522 1074 q 525 1064 525 1067 q 511 1047 525 1054 q 424 1030 476 1030 q 415 1035 415 1030 q 426 1042 415 1042 z "},"Ö":{"ha":1113,"x_min":-28,"x_max":944,"o":"m 313 663 q 288 612 313 651 q 247 536 263 572 q 231 454 231 499 q 276 319 231 384 q 461 228 341 228 q 533 238 498 228 q 596 269 567 249 q 646 319 625 290 q 696 468 696 394 q 615 632 696 565 q 471 693 545 693 q 428 689 448 693 q 383 677 408 685 q 342 666 358 670 q 313 663 327 663 m 199 800 q 287 911 199 877 q 486 944 375 944 q 654 908 572 944 q 801 807 735 872 q 906 652 867 741 q 944 461 944 564 q 891 229 943 325 q 759 78 838 133 q 601 -1 681 22 q 464 -25 521 -25 q 273 15 363 -24 q 115 120 182 54 q 11 267 48 186 q -28 432 -27 349 q -14 557 -28 493 q 30 676 0 621 q 101 765 59 731 q 199 800 144 798 m 208 760 q 121 718 162 759 q 54 608 80 676 q 29 463 29 539 q 53 319 29 390 q 130 186 77 249 q 268 79 184 123 q 455 33 353 33 q 659 85 562 33 q 819 237 756 136 q 887 475 882 337 q 856 621 887 548 q 768 753 825 694 q 633 848 710 813 q 468 883 556 883 q 304 851 387 883 q 253 818 270 839 q 236 775 236 798 q 256 729 236 748 q 306 710 276 710 q 345 720 325 710 q 468 749 408 749 q 608 711 543 749 q 712 609 673 674 q 751 468 751 545 q 743 401 751 434 q 634 231 715 292 q 455 171 554 171 q 334 198 392 171 q 236 276 276 225 q 171 453 171 362 q 189 548 171 504 q 228 624 207 593 q 261 672 250 656 q 265 686 265 681 q 261 700 265 694 q 249 712 257 706 q 236 724 241 719 q 227 743 234 726 q 208 760 220 760 m 268 746 q 304 726 283 726 q 353 743 315 726 q 465 764 405 764 q 700 651 600 764 q 706 649 703 649 q 717 667 717 649 q 469 787 608 787 q 345 763 407 787 q 306 749 314 749 q 282 763 292 749 q 272 769 277 769 q 264 758 264 769 q 268 746 264 754 m 840 535 q 844 548 840 542 q 853 554 849 554 q 863 540 858 554 q 867 476 867 507 q 833 306 867 384 q 740 171 799 229 q 606 83 681 114 q 454 53 531 53 q 313 82 380 53 q 297 96 297 87 q 308 103 297 103 q 318 100 310 103 q 446 76 374 76 q 586 100 515 76 q 714 173 656 124 q 808 300 772 222 q 843 480 843 377 q 840 535 843 499 m 253 203 q 265 199 257 199 q 274 208 274 199 q 271 217 274 214 q 157 453 157 313 q 179 570 157 513 q 236 663 201 627 q 242 675 242 668 q 235 685 242 685 q 217 669 228 685 q 136 454 136 573 q 167 315 136 381 q 253 203 198 248 m 347 1018 q 393 1064 393 1023 q 381 1098 393 1084 q 347 1113 369 1113 q 296 1067 296 1113 q 309 1032 296 1046 q 347 1018 322 1018 m 347 981 q 286 1005 313 981 q 260 1061 260 1029 q 284 1122 260 1096 q 345 1148 309 1148 q 405 1122 379 1148 q 431 1064 431 1095 q 404 1007 429 1033 q 347 981 378 981 m 364 1075 q 368 1078 366 1075 q 371 1081 371 1081 q 371 1081 371 1081 q 375 1067 375 1074 q 366 1045 375 1055 q 345 1035 357 1035 q 331 1038 335 1035 q 325 1042 325 1038 q 339 1044 325 1044 q 364 1075 364 1044 m 567 1018 q 610 1064 610 1022 q 567 1110 610 1110 q 512 1064 512 1110 q 528 1031 512 1045 q 567 1018 545 1018 m 561 982 q 503 1006 529 982 q 478 1061 478 1029 q 503 1122 478 1096 q 564 1148 528 1148 q 626 1123 601 1148 q 651 1061 651 1098 q 624 1005 651 1028 q 561 982 596 982 m 581 1075 q 583 1086 581 1086 q 592 1081 588 1086 q 594 1068 594 1072 q 586 1045 594 1055 q 565 1035 578 1035 q 550 1038 555 1035 q 545 1040 545 1038 q 558 1047 545 1047 q 583 1067 583 1047 q 581 1075 583 1069 z "},"Ü":{"ha":654,"x_min":-62,"x_max":561,"o":"m 489 777 l 489 274 q 457 164 489 217 q 369 79 425 112 q 244 46 313 46 q 193 52 228 46 q 176 64 176 55 q 193 71 176 71 q 240 65 212 65 q 347 90 294 65 q 435 164 400 115 q 469 279 469 213 l 469 777 q 478 785 469 785 q 489 777 489 785 m -62 836 q -25 921 -62 891 q 64 951 12 951 q 151 921 114 951 q 188 833 188 890 l 188 325 q 206 257 188 281 q 251 233 225 233 q 290 253 274 233 q 307 307 307 272 l 307 825 q 344 918 307 884 q 432 951 382 951 q 522 915 484 951 q 561 814 561 879 l 561 262 q 518 125 561 191 q 404 19 476 60 q 250 -22 332 -21 q 90 21 161 -22 q -22 133 18 63 q -62 276 -62 202 l -62 836 m 95 803 q 107 821 95 821 q 117 803 117 821 l 117 319 q 157 193 117 233 q 160 185 160 190 q 150 174 160 174 q 139 179 143 174 q 104 232 114 204 q 95 315 95 261 l 95 803 m -5 817 l -5 276 q 28 158 -5 215 q 120 67 61 101 q 253 32 179 32 q 345 54 300 34 q 426 107 391 74 q 481 184 461 141 q 502 274 502 227 l 502 811 q 481 877 502 853 q 433 900 461 900 q 385 875 405 900 q 364 806 364 851 l 364 307 q 329 202 364 240 q 249 164 295 164 q 167 202 201 164 q 133 310 133 241 l 133 822 q 114 881 133 860 q 67 901 94 901 q 16 879 37 901 q -5 817 -5 856 m 168 1018 q 214 1064 214 1023 q 202 1098 214 1084 q 168 1113 190 1113 q 117 1067 117 1113 q 168 1018 117 1018 m 168 981 q 107 1005 134 981 q 81 1061 81 1029 q 105 1122 81 1096 q 165 1148 129 1148 q 226 1122 200 1148 q 251 1064 251 1096 q 224 1007 249 1033 q 168 981 199 981 m 185 1075 q 189 1078 186 1075 q 192 1081 191 1081 q 192 1081 192 1081 q 196 1067 196 1074 q 187 1045 196 1055 q 165 1035 178 1035 q 151 1038 156 1035 q 146 1042 146 1038 q 160 1044 146 1044 q 185 1075 185 1044 m 388 1018 q 431 1064 431 1022 q 388 1110 431 1110 q 333 1064 333 1110 q 349 1031 333 1045 q 388 1018 366 1018 m 382 982 q 324 1006 349 982 q 299 1061 299 1029 q 310 1104 299 1084 q 341 1136 321 1124 q 385 1148 361 1148 q 447 1123 421 1148 q 472 1061 472 1098 q 445 1005 472 1027 q 382 982 417 982 m 401 1075 q 404 1086 401 1086 q 413 1081 409 1086 q 415 1068 415 1072 q 407 1045 415 1055 q 386 1035 399 1035 q 371 1038 376 1035 q 365 1040 365 1038 q 379 1047 365 1047 q 404 1067 404 1047 q 401 1075 404 1069 z "},"á":{"ha":911,"x_min":10,"x_max":779,"o":"m 19 151 l 258 851 q 318 925 275 898 q 413 951 362 951 q 500 925 461 951 q 553 849 538 899 l 669 486 q 748 452 717 486 q 779 372 779 418 q 726 276 779 314 l 773 136 q 778 103 778 120 q 758 38 778 68 q 707 -10 739 8 q 642 -28 675 -28 q 583 -11 608 -28 l 307 174 l 262 60 q 213 -1 247 20 q 140 -22 180 -22 q 49 11 88 -22 q 10 99 10 44 q 19 151 10 124 m 247 253 l 188 82 q 169 60 183 69 q 139 52 155 52 q 122 62 122 54 q 144 76 122 76 q 160 84 150 76 q 171 97 169 91 l 228 265 l 193 293 q 157 362 157 318 q 181 426 157 399 q 244 453 205 453 l 290 453 l 367 678 q 380 690 370 690 q 390 672 390 690 l 315 453 l 333 453 l 401 649 l 461 453 l 569 453 l 458 808 q 468 832 458 832 q 480 820 476 832 l 597 453 l 618 453 l 498 828 q 463 873 490 856 q 403 890 435 890 q 346 873 371 890 q 310 822 321 856 l 76 139 q 70 99 70 120 q 90 48 70 66 q 139 29 111 29 q 180 41 161 29 q 205 76 199 53 l 262 242 q 254 248 258 245 q 247 253 250 251 m 396 524 l 379 453 l 418 453 l 396 524 m 678 376 q 686 392 678 392 q 697 382 693 392 q 700 368 700 374 q 689 342 700 353 q 665 331 677 331 l 410 331 q 389 342 389 331 q 407 353 389 351 l 663 353 q 678 376 678 353 m 426 310 l 660 310 q 707 328 690 310 q 724 372 724 347 q 709 415 724 397 q 665 432 693 432 l 247 432 q 201 410 222 432 q 180 361 180 388 q 211 310 180 329 l 600 46 q 646 29 627 29 q 696 55 676 29 q 717 97 717 81 q 691 201 709 146 q 654 258 672 255 l 697 119 q 700 103 700 109 q 685 66 700 82 q 649 50 669 50 q 618 60 632 50 l 244 307 q 227 327 227 318 q 237 333 227 333 q 256 328 248 333 l 626 76 q 650 71 635 71 q 676 96 676 71 q 672 119 676 106 l 626 274 q 600 278 618 278 q 537 236 553 278 q 426 310 476 274 m 307 1131 l 412 1242 q 489 1278 445 1278 q 551 1252 525 1278 q 578 1192 578 1227 q 550 1128 578 1158 l 433 1003 q 375 978 410 978 q 308 1005 338 978 q 278 1067 278 1031 q 307 1131 278 1102 m 344 1096 q 333 1068 333 1085 q 345 1043 334 1053 q 371 1032 356 1032 q 401 1047 388 1032 l 510 1158 q 522 1187 522 1171 q 511 1214 522 1203 q 485 1225 499 1225 q 458 1213 471 1225 l 344 1096 m 387 1079 l 478 1171 q 489 1190 489 1184 q 485 1201 489 1195 q 494 1214 485 1214 q 507 1207 502 1214 q 511 1189 511 1201 q 507 1171 511 1177 l 404 1065 q 392 1057 398 1057 q 383 1067 383 1057 q 387 1079 383 1075 z "},"à":{"ha":911,"x_min":10,"x_max":779,"o":"m 19 151 l 258 851 q 318 925 275 898 q 413 951 362 951 q 500 925 461 951 q 553 849 538 899 l 669 486 q 748 452 717 486 q 779 372 779 418 q 726 276 779 314 l 773 136 q 778 103 778 120 q 758 38 778 68 q 707 -10 739 8 q 642 -28 675 -28 q 583 -11 608 -28 l 307 174 l 262 60 q 213 -1 247 20 q 140 -22 180 -22 q 49 11 88 -22 q 10 99 10 44 q 19 151 10 124 m 247 253 l 188 82 q 169 60 183 69 q 139 52 155 52 q 122 62 122 54 q 144 76 122 76 q 160 84 150 76 q 171 97 169 91 l 228 265 l 193 293 q 157 362 157 318 q 181 426 157 399 q 244 453 205 453 l 290 453 l 367 678 q 380 690 370 690 q 390 672 390 690 l 315 453 l 333 453 l 401 649 l 461 453 l 569 453 l 458 808 q 468 832 458 832 q 480 820 476 832 l 597 453 l 618 453 l 498 828 q 463 873 490 856 q 403 890 435 890 q 346 873 371 890 q 310 822 321 856 l 76 139 q 70 99 70 120 q 90 48 70 66 q 139 29 111 29 q 180 41 161 29 q 205 76 199 53 l 262 242 q 254 248 258 245 q 247 253 250 251 m 396 524 l 379 453 l 418 453 l 396 524 m 678 376 q 686 392 678 392 q 697 382 693 392 q 700 368 700 374 q 689 342 700 353 q 665 331 677 331 l 410 331 q 389 342 389 331 q 407 353 389 351 l 663 353 q 678 376 678 353 m 426 310 l 660 310 q 707 328 690 310 q 724 372 724 347 q 709 415 724 397 q 665 432 693 432 l 247 432 q 201 410 222 432 q 180 361 180 388 q 211 310 180 329 l 600 46 q 646 29 627 29 q 696 55 676 29 q 717 97 717 81 q 691 201 709 146 q 654 258 672 255 l 697 119 q 700 103 700 109 q 685 66 700 82 q 649 50 669 50 q 618 60 632 50 l 244 307 q 227 327 227 318 q 237 333 227 333 q 256 328 248 333 l 626 76 q 650 71 635 71 q 676 96 676 71 q 672 119 676 106 l 626 274 q 600 278 618 278 q 537 236 553 278 q 426 310 476 274 m 372 1253 l 484 1147 q 519 1071 519 1111 q 493 1008 519 1035 q 431 981 466 981 q 367 1008 397 981 l 242 1125 q 217 1182 217 1146 q 244 1251 217 1219 q 309 1282 272 1282 q 372 1253 343 1282 m 336 1215 q 310 1226 325 1226 q 283 1214 294 1225 q 272 1187 272 1203 q 288 1156 272 1171 l 399 1050 q 429 1036 412 1036 q 455 1047 444 1036 q 465 1074 465 1059 q 453 1101 465 1089 l 336 1215 m 317 1171 l 413 1082 q 431 1069 423 1069 q 439 1074 434 1069 q 453 1067 453 1074 q 445 1053 453 1059 q 428 1049 438 1049 q 413 1053 417 1049 l 307 1153 q 297 1167 297 1159 q 307 1175 297 1175 q 317 1171 313 1175 z "},"â":{"ha":911,"x_min":10,"x_max":779,"o":"m 19 151 l 258 851 q 318 925 275 898 q 413 951 362 951 q 500 925 461 951 q 553 849 538 899 l 669 486 q 748 452 717 486 q 779 372 779 418 q 726 276 779 314 l 773 136 q 778 103 778 120 q 758 38 778 68 q 707 -10 739 8 q 642 -28 675 -28 q 583 -11 608 -28 l 307 174 l 262 60 q 213 -1 247 20 q 140 -22 180 -22 q 49 11 88 -22 q 10 99 10 44 q 19 151 10 124 m 247 253 l 188 82 q 169 60 183 69 q 139 52 155 52 q 122 62 122 54 q 144 76 122 76 q 160 84 150 76 q 171 97 169 91 l 228 265 l 193 293 q 157 362 157 318 q 181 426 157 399 q 244 453 205 453 l 290 453 l 367 678 q 380 690 370 690 q 390 672 390 690 l 315 453 l 333 453 l 401 649 l 461 453 l 569 453 l 458 808 q 468 832 458 832 q 480 820 476 832 l 597 453 l 618 453 l 498 828 q 463 873 490 856 q 403 890 435 890 q 346 873 371 890 q 310 822 321 856 l 76 139 q 70 99 70 120 q 90 48 70 66 q 139 29 111 29 q 180 41 161 29 q 205 76 199 53 l 262 242 q 254 248 258 245 q 247 253 250 251 m 396 524 l 379 453 l 418 453 l 396 524 m 678 376 q 686 392 678 392 q 697 382 693 392 q 700 368 700 374 q 689 342 700 353 q 665 331 677 331 l 410 331 q 389 342 389 331 q 407 353 389 351 l 663 353 q 678 376 678 353 m 426 310 l 660 310 q 707 328 690 310 q 724 372 724 347 q 709 415 724 397 q 665 432 693 432 l 247 432 q 201 410 222 432 q 180 361 180 388 q 211 310 180 329 l 600 46 q 646 29 627 29 q 696 55 676 29 q 717 97 717 81 q 691 201 709 146 q 654 258 672 255 l 697 119 q 700 103 700 109 q 685 66 700 82 q 649 50 669 50 q 618 60 632 50 l 244 307 q 227 327 227 318 q 237 333 227 333 q 256 328 248 333 l 626 76 q 650 71 635 71 q 676 96 676 71 q 672 119 676 106 l 626 274 q 600 278 618 278 q 537 236 553 278 q 426 310 476 274 m 360 1204 q 408 1221 379 1221 q 455 1204 436 1221 l 558 1101 q 581 1053 581 1079 q 556 1000 581 1024 q 503 977 532 977 q 461 993 480 977 l 422 1031 q 407 1039 412 1039 q 390 1028 401 1039 l 360 997 q 314 978 342 978 q 262 999 285 978 q 239 1049 239 1019 q 271 1114 239 1084 l 360 1204 m 292 1077 q 283 1056 283 1068 q 292 1033 283 1043 q 315 1022 302 1022 q 339 1034 328 1022 l 396 1090 q 406 1100 404 1100 q 417 1093 410 1100 l 485 1028 q 506 1020 495 1020 q 528 1030 518 1020 q 537 1053 537 1040 q 528 1074 537 1066 l 436 1164 q 407 1182 414 1182 q 376 1164 393 1182 l 292 1077 m 308 1034 q 309 1043 308 1037 q 311 1050 309 1048 q 325 1053 322 1050 l 374 1101 q 380 1103 376 1103 q 389 1099 389 1103 q 385 1090 389 1095 l 333 1042 q 308 1034 325 1034 m 428 1139 q 424 1147 424 1143 q 429 1154 424 1154 q 436 1150 432 1154 l 521 1065 q 525 1042 525 1063 q 517 1036 525 1036 q 510 1042 510 1036 q 507 1057 510 1053 l 428 1139 z "},"ä":{"ha":911,"x_min":10,"x_max":779,"o":"m 19 151 l 258 851 q 318 925 275 898 q 413 951 362 951 q 500 925 461 951 q 553 849 538 899 l 669 486 q 748 452 717 486 q 779 372 779 418 q 726 276 779 314 l 773 136 q 778 103 778 120 q 758 38 778 68 q 707 -10 739 8 q 642 -28 675 -28 q 583 -11 608 -28 l 307 174 l 262 60 q 213 -1 247 20 q 140 -22 180 -22 q 49 11 88 -22 q 10 99 10 44 q 19 151 10 124 m 247 253 l 188 82 q 169 60 183 69 q 139 52 155 52 q 122 62 122 54 q 144 76 122 76 q 160 84 150 76 q 171 97 169 91 l 228 265 l 193 293 q 157 362 157 318 q 181 426 157 399 q 244 453 205 453 l 290 453 l 367 678 q 380 690 370 690 q 390 672 390 690 l 315 453 l 333 453 l 401 649 l 461 453 l 569 453 l 458 808 q 468 832 458 832 q 480 820 476 832 l 597 453 l 618 453 l 498 828 q 463 873 490 856 q 403 890 435 890 q 346 873 371 890 q 310 822 321 856 l 76 139 q 70 99 70 120 q 90 48 70 66 q 139 29 111 29 q 180 41 161 29 q 205 76 199 53 l 262 242 q 254 248 258 245 q 247 253 250 251 m 396 524 l 379 453 l 418 453 l 396 524 m 678 376 q 686 392 678 392 q 697 382 693 392 q 700 368 700 374 q 689 342 700 353 q 665 331 677 331 l 410 331 q 389 342 389 331 q 407 353 389 351 l 663 353 q 678 376 678 353 m 426 310 l 660 310 q 707 328 690 310 q 724 372 724 347 q 709 415 724 397 q 665 432 693 432 l 247 432 q 201 410 222 432 q 180 361 180 388 q 211 310 180 329 l 600 46 q 646 29 627 29 q 696 55 676 29 q 717 97 717 81 q 691 201 709 146 q 654 258 672 255 l 697 119 q 700 103 700 109 q 685 66 700 82 q 649 50 669 50 q 618 60 632 50 l 244 307 q 227 327 227 318 q 237 333 227 333 q 256 328 248 333 l 626 76 q 650 71 635 71 q 676 96 676 71 q 672 119 676 106 l 626 274 q 600 278 618 278 q 537 236 553 278 q 426 310 476 274 m 296 1018 q 342 1064 342 1023 q 330 1098 342 1084 q 296 1113 317 1113 q 244 1067 244 1113 q 296 1018 244 1018 m 296 981 q 235 1005 261 981 q 208 1061 208 1029 q 233 1123 208 1096 q 293 1149 258 1149 q 354 1122 328 1149 q 379 1064 379 1096 q 352 1007 377 1033 q 296 981 327 981 m 313 1075 q 317 1078 314 1075 q 319 1081 319 1081 q 319 1081 319 1081 q 323 1067 323 1075 q 315 1045 323 1055 q 293 1035 307 1035 q 279 1038 283 1035 q 274 1042 274 1038 q 288 1044 274 1044 q 313 1075 313 1044 m 515 1018 q 558 1064 558 1022 q 515 1110 558 1110 q 461 1064 461 1110 q 477 1031 461 1045 q 515 1018 493 1018 m 510 982 q 452 1006 477 982 q 427 1061 427 1030 q 452 1122 427 1096 q 512 1149 477 1149 q 575 1123 549 1149 q 600 1061 600 1098 q 573 1005 600 1028 q 510 982 545 982 m 529 1075 q 532 1086 529 1086 q 540 1081 536 1086 q 543 1068 543 1073 q 535 1045 543 1055 q 514 1035 527 1035 q 499 1038 504 1035 q 493 1040 493 1038 q 507 1047 493 1047 q 532 1067 532 1047 q 529 1075 532 1069 z "}}}
